SplineFontDB: 3.0
FontName: Oswald-Medium-Italic
FullName: Oswald Medium Italic
FamilyName: Oswald
Weight: Medium
Copyright: Copyright (c) 2010-13 by Vernon Adams
Version: 3
ItalicAngle: 0
UnderlinePosition: -67
UnderlineWidth: 35
Ascent: 1658
Descent: 390
UFOAscent: 1658
UFODescent: -390
LayerCount: 2
Layer: 0 0 "Back"  1
Layer: 1 0 "Fore"  0
FSType: 0
OS2Version: 0
OS2_WeightWidthSlopeOnly: 0
OS2_UseTypoMetrics: 1
CreationTime: 1372545452
ModificationTime: 1372545990
PfmFamily: 17
TTFWeight: 500
TTFWidth: 5
LineGap: 0
VLineGap: 0
OS2TypoAscent: 1658
OS2TypoAOffset: 0
OS2TypoDescent: -390
OS2TypoDOffset: 0
OS2TypoLinegap: 0
OS2WinAscent: 1658
OS2WinAOffset: 0
OS2WinDescent: 390
OS2WinDOffset: 0
HheadAscent: 1658
HheadAOffset: 0
HheadDescent: -390
HheadDOffset: 0
OS2Vendor: 'newt'
Lookup: 258 0 0 "'kern' Horizontal Kerning in Cyrillic lookup 0"  {"'kern' Horizontal Kerning in Cyrillic lookup 0 subtable"  "'kern' Horizontal Kerning lookup 3 kerning class 1"  } ['kern' ('DFLT' <'dflt' > 'cyrl' <'dflt' > 'latn' <'dflt' > ) ]
Lookup: 260 0 0 "markMarkPositioninglookup2"  {"markMarkPositioninglookup2 subtable"  } ['mark' ('latn' <'dflt' > 'grek' <'dflt' > 'cyrl' <'dflt' > 'DFLT' <'dflt' > ) ]
MarkAttachClasses: 1
DEI: 91125
KernClass2: 44 59 "'kern' Horizontal Kerning lookup 3 kerning class 1" 
 89 A Aacute Abreve Acircumflex Adieresis Agrave Amacron Aogonek Aring Atilde uni0200 uni0202
 9 B uni1E02
 16 D Dcaron uni1E0A
 94 E Eacute Ebreve Ecaron Ecircumflex Edieresis Edotaccent Egrave Emacron Eogonek uni0204 uni0206
 9 F uni1E1E
 52 G Gbreve Gcircumflex Gcommaaccent Gdotaccent uni01F4
 14 K Kcommaaccent
 28 L Lacute Lcaron Lcommaaccent
 9 P uni1E56
 44 R Racute Rcaron Rcommaaccent uni0210 uni0212
 37 T Tcaron Tcommaaccent uni021A uni1E6A
 1 V
 37 W Wacute Wcircumflex Wdieresis Wgrave
 37 Y Yacute Ycircumflex Ydieresis Ygrave
 89 a aacute abreve acircumflex adieresis agrave amacron aogonek aring atilde uni0201 uni0203
 9 afii10017
 9 afii10018
 19 afii10020 afii10052

StartChar: A
Encoding: 65 65 0
Width: 1058
VWidth: 0
Flags: W
HStem: 0 21G<-12 271.67 693.557 971> 388 195<429 656> 1638 20G<494.812 807.99>
AnchorPoint: "ogonek" 880 0 basechar 0
LayerCount: 2
UndoRedoHistory
Layer: 1
Undoes
EndUndoes
Redoes
EndRedoes
EndUndoRedoHistory
Fore
SplineSet
429 583 m 1
 656 583 l 1
 614 1268 l 1
 429 583 l 1
-12 0 m 1
 501 1658 l 1
 806 1658 l 1
 971 0 l 1
 695 0 l 1
 667 388 l 1
 376 388 l 1
 266 0 l 1
 -12 0 l 1
EndSplineSet
EndChar

StartChar: AE
Encoding: 198 198 1
Width: 1358
VWidth: 0
Flags: W
HStem: 0 205<890 1257> 388 198<448 641> 753 209<969 1224> 1443 206<1020 1409>
LayerCount: 2
UndoRedoHistory
Layer: 1
Undoes
EndUndoes
Redoes
EndRedoes
EndUndoRedoHistory
Fore
SplineSet
448 586 m 1
 662 586 l 1
 722 1156 l 1
 448 586 l 1
-134 0 m 1
 753 1649 l 1
 1430 1649 l 1
 1409 1443 l 1
 1020 1443 l 1
 969 962 l 1
 1246 962 l 1
 1224 753 l 1
 947 753 l 1
 890 205 l 1
 1278 205 l 1
 1257 0 l 1
 600 0 l 1
 641 388 l 1
 357 388 l 1
 153 0 l 1
 -134 0 l 1
EndSplineSet
EndChar

StartChar: B
Encoding: 66 66 11
Width: 1131
VWidth: 0
Flags: W
HStem: 0 209<392 678.802> 771 209<473 712.58> 1450 208<522 780.74>
LayerCount: 2
UndoRedoHistory
Layer: 1
Undoes
EndUndoes
Redoes
EndRedoes
EndUndoRedoHistory
Fore
SplineSet
473 980 m 1
 569 980 l 2
 754 980 814 1055 832 1233 c 1
 853 1428 760 1450 563 1450 c 2
 522 1450 l 1
 473 980 l 1
392 209 m 1
 506 209 l 2
 695 209 756 294 776 482 c 1
 796 681 736 771 548 771 c 2
 451 771 l 1
 392 209 l 1
74 0 m 1
 248 1658 l 1
 652 1658 l 2
 945 1658 1126 1558 1090 1236 c 0
 1066 1025 969 914 810 892 c 1
 1001 854 1083 724 1058 480 c 0
 1027 168 849 0 547 0 c 2
 74 0 l 1
EndSplineSet
EndChar

StartChar: C
Encoding: 67 67 12
Width: 1097
VWidth: 0
Flags: W
HStem: -20 220<429.295 660.055> 1458 219<548.943 783.298>
AnchorPoint: "cedilla" 480 0 basechar 0
LayerCount: 2
UndoRedoHistory
Layer: 1
Undoes
EndUndoes
Redoes
EndRedoes
EndUndoRedoHistory
Fore
SplineSet
514 -20 m 0
 149 -20 70 214 104 538 c 2
 165 1115 l 2
 201 1459 328 1677 693 1677 c 0
 1028 1677 1118 1492 1088 1198 c 1
 1073 1056 l 1
 788 1056 l 1
 803 1195 l 2
 818 1339 834 1458 671 1458 c 0
 511 1458 487 1336 469 1172 c 2
 397 478 l 1
 375 279 408 200 539 200 c 0
 695 200 711 321 728 478 c 2
 743 622 l 1
 1027 622 l 1
 1013 487 l 2
 982 189 861 -20 514 -20 c 0
EndSplineSet
EndChar

StartChar: D
Encoding: 68 68 18
Width: 1126
VWidth: 0
Flags: W
HStem: 0 208<392 646.709> 1446 212<522 766.652>
LayerCount: 2
UndoRedoHistory
Layer: 1
Undoes
EndUndoes
Redoes
EndRedoes
EndUndoRedoHistory
Fore
SplineSet
74 0 m 1
 248 1658 l 1
 631 1658 l 2
 1028 1658 1137 1499 1100 1142 c 2
 1037 544 l 2
 998 176 852 0 470 0 c 2
 74 0 l 1
392 208 m 1
 481 208 l 2
 699 208 713 325 737 552 c 2
 800 1148 l 2
 822 1362 814 1446 607 1446 c 2
 522 1446 l 1
 392 208 l 1
EndSplineSet
EndChar

StartChar: Dcroat
Encoding: 264 272 20
Width: 1133
VWidth: 0
Flags: W
HStem: 0 208<395 652.782> 779 152<80 163 471 562> 1446 212<525 772.939>
LayerCount: 2
UndoRedoHistory
Layer: 1
Undoes
EndUndoes
Redoes
EndRedoes
EndUndoRedoHistory
Fore
SplineSet
81 0 m 1
 163 779 l 1
 64 779 l 1
 80 931 l 1
 179 931 l 1
 255 1658 l 1
 637 1658 l 2
 1035 1658 1143 1499 1106 1142 c 2
 1043 544 l 2
 1005 176 858 0 476 0 c 2
 81 0 l 1
395 208 m 1
 490 208 l 2
 708 208 722 325 747 552 c 2
 810 1148 l 1
 831 1362 823 1446 616 1446 c 2
 525 1446 l 1
 471 931 l 1
 578 931 l 1
 562 779 l 1
 455 779 l 1
 395 208 l 1
EndSplineSet
EndChar

StartChar: E
Encoding: 69 69 21
Width: 869
VWidth: 0
Flags: W
HStem: 0 205<391 768> 757 209<471 762> 1448 210<522 915>
AnchorPoint: "ogonek" 511 0 basechar 0
LayerCount: 2
UndoRedoHistory
Layer: 1
Undoes
EndUndoes
Redoes
EndRedoes
EndUndoRedoHistory
Fore
SplineSet
74 0 m 1
 248 1658 l 1
 937 1658 l 1
 915 1448 l 1
 522 1448 l 1
 471 966 l 1
 783 966 l 1
 762 757 l 1
 450 757 l 1
 391 205 l 1
 790 205 l 1
 768 0 l 1
 74 0 l 1
EndSplineSet
EndChar

StartChar: Eng
Encoding: 269 330 30
Width: 1114
VWidth: 0
Flags: W
HStem: -404 188<452 638.98> 0 21G<77 320.12> 1638 20G<248.901 460.73 872.904 1111>
LayerCount: 2
UndoRedoHistory
Layer: 1
Undoes
EndUndoes
Redoes
EndRedoes
EndUndoRedoHistory
Fore
SplineSet
432 -404 m 1
 452 -216 l 1
 653 -216 689 -161 707 5 c 1
 718 120 l 1
 424 1000 l 1
 318 0 l 1
 77 0 l 1
 251 1658 l 1
 454 1658 l 1
 775 704 l 1
 875 1658 l 1
 1111 1658 l 1
 937 0 l 2
 909 -264 827 -404 541 -404 c 2
 432 -404 l 1
EndSplineSet
EndChar

StartChar: Eth
Encoding: 208 208 32
Width: 1086
VWidth: 0
Flags: W
HStem: 0 208<386 640.35> 776 158<73 150 462 546> 1446 212<515 760.65>
LayerCount: 2
UndoRedoHistory
Layer: 1
Undoes
EndUndoes
Redoes
EndRedoes
EndUndoRedoHistory
Fore
SplineSet
68 0 m 1
 150 776 l 1
 57 776 l 1
 73 934 l 1
 166 934 l 1
 242 1658 l 1
 625 1658 l 2
 1022 1658 1131 1499 1093 1142 c 2
 1030 544 l 2
 992 176 845 0 464 0 c 2
 68 0 l 1
386 208 m 1
 475 208 l 2
 692 208 707 325 731 552 c 2
 794 1148 l 2
 816 1362 808 1446 601 1446 c 2
 515 1446 l 1
 462 934 l 1
 563 934 l 1
 546 776 l 1
 445 776 l 1
 386 208 l 1
EndSplineSet
EndChar

StartChar: Euro
Encoding: 271 8364 33
Width: 1070
VWidth: 0
Flags: W
HStem: -20 220<436.541 667.444> 626 125<22 121 432 618> 914 125<52 150 463 647> 1458 219<556.074 790.442>
LayerCount: 2
UndoRedoHistory
Layer: 1
Undoes
EndUndoes
Redoes
EndRedoes
EndUndoRedoHistory
Fore
SplineSet
521 -20 m 0
 157 -20 77 214 111 538 c 1
 121 626 l 1
 9 626 l 1
 22 751 l 1
 133 751 l 1
 150 914 l 1
 39 914 l 1
 52 1039 l 1
 164 1039 l 1
 172 1115 l 2
 208 1459 335 1677 700 1677 c 0
 1035 1677 1126 1492 1095 1198 c 2
 1085 1104 l 1
 801 1104 l 1
 810 1195 l 2
 825 1339 841 1458 679 1458 c 0
 518 1458 494 1336 476 1172 c 1
 463 1039 l 1
 661 1039 l 1
 647 914 l 1
 449 914 l 1
 432 751 l 1
 630 751 l 1
 618 626 l 1
 420 626 l 1
 404 478 l 2
 383 279 415 200 546 200 c 0
 703 200 718 321 735 478 c 1
 743 557 l 1
 1028 557 l 1
 1020 487 l 1
 989 189 869 -20 521 -20 c 0
EndSplineSet
EndChar

StartChar: F
Encoding: 70 70 34
Width: 835
VWidth: 0
Flags: W
HStem: 0 21G<74 372.09> 756 208<471 753> 1453 205<523 905>
LayerCount: 2
UndoRedoHistory
Layer: 1
Undoes
EndUndoes
Redoes
EndRedoes
EndUndoRedoHistory
Fore
SplineSet
74 0 m 1
 248 1658 l 1
 926 1658 l 1
 905 1453 l 1
 523 1453 l 1
 471 964 l 1
 775 964 l 1
 753 756 l 1
 449 756 l 1
 370 0 l 1
 74 0 l 1
EndSplineSet
EndChar

StartChar: G
Encoding: 71 71 35
Width: 1136
VWidth: 0
Flags: W
HStem: -22 223<434.551 656.17> 0 21G<790.532 984.119> 648 192<622 784> 1458 219<548.431 793.384>
VStem: 791 191<0 135.306>
LayerCount: 2
UndoRedoHistory
Layer: 1
Undoes
EndUndoes
Redoes
EndRedoes
EndUndoRedoHistory
Fore
SplineSet
484 -22 m 0xb8
 161 -22 66 193 104 553 c 2
 161 1092 l 2
 200 1460 327 1677 691 1677 c 0
 1026 1677 1131 1508 1098 1190 c 1
 1089 1112 l 1
 807 1112 l 1
 815 1193 l 1
 833 1362 829 1458 673 1458 c 0
 505 1458 483 1321 466 1157 c 2
 397 497 l 2
 377 307 398 201 548 201 c 0xb8
 699 201 749 317 770 517 c 2
 784 648 l 1
 602 648 l 1
 622 840 l 1
 1071 840 l 1
 982 0 l 1
 791 0 l 1x78
 787 171 l 1
 732 60 641 -22 484 -22 c 0xb8
EndSplineSet
EndChar

StartChar: H
Encoding: 72 72 40
Width: 1185
VWidth: 0
Flags: W
HStem: 0 21G<74 372.101 716 1013.1> 752 211<471 795> 1638 20G<245.901 544 887.899 1185>
LayerCount: 2
UndoRedoHistory
Layer: 1
Undoes
EndUndoes
Redoes
EndRedoes
EndUndoRedoHistory
Fore
SplineSet
74 0 m 1
 248 1658 l 1
 544 1658 l 1
 471 963 l 1
 817 963 l 1
 890 1658 l 1
 1185 1658 l 1
 1011 0 l 1
 716 0 l 1
 795 752 l 1
 449 752 l 1
 370 0 l 1
 74 0 l 1
EndSplineSet
EndChar

StartChar: Hbar
Encoding: 276 294 41
Width: 1137
VWidth: 0
Flags: W
HStem: 0 21G<58 355.101 692 990.097> 752 211<455 772> 1259 124<101 190 498 824 1133 1213> 1638 20G<229.891 527 863.964 1162>
LayerCount: 2
UndoRedoHistory
Layer: 1
Undoes
EndUndoes
Redoes
EndRedoes
EndUndoRedoHistory
Fore
SplineSet
455 963 m 1
 794 963 l 1
 824 1259 l 1
 485 1259 l 1
 455 963 l 1
58 0 m 1
 190 1259 l 1
 88 1259 l 1
 101 1383 l 1
 203 1383 l 1
 232 1658 l 1
 527 1658 l 1
 498 1383 l 1
 838 1383 l 1
 866 1658 l 1
 1162 1658 l 1
 1133 1383 l 1
 1226 1383 l 1
 1213 1259 l 1
 1120 1259 l 1
 988 0 l 1
 692 0 l 1
 772 752 l 1
 432 752 l 1
 353 0 l 1
 58 0 l 1
EndSplineSet
EndChar

StartChar: I
Encoding: 73 73 43
Width: 557
VWidth: 0
Flags: W
HStem: 0 21G<84 377.099> 1638 20G<255.901 549>
VStem: 84 465
AnchorPoint: "ogonek" 220 0 basechar 0
LayerCount: 2
UndoRedoHistory
Layer: 1
Undoes
EndUndoes
Redoes
EndRedoes
EndUndoRedoHistory
Fore
SplineSet
84 0 m 1
 258 1658 l 1
 549 1658 l 1
 375 0 l 1
 84 0 l 1
EndSplineSet
EndChar

StartChar: J
Encoding: 74 74 53
Width: 662
VWidth: 0
Flags: W
HStem: -35 209<-14 171.111> 1638 20G<362.907 660>
AnchorPoint: "circumflexcomb" 338 1800 basechar 0
LayerCount: 2
UndoRedoHistory
Layer: 1
Undoes
EndUndoes
Redoes
EndRedoes
EndUndoRedoHistory
Fore
SplineSet
-35 -35 m 1
 -14 174 l 1
 163 173 213 210 232 387 c 2
 365 1658 l 1
 660 1658 l 1
 526 379 l 1
 494 99 399 -35 106 -35 c 2
 -35 -35 l 1
EndSplineSet
EndChar

StartChar: K
Encoding: 75 75 55
Width: 1077
VWidth: 0
Flags: W
HStem: 0 21G<74 372.116 717.668 1017> 1638 20G<245.901 544 863.772 1156>
LayerCount: 2
UndoRedoHistory
Layer: 1
Undoes
EndUndoes
Redoes
EndRedoes
EndUndoRedoHistory
Fore
SplineSet
74 0 m 1
 248 1658 l 1
 544 1658 l 1
 468 933 l 1
 875 1658 l 1
 1156 1658 l 1
 760 917 l 1
 1017 0 l 1
 723 0 l 1
 514 784 l 1
 441 671 l 1
 370 0 l 1
 74 0 l 1
EndSplineSet
EndChar

StartChar: L
Encoding: 76 76 57
Width: 851
VWidth: 0
Flags: W
HStem: 0 205<391 768> 1638 20G<245.901 544>
LayerCount: 2
UndoRedoHistory
Layer: 1
Undoes
EndUndoes
Redoes
EndRedoes
EndUndoRedoHistory
Fore
SplineSet
74 0 m 1
 248 1658 l 1
 544 1658 l 1
 391 205 l 1
 790 205 l 1
 768 0 l 1
 74 0 l 1
EndSplineSet
EndChar

StartChar: Lslash
Encoding: 289 321 62
Width: 860
VWidth: 0
Flags: W
HStem: 0 205<398 775> 1638 20G<251.918 550>
LayerCount: 2
UndoRedoHistory
Layer: 1
Undoes
EndUndoes
Redoes
EndRedoes
EndUndoRedoHistory
Fore
SplineSet
80 0 m 1
 159 751 l 1
 18 680 l 1
 38 875 l 1
 180 947 l 1
 254 1658 l 1
 550 1658 l 1
 491 1099 l 1
 709 1209 l 1
 689 1013 l 1
 471 903 l 1
 398 205 l 1
 796 205 l 1
 775 0 l 1
 80 0 l 1
EndSplineSet
EndChar

StartChar: M
Encoding: 77 77 63
Width: 1390
VWidth: 0
Flags: W
HStem: 0 21G<70 300.419 558.842 739.347 995 1221.76> 1638 20G<269.563 576.025 1063.65 1366>
LayerCount: 2
UndoRedoHistory
Layer: 1
Undoes
EndUndoes
Redoes
EndRedoes
EndUndoRedoHistory
Fore
SplineSet
70 0 m 1
 272 1658 l 1
 574 1658 l 1
 694 473 l 1
 1070 1658 l 1
 1366 1658 l 1
 1220 0 l 1
 995 0 l 1
 1097 1147 l 1
 733 0 l 1
 561 0 l 1
 437 1149 l 1
 298 0 l 1
 70 0 l 1
EndSplineSet
EndChar

StartChar: N
Encoding: 78 78 64
Width: 1109
VWidth: 0
Flags: W
HStem: 0 21G<74 327.1 735.76 936.099> 1638 20G<245.901 457.541 860.904 1108>
LayerCount: 2
UndoRedoHistory
Layer: 1
Undoes
EndUndoes
Redoes
EndRedoes
EndUndoRedoHistory
Fore
SplineSet
74 0 m 1
 248 1658 l 1
 451 1658 l 1
 763 704 l 1
 863 1658 l 1
 1108 1658 l 1
 934 0 l 1
 742 0 l 1
 430 1000 l 1
 325 0 l 1
 74 0 l 1
EndSplineSet
EndChar

StartChar: O
Encoding: 79 79 69
Width: 1146
VWidth: 0
Flags: W
HStem: -20 220<426.278 670.472> 1458 219<546.619 794.251>
AnchorPoint: "ogonek" 581 0 basechar 0
LayerCount: 2
UndoRedoHistory
Layer: 1
Undoes
EndUndoes
Redoes
EndRedoes
EndUndoRedoHistory
Fore
SplineSet
520 -20 m 0
 168 -20 67 186 102 526 c 1
 167 1139 l 2
 202 1478 346 1677 699 1677 c 0
 1050 1677 1154 1476 1118 1139 c 2
 1053 526 l 2
 1018 189 871 -20 520 -20 c 0
543 200 m 0
 697 200 731 311 747 458 c 2
 825 1206 l 2
 840 1353 829 1458 676 1458 c 0
 522 1458 489 1353 474 1206 c 2
 396 458 l 2
 380 311 390 200 543 200 c 0
EndSplineSet
EndChar

StartChar: OE
Encoding: 293 338 70
Width: 1440
VWidth: 0
Flags: W
HStem: 0 211<435.822 678 973 1336> 752 208<1052 1330> 1446 210<555.528 808 1103 1484>
LayerCount: 2
UndoRedoHistory
Layer: 1
Undoes
EndUndoes
Redoes
EndRedoes
EndUndoRedoHistory
Fore
SplineSet
575 211 m 2
 678 211 l 1
 808 1446 l 1
 702 1446 l 2
 497 1446 481 1302 458 1085 c 2
 399 525 l 2
 378 320 380 211 575 211 c 2
550 0 m 2
 173 0 66 185 103 533 c 2
 162 1091 l 2
 199 1444 348 1655 710 1656 c 1
 1506 1656 l 1
 1484 1446 l 1
 1103 1446 l 1
 1052 960 l 1
 1351 960 l 1
 1330 752 l 1
 1030 752 l 1
 973 205 l 1
 1357 205 l 1
 1336 0 l 1
 550 0 l 2
EndSplineSet
EndChar

StartChar: Oslash
Encoding: 216 216 78
Width: 1134
VWidth: 0
Flags: W
HStem: -20 220<425.279 670.472> 1458 219<546.619 796.478>
LayerCount: 2
UndoRedoHistory
Layer: 1
Undoes
EndUndoes
Redoes
EndRedoes
EndUndoRedoHistory
Fore
SplineSet
242 -159 m 1
 163 -130 l 1
 238.047532585 52.3796640923 l 1
 114.022769754 140.317993638 79.2294447602 304.800320528 102 526 c 2
 167 1139 l 2
 202 1478 346 1677 699 1677 c 0
 775.766578334 1677 840.718337271 1667.38551134 894.97466051 1648.83653346 c 1
 958 1802 l 1
 1039 1777 l 1
 971.322377162 1612.60366648 l 1
 1103.71852706 1528.14326364 1142.01859025 1363.84069206 1118 1139 c 2
 1053 526 l 2
 1018 189 871 -20 520 -20 c 0
 437.682382848 -20 369.09171328 -8.73405895457 312.757209584 12.8769858904 c 1
 242 -159 l 1
543 200 m 0
 697 200 731 311 747 458 c 2
 825 1206 l 2
 827.219219682 1227.74835289 828.869335649 1248.57738439 829.574696426 1268.28307689 c 1
 413.87524981 258.503743578 l 1
 435.739693866 221.655566062 475.420540866 200 543 200 c 0
393.21146422 429.457294181 m 1
 797.877192372 1412.87136561 l 1
 774.593654134 1441.66900821 736.339688183 1458 676 1458 c 0
 522 1458 489 1353 474 1206 c 2
 396 458 l 2
 394.946678688 448.322610445 394.006039526 438.801242329 393.21146422 429.457294181 c 1
EndSplineSet
EndChar

StartChar: P
Encoding: 80 80 80
Width: 1049
VWidth: 0
Flags: W
HStem: 0 21G<74 372.094> 745 208<470 735.481> 1449 209<522 783.189>
LayerCount: 2
UndoRedoHistory
Layer: 1
Undoes
EndUndoes
Redoes
EndRedoes
EndUndoRedoHistory
Fore
SplineSet
470 953 m 1
 565 953 l 2
 741 953 795 1010 813 1190 c 1
 834 1380 822 1449 619 1449 c 2
 522 1449 l 1
 470 953 l 1
74 0 m 1
 248 1658 l 1
 717 1658 l 2
 1014 1658 1123 1489 1091 1188 c 0
 1058 874 873 745 605 745 c 2
 448 745 l 1
 370 0 l 1
 74 0 l 1
EndSplineSet
EndChar

StartChar: Pi
Encoding: 297 928 81
Width: 1182
VWidth: 0
Flags: W
HStem: 0 21G<68 341.115 742 1016.1> 1447 211<492 895>
LayerCount: 2
UndoRedoHistory
Layer: 1
Undoes
EndUndoes
Redoes
EndRedoes
EndUndoRedoHistory
Fore
SplineSet
68 0 m 1
 242 1658 l 1
 1188 1658 l 1
 1014 0 l 1
 742 0 l 1
 895 1447 l 1
 492 1447 l 1
 339 0 l 1
 68 0 l 1
EndSplineSet
EndChar

StartChar: Q
Encoding: 81 81 82
Width: 1146
VWidth: 0
Flags: W
HStem: -343 21G<792.5 857.679> -20 220<426.278 565.714> 1458 219<546.619 794.251>
LayerCount: 2
UndoRedoHistory
Layer: 1
Undoes
EndUndoes
Redoes
EndRedoes
EndUndoRedoHistory
Fore
SplineSet
543 200 m 0
 697 200 731 311 747 458 c 2
 825 1206 l 2
 840 1353 829 1458 676 1458 c 0
 522 1458 489 1353 474 1206 c 2
 396 458 l 2
 380 311 390 200 543 200 c 0
836 -343 m 1
 749 -286 621 -138 555 -19 c 1
 544 -20 532 -20 520 -20 c 0
 168 -20 67 186 102 526 c 1
 167 1139 l 2
 202 1478 346 1677 699 1677 c 0
 1050 1677 1154 1476 1118 1139 c 2
 1053 526 l 2
 1028 284 945 108 770 28 c 1
 822 -60 929 -173 978 -212 c 1
 836 -343 l 1
EndSplineSet
EndChar

StartChar: R
Encoding: 82 82 83
Width: 1121
VWidth: 0
Flags: W
HStem: 0 21G<74 372.111 710.649 1005> 758 192<470 587> 1454 204<523 766.718>
LayerCount: 2
UndoRedoHistory
Layer: 1
Undoes
EndUndoes
Redoes
EndRedoes
EndUndoRedoHistory
Fore
SplineSet
470 950 m 1
 540 950 l 2
 719 950 799 1013 819 1203 c 0
 837 1377 796 1454 611 1454 c 2
 523 1454 l 1
 470 950 l 1
74 0 m 1
 248 1658 l 1
 621 1658 l 2
 957 1658 1135 1553 1100 1216 c 0
 1079 1018 1005 878 852 818 c 1
 1005 0 l 1
 714 0 l 1
 587 758 l 1
 450 758 l 1
 370 0 l 1
 74 0 l 1
EndSplineSet
EndChar

StartChar: S
Encoding: 83 83 87
Width: 1003
VWidth: 0
Flags: W
HStem: -20 228<401.932 610.468>
VStem: 81 264<270.25 484> 744 258<1230 1416.2>
AnchorPoint: "cedilla" 470 0 basechar 0
LayerCount: 2
UndoRedoHistory
Layer: 1
Undoes
EndUndoes
Redoes
EndRedoes
EndUndoRedoHistory
Fore
SplineSet
486 -20 m 0
 185 -20 61 164 81 484 c 1
 345 540 l 1
 331 353 363 208 503 208 c 0
 601 208 649 273 659 367 c 0
 674 512 608 586 514 677 c 2
 311 872 l 2
 207 973 146 1079 166 1270 c 0
 193 1529 371 1675 630 1677 c 0
 937 1680 1009 1481 1002 1230 c 1
 744 1178 l 1
 753 1329 743 1463 603 1454 c 0
 508 1448 453 1390 443 1298 c 1
 432 1184 476 1126 545 1059 c 2
 748 865 l 1
 866 749 965 605 942 386 c 0
 917 144 732 -20 486 -20 c 0
EndSplineSet
EndChar

StartChar: T
Encoding: 84 84 93
Width: 860
VWidth: 0
Flags: W
HStem: 0 21G<237 534.097> 1440 218<131 388 683 955>
AnchorPoint: "cedilla" 380 0 basechar 0
LayerCount: 2
UndoRedoHistory
Layer: 1
Undoes
EndUndoes
Redoes
EndRedoes
EndUndoRedoHistory
Fore
SplineSet
237 0 m 1
 388 1440 l 1
 108 1440 l 1
 131 1658 l 1
 978 1658 l 1
 955 1440 l 1
 683 1440 l 1
 532 0 l 1
 237 0 l 1
EndSplineSet
EndChar

StartChar: Tbar
Encoding: 306 358 94
Width: 860
VWidth: 0
Flags: W
HStem: 0 21G<226 523.097> 778 155<129 307.582 618.835 801> 1440 218<120 377 672 944>
LayerCount: 2
UndoRedoHistory
Layer: 1
Undoes
EndUndoes
Redoes
EndRedoes
EndUndoRedoHistory
Fore
SplineSet
113 778 m 1
 129 933 l 1
 323.835416667 933 l 1
 377 1440 l 1
 97 1440 l 1
 120 1658 l 1
 967 1658 l 1
 944 1440 l 1
 672 1440 l 1
 618.835416667 933 l 1
 818 933 l 1
 801 778 l 1
 602.581944444 778 l 1
 521 0 l 1
 226 0 l 1
 307.581944444 778 l 1
 113 778 l 1
EndSplineSet
EndChar

StartChar: Thorn
Encoding: 222 222 97
Width: 1075
VWidth: 0
Flags: W
HStem: 0 21G<68 366.11> 474 224<437 728.069> 1210 229<515 768.091> 1638 20G<239.901 538>
LayerCount: 2
UndoRedoHistory
Layer: 1
Undoes
EndUndoes
Redoes
EndRedoes
EndUndoRedoHistory
Fore
SplineSet
437 698 m 1
 555 698 l 2
 720 698 797 756 818 958 c 0
 837 1140 789 1210 631 1210 c 2
 491 1210 l 1
 437 698 l 1
68 0 m 1
 242 1658 l 1
 538 1658 l 1
 515 1439 l 1
 715 1439 l 2
 1009 1439 1129 1275 1096 963 c 0
 1059 611 892 475 581 474 c 1
 414 474 l 1
 364 0 l 1
 68 0 l 1
EndSplineSet
EndChar

StartChar: U
Encoding: 85 85 98
Width: 1149
VWidth: 0
Flags: W
HStem: -20 223<437.81 666.555> 1638 20G<232.905 521 873.904 1162>
AnchorPoint: "ogonek" 581 0 basechar 0
LayerCount: 2
UndoRedoHistory
Layer: 1
Undoes
EndUndoes
Redoes
EndRedoes
EndUndoRedoHistory
Fore
SplineSet
523 -20 m 0
 150 -20 82 200 120 560 c 2
 235 1658 l 1
 521 1658 l 1
 403 532 l 2
 384 356 385 203 547 203 c 0
 708 203 739 356 758 532 c 2
 876 1658 l 1
 1162 1658 l 1
 1046 560 l 1
 1009 200 896 -20 523 -20 c 0
EndSplineSet
EndChar

StartChar: V
Encoding: 86 86 109
Width: 1053
VWidth: 0
Flags: W
HStem: 0 21G<332.998 624.212> 1638 20G<169 434.744 859.283 1133>
LayerCount: 2
UndoRedoHistory
Layer: 1
Undoes
EndUndoes
Redoes
EndRedoes
EndUndoRedoHistory
Fore
SplineSet
335 0 m 1
 169 1658 l 1
 433 1658 l 1
 534 500 l 1
 865 1658 l 1
 1133 1658 l 1
 618 0 l 1
 335 0 l 1
EndSplineSet
EndChar

StartChar: W
Encoding: 87 87 110
Width: 1473
VWidth: 0
Flags: W
HStem: 0 21G<258.18 504.51 880.658 1120.01> 1638 20G<191 440.481 756.519 962.332 1281.32 1530>
VStem: 191 249<1308.45 1658>
LayerCount: 2
UndoRedoHistory
Layer: 1
Undoes
EndUndoes
Redoes
EndRedoes
EndUndoRedoHistory
Fore
SplineSet
259 0 m 1
 191 1658 l 1
 440 1658 l 1
 466 578 l 1
 762 1658 l 1
 961 1658 l 1
 1033 577 l 1
 1286 1658 l 1
 1530 1658 l 1
 1115 0 l 1
 882 0 l 1
 807 1118 l 1
 499 0 l 1
 259 0 l 1
EndSplineSet
EndChar

StartChar: X
Encoding: 88 88 115
Width: 1018
VWidth: 0
Flags: W
HStem: 0 21G<-29 240.431 665.737 948> 1638 20G<154 437.308 828.654 1099>
LayerCount: 2
UndoRedoHistory
Layer: 1
Undoes
EndUndoes
Redoes
EndRedoes
EndUndoRedoHistory
Fore
SplineSet
-29 0 m 1
 398 879 l 1
 154 1658 l 1
 431 1658 l 1
 595 1138 l 1
 838 1658 l 1
 1099 1658 l 1
 689 830 l 1
 948 0 l 1
 672 0 l 1
 496 562 l 1
 231 0 l 1
 -29 0 l 1
EndSplineSet
EndChar

StartChar: Y
Encoding: 89 89 116
AltUni2: 0004ae.ffffffff.0
Width: 998
VWidth: 0
Flags: W
HStem: 0 21G<309 594.077> 1638 20G<144 423.125 821.929 1104>
LayerCount: 2
UndoRedoHistory
Layer: 1
Undoes
EndUndoes
Redoes
EndRedoes
EndUndoRedoHistory
Fore
SplineSet
309 0 m 1
 375 626 l 1
 144 1658 l 1
 419 1658 l 1
 558 984 l 1
 830 1658 l 1
 1104 1658 l 1
 657 626 l 1
 592 0 l 1
 309 0 l 1
EndSplineSet
EndChar

StartChar: Z
Encoding: 90 90 121
Width: 869
VWidth: 0
Flags: W
HStem: 0 205<328 773> 1453 205<221 621>
LayerCount: 2
UndoRedoHistory
Layer: 1
Undoes
EndUndoes
Redoes
EndRedoes
EndUndoRedoHistory
Fore
SplineSet
25 0 m 1
 45 195 l 1
 621 1453 l 1
 200 1453 l 1
 221 1658 l 1
 946 1658 l 1
 931 1515 l 1
 328 205 l 1
 795 205 l 1
 773 0 l 1
 25 0 l 1
EndSplineSet
EndChar

StartChar: a
Encoding: 97 97 125
Width: 922
VWidth: 0
Flags: W
HStem: -18 215<205 423.745> 0 21G<546.621 796> 997 205<432.993 584.753>
VStem: 548 248<0 174>
AnchorPoint: "ogonek" 714 0 basechar 0
LayerCount: 2
UndoRedoHistory
Layer: 1
Undoes
EndUndoes
Redoes
EndRedoes
EndUndoRedoHistory
Fore
SplineSet
410 197 m 0xb0
 459 197 514 248 534 272 c 1
 568 597 l 1
 462 542 343 458 330 336 c 0
 321 251 349 197 410 197 c 0xb0
282 -18 m 0
 128 -17 44 126 58 264 c 1
 92 576 363 657 583 740 c 1
 593 838 l 2
 603 937 597 997 515 997 c 0
 439 997 411 937 403 863 c 1
 392 790 l 1
 128 801 l 1
 130 812 133 833 135 844 c 0
 177 1096 324 1202 558 1202 c 0
 798 1202 886 1063 862 837 c 2
 805 297 l 2
 791 165 794 74 796 0 c 1
 548 0 l 1x70
 548 0 536 113 536 174 c 1
 498 78 414 -18 282 -18 c 0
EndSplineSet
EndChar

StartChar: acute
Encoding: 180 180 129
Width: 608
VWidth: 0
Flags: W
HStem: 1249 409
VStem: 197 441
LayerCount: 2
UndoRedoHistory
Layer: 1
Undoes
EndUndoes
Redoes
EndRedoes
EndUndoRedoHistory
Fore
SplineSet
197 1249 m 1
 361 1658 l 1
 638 1658 l 1
 351 1249 l 1
 197 1249 l 1
EndSplineSet
EndChar

StartChar: acutecomb
Encoding: 326 769 130
Width: 182
VWidth: 0
Flags: W
HStem: 1249 409
VStem: 69 441
LayerCount: 2
UndoRedoHistory
Layer: 1
Undoes
EndUndoes
Redoes
EndRedoes
EndUndoRedoHistory
Fore
SplineSet
69 1249 m 1
 233 1658 l 1
 510 1658 l 1
 223 1249 l 1
 69 1249 l 1
EndSplineSet
EndChar

StartChar: ae
Encoding: 230 230 132
Width: 1360
VWidth: 0
Flags: W
HStem: -20 208<825.258 961.301> 992 221<425.133 581.032> 1010 203<902.232 1059.63>
LayerCount: 2
UndoRedoHistory
Layer: 1
Undoes
EndUndoes
Redoes
EndRedoes
EndUndoRedoHistory
Fore
SplineSet
846 717 m 1xa0
 858 719 939 735 947 741 c 1
 1018 759 1062 782 1071 870 c 0
 1080 951 1057 1010 985 1010 c 0
 908 1010 870 936 860 842 c 2
 846 717 l 1xa0
401 182 m 0
 466 182 530 253 546 399 c 1
 560 539 l 1
 533 532 506 523 480 511 c 0
 390 470 330 400 321 316 c 0
 313 244 343 182 401 182 c 0
289 -20 m 0
 142 -12 40 108 57 267 c 0
 81 504 237 598 414 641 c 0
 430 645 561 676 574 678 c 1
 591 833 l 2
 601 928 586 992 507 992 c 0
 429 992 398 927 386 817 c 1
 116 817 l 1
 142 1059 284 1213 521 1213 c 0xc0
 641 1213 727 1156 745 1067 c 1
 793 1147 888 1213 1007 1213 c 0
 1237 1213 1332 1062 1312 862 c 0
 1293 679 1117 634 959 603 c 0
 949 601 842 582 832 581 c 1
 822 481 l 2
 810 359 781 188 889 188 c 0
 970 188 986 272 996 362 c 2
 1002 414 l 1
 1266 414 l 1
 1259 350 l 2
 1234 117 1108 -20 876 -20 c 0
 742 -20 639 67 631 200 c 1
 559 69 440 -29 289 -20 c 0
EndSplineSet
EndChar

StartChar: afii10018
Encoding: 328 1041 134
Width: 1063
VWidth: 0
Flags: W
HStem: 0 203<394 616.851> 757 208<474 656.951> 1440 218<524 990>
LayerCount: 2
UndoRedoHistory
Layer: 1
Undoes
EndUndoes
Redoes
EndRedoes
EndUndoRedoHistory
Fore
SplineSet
394 203 m 1
 437 203 l 2
 614 203 699 254 722 489 c 0
 740 673 690 757 491 757 c 2
 452 757 l 1
 394 203 l 1
77 0 m 1
 251 1658 l 1
 1013 1658 l 1
 990 1440 l 1
 524 1440 l 1
 474 965 l 1
 521 965 l 2
 869 965 1035 853 996 485 c 0
 957 113 752 0 415 0 c 2
 77 0 l 1
EndSplineSet
EndChar

StartChar: afii10019
Encoding: 329 1042 135
Width: 1131
VWidth: 0
Flags: W
HStem: 0 209<395 681.802> 771 209<476 715.58> 1450 208<525 783.74>
LayerCount: 2
UndoRedoHistory
Layer: 1
Undoes
EndUndoes
Redoes
EndRedoes
EndUndoRedoHistory
Fore
SplineSet
476 980 m 1
 572 980 l 2
 757 980 817 1055 835 1233 c 0
 855 1428 762 1450 566 1450 c 2
 525 1450 l 1
 476 980 l 1
395 209 m 1
 509 209 l 2
 698 209 759 294 779 482 c 1
 799 681 739 771 551 771 c 2
 453 771 l 1
 395 209 l 1
77 0 m 1
 251 1658 l 1
 655 1658 l 2
 948 1658 1129 1558 1093 1236 c 0
 1069 1025 972 914 813 892 c 1
 1004 854 1086 724 1061 480 c 0
 1030 168 852 0 550 0 c 2
 77 0 l 1
EndSplineSet
EndChar

StartChar: afii10020
Encoding: 330 1043 136
Width: 854
VWidth: 0
Flags: W
HStem: 0 21G<77 374.111> 1440 218<524 917>
LayerCount: 2
UndoRedoHistory
Layer: 1
Undoes
EndUndoes
Redoes
EndRedoes
EndUndoRedoHistory
Fore
SplineSet
77 0 m 1
 251 1658 l 1
 939 1658 l 1
 917 1440 l 1
 524 1440 l 1
 372 0 l 1
 77 0 l 1
EndSplineSet
EndChar

StartChar: afii10021
Encoding: 331 1044 137
Width: 1349
VWidth: 0
Flags: W
HStem: 0 210<341 822> 1445 213<738 951>
VStem: -57 217<-326 -239.453> 1012 213<-326 -191.191>
LayerCount: 2
UndoRedoHistory
Layer: 1
Undoes
EndUndoes
Redoes
EndRedoes
EndUndoRedoHistory
Fore
SplineSet
341 210 m 1
 822 210 l 1
 951 1445 l 1
 738 1445 l 1
 686 1091 l 2
 588 423 467 320 341 210 c 1
-57 -326 m 1
 0 210 l 1
 67 210 l 1
 205 292 332 471 438 1142 c 1
 522 1658 l 1
 1259 1658 l 1
 1107 210 l 1
 1282 210 l 1
 1225 -326 l 1
 1012 -326 l 1
 1027 0 l 1
 214 0 l 1
 160 -326 l 1
 -57 -326 l 1
EndSplineSet
EndChar

StartChar: afii10024
Encoding: 334 1046 140
Width: 1490
VWidth: 0
Flags: W
HStem: 0 21G<-45 243.061 574 818.1 1152.14 1435> 819 48<651 661 907 918> 1638 20G<157 443.386 745.927 990 1291.42 1582>
LayerCount: 2
UndoRedoHistory
Layer: 1
Undoes
EndUndoes
Redoes
EndRedoes
EndUndoRedoHistory
Fore
SplineSet
-45 0 m 1
 411 841 l 1
 157 1658 l 1
 438 1658 l 1
 651 867 l 1
 666 867 l 1
 748 1658 l 1
 990 1658 l 1
 907 867 l 1
 922 867 l 1
 1301 1658 l 1
 1582 1658 l 1
 1156 841 l 1
 1435 0 l 1
 1158 0 l 1
 918 819 l 1
 902 819 l 1
 816 0 l 1
 574 0 l 1
 661 819 l 1
 645 819 l 1
 233 0 l 1
 -45 0 l 1
EndSplineSet
EndChar

StartChar: afii10025
Encoding: 335 1047 141
Width: 1023
VWidth: 0
Flags: W
HStem: -22 231<387.112 595.316> 758 205<407 595.615> 1453 225<486.857 710.617>
VStem: 121 279<1159 1345.42>
LayerCount: 2
UndoRedoHistory
Layer: 1
Undoes
EndUndoes
Redoes
EndRedoes
EndUndoRedoHistory
Fore
SplineSet
460 -22 m 0
 158 -22 47 157 77 443 c 1
 84 502 l 1
 362 502 l 1
 360 487 357 453 356 439 c 0
 345 296 365 209 486 209 c 0
 621 209 648 316 666 474 c 1
 683 638 644 745 454 757 c 0
 442 758 400 758 386 758 c 1
 407 963 l 1
 420 963 459 963 471 964 c 0
 664 974 727 1066 744 1230 c 0
 759 1367 725 1453 603 1453 c 0
 481 1453 429 1357 408 1229 c 0
 406 1216 401 1173 400 1159 c 1
 121 1159 l 1
 130 1234 l 1
 159 1515 346 1678 621 1678 c 0
 900 1678 1051 1518 1022 1238 c 0
 1002 1045 896 913 759 874 c 1
 895 826 965 700 942 477 c 0
 910 178 770 -22 460 -22 c 0
EndSplineSet
EndChar

StartChar: afii10026
Encoding: 336 1048 142
Width: 1156
VWidth: 0
Flags: W
HStem: 0 21G<77 286.619 730 981.099> 1638 20G<248.901 498 940.244 1153>
LayerCount: 2
UndoRedoHistory
Layer: 1
Undoes
EndUndoes
Redoes
EndRedoes
EndUndoRedoHistory
Fore
SplineSet
77 0 m 1
 251 1658 l 1
 498 1658 l 1
 389 613 l 1
 951 1658 l 1
 1153 1658 l 1
 979 0 l 1
 730 0 l 1
 842 1066 l 1
 276 0 l 1
 77 0 l 1
EndSplineSet
EndChar

StartChar: afii10028
Encoding: 338 1050 144
Width: 1099
VWidth: 0
Flags: W
HStem: 0 21G<77 374.113 720.588 1025> 1638 20G<248.901 546 868.228 1171>
LayerCount: 2
UndoRedoHistory
Layer: 1
Undoes
EndUndoes
Redoes
EndRedoes
EndUndoRedoHistory
Fore
SplineSet
77 0 m 1
 251 1658 l 1
 546 1658 l 1
 473 956 l 1
 535 956 l 1
 878 1658 l 1
 1171 1658 l 1
 778 876 l 1
 1025 0 l 1
 726 0 l 1
 516 776 l 1
 454 776 l 1
 372 0 l 1
 77 0 l 1
EndSplineSet
EndChar

StartChar: afii10029
Encoding: 339 1051 145
Width: 1252
VWidth: 0
Flags: W
HStem: 0 214<-24 122.839> 1437 221<684 931>
LayerCount: 2
UndoRedoHistory
Layer: 1
Undoes
EndUndoes
Redoes
EndRedoes
EndUndoRedoHistory
Fore
SplineSet
-47 0 m 1
 -24 214 l 1
 149 209 207 247 302 800 c 1
 447 1658 l 1
 1249 1658 l 1
 1075 0 l 1
 780 0 l 1
 931 1437 l 1
 684 1437 l 1
 577 774 l 1
 488 229 405 -32 -47 0 c 1
EndSplineSet
EndChar

StartChar: afii10030
Encoding: 340 1052 146
Width: 1392
VWidth: 0
Flags: W
HStem: 0 21G<71 296.354 567.238 732.914 1000 1222.76> 1638 20G<270.563 562.493 1079.19 1367>
LayerCount: 2
UndoRedoHistory
Layer: 1
Undoes
EndUndoes
Redoes
EndRedoes
EndUndoRedoHistory
Fore
SplineSet
71 0 m 1
 273 1658 l 1
 560 1658 l 1
 701 527 l 1
 1086 1658 l 1
 1367 1658 l 1
 1221 0 l 1
 1000 0 l 1
 1098 1076 l 1
 726 0 l 1
 570 0 l 1
 421 1079 l 1
 294 0 l 1
 71 0 l 1
EndSplineSet
EndChar

StartChar: afii10033
Encoding: 343 1055 149
Width: 1203
VWidth: 0
Flags: W
HStem: 0 21G<74 369.115 735 1030.1> 1447 211<520 888>
LayerCount: 2
UndoRedoHistory
Layer: 1
Undoes
EndUndoes
Redoes
EndRedoes
EndUndoRedoHistory
Fore
SplineSet
74 0 m 1
 248 1658 l 1
 1202 1658 l 1
 1028 0 l 1
 735 0 l 1
 888 1447 l 1
 520 1447 l 1
 367 0 l 1
 74 0 l 1
EndSplineSet
EndChar

StartChar: afii10034
Encoding: 344 1056 150
Width: 1050
VWidth: 0
Flags: W
HStem: 0 21G<74 372.094> 745 208<470 735.481> 1449 209<522 783.189>
LayerCount: 2
UndoRedoHistory
Layer: 1
Undoes
EndUndoes
Redoes
EndRedoes
EndUndoRedoHistory
Fore
SplineSet
470 953 m 1
 565 953 l 2
 741 953 795 1010 813 1190 c 1
 834 1380 822 1449 619 1449 c 2
 522 1449 l 1
 470 953 l 1
74 0 m 1
 248 1658 l 1
 717 1658 l 2
 1014 1658 1123 1489 1091 1188 c 0
 1058 874 873 745 605 745 c 2
 448 745 l 1
 370 0 l 1
 74 0 l 1
EndSplineSet
EndChar

StartChar: afii10037
Encoding: 347 1059 153
Width: 1003
VWidth: 0
Flags: W
HStem: -287 212<49 302.172> 1638 20G<163 439.855 820.48 1107>
LayerCount: 2
UndoRedoHistory
Layer: 1
Undoes
EndUndoes
Redoes
EndRedoes
EndUndoRedoHistory
Fore
SplineSet
27 -287 m 1
 49 -75 l 1
 313 -98 370 -22 346 174 c 2
 163 1658 l 1
 438 1658 l 1
 502 968 l 1
 523 475 l 1
 635 966 l 1
 826 1658 l 1
 1107 1658 l 1
 637 152 l 2
 527 -200 490 -308 27 -287 c 1
EndSplineSet
EndChar

StartChar: afii10038
Encoding: 348 1060 154
Width: 1446
VWidth: 0
Flags: W
HStem: 197 179<394.135 556.439 844 1039.98> 1313 176<483.277 674 961 1117.78>
LayerCount: 2
UndoRedoHistory
Layer: 1
Undoes
EndUndoes
Redoes
EndRedoes
EndUndoRedoHistory
Fore
SplineSet
878 377 m 0
 1048 368 1082 436 1102 622 c 2
 1148 1064 l 2
 1167 1248 1149 1320 976 1313 c 1
 942 1313 l 1
 844 378 l 1
 847 378 875 377 878 377 c 0
547 376 m 0
 550 376 572 377 576 378 c 1
 674 1312 l 1
 670 1313 648 1314 645 1313 c 1
 475 1321 441 1249 422 1064 c 2
 375 622 l 2
 356 438 375 368 547 376 c 0
529 -64 m 1
 557 199 l 1
 502 197 l 1
 227 173 79 316 111 624 c 2
 157 1062 l 2
 190 1369 368 1507 634 1489 c 1
 692 1487 l 1
 724 1788 l 1
 992 1788 l 1
 961 1488 l 1
 1021 1489 l 1
 1295 1507 1444 1370 1412 1062 c 2
 1366 624 l 2
 1334 317 1155 173 890 197 c 1
 825 199 l 1
 798 -64 l 1
 529 -64 l 1
EndSplineSet
EndChar

StartChar: afii10040
Encoding: 350 1062 156
Width: 1337
VWidth: 0
Flags: W
HStem: 0 205<394 779> 1638 20G<248.901 546 929.894 1227>
VStem: 985 222<-326 -190.064>
LayerCount: 2
UndoRedoHistory
Layer: 1
Undoes
EndUndoes
Redoes
EndRedoes
EndUndoRedoHistory
Fore
SplineSet
985 -326 m 1
 988 0 l 1
 77 0 l 1
 251 1658 l 1
 546 1658 l 1
 394 205 l 1
 779 205 l 1
 932 1658 l 1
 1227 1658 l 1
 1075 205 l 1
 1263 205 l 1
 1207 -326 l 1
 985 -326 l 1
EndSplineSet
EndChar

StartChar: afii10041
Encoding: 351 1063 157
Width: 1162
VWidth: 0
Flags: W
HStem: 0 21G<689 986.099> 710 186<476.737 763.33> 1638 20G<216.874 496 860.903 1158>
LayerCount: 2
UndoRedoHistory
Layer: 1
Undoes
EndUndoes
Redoes
EndRedoes
EndUndoRedoHistory
Fore
SplineSet
689 0 m 1
 766 733 l 1
 680 718 602 710 539 710 c 0
 281 710 133 845 160 1103 c 2
 219 1658 l 1
 496 1658 l 1
 438 1104 l 2
 425 974 452 896 625 896 c 0
 669 896 722 901 785 914 c 1
 863 1658 l 1
 1158 1658 l 1
 984 0 l 1
 689 0 l 1
EndSplineSet
EndChar

StartChar: afii10042
Encoding: 352 1064 158
Width: 1605
VWidth: 0
Flags: W
HStem: 0 212<387 637 924 1163> 1638 20G<248.901 539 786.898 1076 1312.9 1602>
LayerCount: 2
UndoRedoHistory
Layer: 1
Undoes
EndUndoes
Redoes
EndRedoes
EndUndoRedoHistory
Fore
SplineSet
77 0 m 1
 251 1658 l 1
 539 1658 l 1
 387 212 l 1
 637 212 l 1
 789 1658 l 1
 1076 1658 l 1
 924 212 l 1
 1163 212 l 1
 1315 1658 l 1
 1602 1658 l 1
 1428 0 l 1
 77 0 l 1
EndSplineSet
EndChar

StartChar: afii10043
Encoding: 353 1065 159
Width: 1733
VWidth: 0
Flags: W
HStem: 0 205<386 637 924 1164> 1638 20G<248.901 539 786.908 1076 1313.91 1603>
VStem: 1361 223<-326 -190.064>
LayerCount: 2
UndoRedoHistory
Layer: 1
Undoes
EndUndoes
Redoes
EndRedoes
EndUndoRedoHistory
Fore
SplineSet
1361 -326 m 1
 1367 0 l 1
 77 0 l 1
 251 1658 l 1
 539 1658 l 1
 386 205 l 1
 637 205 l 1
 789 1658 l 1
 1076 1658 l 1
 924 205 l 1
 1164 205 l 1
 1316 1658 l 1
 1603 1658 l 1
 1451 205 l 1
 1640 205 l 1
 1584 -326 l 1
 1361 -326 l 1
EndSplineSet
EndChar

StartChar: afii10044
Encoding: 354 1066 160
Width: 1218
VWidth: 0
Flags: W
HStem: 0 203<540 777.851> 757 208<620 817.951> 1445 213<120 374>
LayerCount: 2
UndoRedoHistory
Layer: 1
Undoes
EndUndoes
Redoes
EndRedoes
EndUndoRedoHistory
Fore
SplineSet
540 203 m 1
 598 203 l 2
 775 203 860 254 883 489 c 0
 901 673 851 757 652 757 c 2
 598 757 l 1
 540 203 l 1
223 0 m 1
 374 1445 l 1
 98 1445 l 1
 120 1658 l 1
 692 1658 l 1
 620 965 l 1
 682 965 l 2
 1030 965 1196 853 1157 485 c 0
 1118 113 913 0 576 0 c 2
 223 0 l 1
EndSplineSet
EndChar

StartChar: afii10045
Encoding: 355 1067 161
Width: 1582
VWidth: 0
Flags: W
HStem: 0 203<394 626.974> 757 208<474 666.954> 1638 20G<248.901 546 1281.9 1579>
LayerCount: 2
UndoRedoHistory
Layer: 1
Undoes
EndUndoes
Redoes
EndRedoes
EndUndoRedoHistory
Fore
SplineSet
1110 0 m 1
 1284 1658 l 1
 1579 1658 l 1
 1405 0 l 1
 1110 0 l 1
394 203 m 1
 448 203 l 2
 624 203 709 254 732 489 c 0
 750 673 701 757 501 757 c 2
 452 757 l 1
 394 203 l 1
77 0 m 1
 251 1658 l 1
 546 1658 l 1
 474 965 l 1
 531 965 l 2
 879 965 1045 853 1007 485 c 0
 968 113 762 0 425 0 c 2
 77 0 l 1
EndSplineSet
EndChar

StartChar: afii10046
Encoding: 356 1068 162
Width: 1067
VWidth: 0
Flags: W
HStem: 0 203<394 626.451> 757 208<474 666.005> 1638 20G<248.901 546>
LayerCount: 2
UndoRedoHistory
Layer: 1
Undoes
EndUndoes
Redoes
EndRedoes
EndUndoRedoHistory
Fore
SplineSet
394 203 m 1
 447 203 l 2
 623 203 708 254 731 489 c 0
 749 673 700 757 500 757 c 2
 452 757 l 1
 394 203 l 1
77 0 m 1
 251 1658 l 1
 546 1658 l 1
 474 965 l 1
 530 965 l 2
 878 965 1045 853 1006 485 c 0
 967 113 761 0 425 0 c 2
 77 0 l 1
EndSplineSet
EndChar

StartChar: afii10047
Encoding: 357 1069 163
Width: 1111
VWidth: 0
Flags: W
HStem: -2 219<403.69 638.034> 768 171<490 746> 1475 220<526.851 757.558>
LayerCount: 2
UndoRedoHistory
Layer: 1
Undoes
EndUndoes
Redoes
EndRedoes
EndUndoRedoHistory
Fore
SplineSet
494 -2 m 0
 159 -2 68 183 99 477 c 2
 108 563 l 1
 393 563 l 1
 384 480 l 2
 369 336 353 217 516 217 c 0
 676 217 700 339 717 503 c 2
 746 768 l 1
 472 768 l 1
 490 939 l 1
 764 939 l 1
 790 1197 l 2
 811 1396 779 1475 648 1475 c 0
 492 1475 475 1354 459 1197 c 2
 450 1112 l 1
 166 1112 l 1
 174 1188 l 2
 206 1486 326 1695 673 1695 c 0
 1038 1695 1117 1461 1083 1137 c 2
 1022 560 l 2
 986 216 859 -2 494 -2 c 0
EndSplineSet
EndChar

StartChar: afii10048
Encoding: 358 1070 164
Width: 1566
VWidth: 0
Flags: W
HStem: -20 220<892.465 1122.45> 0 21G<77 362.095> 735 220<461 623> 1458 219<1014.65 1248.14> 1638 20G<248.901 534>
LayerCount: 2
UndoRedoHistory
Layer: 1
Undoes
EndUndoes
Redoes
EndRedoes
EndUndoRedoHistory
Fore
SplineSet
1004 200 m 0xb0
 1148 200 1181 311 1197 458 c 2
 1275 1206 l 2
 1291 1353 1281 1458 1136 1458 c 0
 991 1458 958 1353 942 1206 c 2
 864 458 l 2
 849 311 859 200 1004 200 c 0xb0
980 -20 m 0
 647 -20 567 198 603 537 c 1
 623 735 l 1
 437 735 l 1
 360 0 l 1
 77 0 l 1
 251 1658 l 1
 534 1658 l 1x68
 461 955 l 1
 646 955 l 1
 664 1127 l 2
 700 1467 826 1677 1159 1677 c 0
 1490 1677 1573 1464 1537 1127 c 2
 1475 537 l 2
 1440 201 1311 -20 980 -20 c 0
EndSplineSet
EndChar

StartChar: afii10049
Encoding: 359 1071 165
Width: 1168
VWidth: 0
Flags: W
HStem: 0 21G<-28 306.104 695 993.099> 673 209<636 766> 1451 207<603.438 848>
LayerCount: 2
UndoRedoHistory
Layer: 1
Undoes
EndUndoes
Redoes
EndRedoes
EndUndoRedoHistory
Fore
SplineSet
732 882 m 2
 788 882 l 1
 848 1451 l 1
 786 1451 l 2
 599 1451 498 1369 479 1185 c 0
 458 990 519 882 732 882 c 2
-28 0 m 1
 386 741 l 1
 258 811 179 961 202 1185 c 0
 235 1499 416 1658 797 1658 c 2
 1165 1658 l 1
 991 0 l 1
 695 0 l 1
 766 673 l 1
 673 673 l 1
 636 673 l 1
 296 0 l 1
 -28 0 l 1
EndSplineSet
EndChar

StartChar: afii10051
Encoding: 360 1026 166
Width: 1198
VWidth: 0
Flags: W
HStem: 0 191<623 754.309> 797 184<631.092 907.564> 1446 212<140 347 637 904>
LayerCount: 2
UndoRedoHistory
Layer: 1
Undoes
EndUndoes
Redoes
EndRedoes
EndUndoRedoHistory
Fore
SplineSet
195 0 m 1
 347 1446 l 1
 118 1446 l 1
 140 1658 l 1
 926 1658 l 1
 904 1446 l 1
 637 1446 l 1
 580 905 l 1
 647 955 734 981 819 981 c 0
 990 981 1155 876 1132 658 c 2
 1108 431 l 2
 1076 123 933 0 657 0 c 2
 602 0 l 1
 623 191 l 1
 773 191 820 295 834 432 c 2
 855 639 l 2
 863 713 828 797 723 797 c 0
 682 797 629 784 564 750 c 1
 485 0 l 1
 195 0 l 1
EndSplineSet
EndChar

StartChar: afii10053
Encoding: 362 1028 168
Width: 1075
VWidth: 0
Flags: W
HStem: -20 220<429.295 660.055> 758 183<445 779> 1458 219<548.943 783.298>
LayerCount: 2
UndoRedoHistory
Layer: 1
Undoes
EndUndoes
Redoes
EndRedoes
EndUndoRedoHistory
Fore
SplineSet
514 -20 m 0
 149 -20 70 214 104 538 c 2
 165 1115 l 2
 201 1459 328 1677 693 1677 c 0
 1028 1677 1118 1492 1088 1198 c 1
 1080 1123 l 1
 795 1123 l 1
 803 1195 l 2
 818 1339 834 1458 671 1458 c 0
 511 1458 487 1336 469 1172 c 2
 445 941 l 1
 798 941 l 1
 779 758 l 1
 426 758 l 1
 397 478 l 1
 375 279 408 200 539 200 c 0
 695 200 711 321 728 478 c 1
 736 561 l 1
 1020 561 l 1
 1013 487 l 1
 982 189 861 -20 514 -20 c 0
EndSplineSet
EndChar

StartChar: afii10055
Encoding: 364 1030 170
Width: 539
VWidth: 0
Flags: W
HStem: 0 21G<78 371.099> 1638 20G<249.901 543>
VStem: 78 465
LayerCount: 2
UndoRedoHistory
Layer: 1
Undoes
EndUndoes
Redoes
EndRedoes
EndUndoRedoHistory
Fore
SplineSet
78 0 m 1
 252 1658 l 1
 543 1658 l 1
 369 0 l 1
 78 0 l 1
EndSplineSet
EndChar

StartChar: afii10057
Encoding: 366 1032 172
Width: 644
VWidth: 0
Flags: W
HStem: -35 209<-20 165.111> 1638 20G<355.907 654>
LayerCount: 2
UndoRedoHistory
Layer: 1
Undoes
EndUndoes
Redoes
EndRedoes
EndUndoRedoHistory
Fore
SplineSet
-42 -35 m 1
 -20 174 l 1
 156 173 207 210 225 387 c 2
 358 1658 l 1
 654 1658 l 1
 520 379 l 1
 488 99 393 -35 100 -35 c 2
 -42 -35 l 1
EndSplineSet
EndChar

StartChar: afii10058
Encoding: 367 1033 173
Width: 1759
VWidth: 0
Flags: W
HStem: 0 203<-4 136.721 1116 1320.45> 757 208<1195 1360> 1437 221<704 950>
LayerCount: 2
UndoRedoHistory
Layer: 1
Undoes
EndUndoes
Redoes
EndRedoes
EndUndoRedoHistory
Fore
SplineSet
1116 203 m 1
 1141 203 l 2
 1317 203 1402 254 1425 489 c 0
 1443 673 1394 757 1194 757 c 2
 1174 757 l 1
 1116 203 l 1
-27 0 m 1
 -4 214 l 1
 161 203 236 290 303 681 c 1
 465 1658 l 1
 1268 1658 l 1
 1195 965 l 1
 1224 965 l 2
 1572 965 1739 853 1700 485 c 0
 1661 113 1455 0 1119 0 c 2
 799 0 l 1
 950 1437 l 1
 704 1437 l 1
 580 679 l 2
 501 193 364 -10 54 -1 c 1
 -27 0 l 1
EndSplineSet
EndChar

StartChar: afii10059
Encoding: 368 1034 174
Width: 1650
VWidth: 0
Flags: W
HStem: 0 203<1008 1211.45> 755 218<475 770 1088 1251.64> 1640 20G<248.902 546 862.904 1160>
LayerCount: 2
UndoRedoHistory
Layer: 1
Undoes
EndUndoes
Redoes
EndRedoes
EndUndoRedoHistory
Fore
SplineSet
1008 203 m 1
 1032 203 l 2
 1208 203 1293 254 1316 489 c 0
 1334 673 1285 757 1086 757 c 2
 1066 757 l 1
 1008 203 l 1
1010 0 m 1
 691 1 l 1
 770 755 l 1
 452 755 l 1
 372 1 l 1
 77 1 l 1
 251 1660 l 1
 546 1660 l 1
 475 973 l 1
 793 973 l 1
 865 1660 l 1
 1160 1660 l 1
 1088 965 l 1
 1116 965 l 2
 1463 965 1630 853 1591 485 c 0
 1552 113 1346 0 1010 0 c 1
EndSplineSet
EndChar

StartChar: afii10060
Encoding: 369 1035 175
Width: 1108
VWidth: 0
Flags: W
HStem: 0 21G<184 477.108 680 956.092> 803 166<598.837 883> 1440 218<133 335 626 874>
LayerCount: 2
UndoRedoHistory
Layer: 1
Undoes
EndUndoes
Redoes
EndRedoes
EndUndoRedoHistory
Fore
SplineSet
184 0 m 1
 335 1440 l 1
 110 1440 l 1
 133 1658 l 1
 896 1658 l 1
 874 1440 l 1
 626 1440 l 1
 571 911 l 1
 571 911 673 969 807 969 c 0
 959 969 1047 885 1034 765 c 2
 954 0 l 1
 680 0 l 1
 755 713 l 2
 760 768 752 803 684 803 c 1
 625 802 565 765 555 759 c 1
 475 0 l 1
 184 0 l 1
EndSplineSet
EndChar

StartChar: afii10066
Encoding: 373 1073 179
Width: 931
VWidth: 0
Flags: W
HStem: -18 191<369.866 526.188> 935 175<449.414 715>
LayerCount: 2
UndoRedoHistory
Layer: 1
Undoes
EndUndoes
Redoes
EndRedoes
EndUndoRedoHistory
Fore
SplineSet
445 173 m 0
 522 173 551 225 570 396 c 2
 608 756 l 2
 621 884 605 935 540 935 c 0
 500 935 458 914 409 851 c 1
 363 418 l 2
 343 230 355 173 445 173 c 0
405 -18 m 0
 147 -16 64 138 94 419 c 2
 157 1028 l 1
 232 1735 416 1559 871 1734 c 1
 892 1519 l 1
 550 1369 475 1539 436 1166 c 1
 423 1053 l 1
 485 1086 563 1110 631 1110 c 0
 799 1110 900 1002 867 683 c 2
 841 430 l 1
 802 62 632 -19 405 -18 c 0
EndSplineSet
EndChar

StartChar: afii10067
Encoding: 374 1074 180
Width: 928
VWidth: 0
Flags: W
HStem: 0 182<347 532.961> 540 175<403 574.819> 1011 173<434 605.156>
LayerCount: 2
UndoRedoHistory
Layer: 1
Undoes
EndUndoes
Redoes
EndRedoes
EndUndoRedoHistory
Fore
SplineSet
403 715 m 1
 493 715 l 2
 575 715 620 757 631 868 c 0
 642 970 600 1011 503 1011 c 2
 434 1011 l 1
 403 715 l 1
347 182 m 1
 407 182 l 2
 493 182 572 195 588 353 c 0
 607 536 542 540 452 540 c 2
 385 540 l 1
 347 182 l 1
58 0 m 1
 182 1184 l 1
 554 1184 l 2
 841 1184 898 1055 884 896 c 1
 871 764 818 680 692 646 c 1
 845 612 871 486 856 344 c 0
 834 127 728 0 430 0 c 2
 58 0 l 1
EndSplineSet
EndChar

StartChar: afii10068
Encoding: 375 1075 181
Width: 644
VWidth: 0
Flags: W
HStem: 0 21G<58 334.113> 994 190<437 688>
VStem: 58 650
LayerCount: 2
UndoRedoHistory
Layer: 1
Undoes
EndUndoes
Redoes
EndRedoes
EndUndoRedoHistory
Fore
SplineSet
58 0 m 1
 182 1184 l 1
 708 1184 l 1
 688 994 l 1
 437 994 l 1
 332 0 l 1
 58 0 l 1
EndSplineSet
EndChar

StartChar: afii10069
Encoding: 376 1076 182
Width: 1111
VWidth: 0
Flags: W
HStem: 0 183<274 630> 1002 182<594 716>
VStem: -58 199<-312 -227.607> 796 197<-312 -175.532>
LayerCount: 2
UndoRedoHistory
Layer: 1
Undoes
EndUndoes
Redoes
EndRedoes
EndUndoRedoHistory
Fore
SplineSet
274 183 m 1
 630 183 l 1
 716 1002 l 1
 594 1002 l 1
 575 903 l 1
 519 420 399 268 274 183 c 1
-58 -312 m 1
 -7 175 l 1
 175 288 312 487 369 963 c 1
 405 1184 l 1
 992 1184 l 1
 887 183 l 1
 1045 183 l 1
 993 -312 l 1
 796 -312 l 1
 808 0 l 1
 194 0 l 1
 141 -312 l 1
 -58 -312 l 1
EndSplineSet
EndChar

StartChar: afii10072
Encoding: 379 1078 185
Width: 1265
VWidth: 0
Flags: W
HStem: 0 21G<-40 212.625 467 696.083 955.438 1204> 576 40<513 527 758 773> 1164 20G<101 358.634 588.887 818 1050.04 1311>
LayerCount: 2
UndoRedoHistory
Layer: 1
Undoes
EndUndoes
Redoes
EndRedoes
EndUndoRedoHistory
Fore
SplineSet
-40 0 m 1
 291 600 l 1
 101 1184 l 1
 353 1184 l 1
 513 616 l 1
 531 616 l 1
 591 1184 l 1
 818 1184 l 1
 758 616 l 1
 777 616 l 1
 1060 1184 l 1
 1311 1184 l 1
 995 600 l 1
 1204 0 l 1
 962 0 l 1
 773 576 l 1
 754 576 l 1
 694 0 l 1
 467 0 l 1
 527 576 l 1
 508 576 l 1
 202 0 l 1
 -40 0 l 1
EndSplineSet
EndChar

StartChar: afii10073
Encoding: 380 1079 186
Width: 829
VWidth: 0
Flags: W
HStem: -21 191<307.679 479.99> 526 170<323 499.501> 1006 196<367.536 545.541>
LayerCount: 2
UndoRedoHistory
Layer: 1
Undoes
EndUndoes
Redoes
EndRedoes
EndUndoRedoHistory
Fore
SplineSet
365 -21 m 0
 103 -21 37 129 64 380 c 1
 290 380 l 1
 275 230 311 170 391 170 c 0
 490 170 507 254 519 362 c 0
 534 502 482 526 305 526 c 1
 323 696 l 1
 504 696 551 740 564 862 c 0
 575 963 533 1006 464 1006 c 0
 386 1006 340 970 325 827 c 1
 99 827 l 1
 126 1079 249 1202 497 1202 c 0
 741 1202 826 1049 808 880 c 0
 788 688 677 628 590 614 c 1
 679 589 777 556 752 324 c 1
 730 110 608 -21 365 -21 c 0
EndSplineSet
EndChar

StartChar: afii10074
Encoding: 381 1080 187
Width: 986
VWidth: 0
Flags: W
HStem: 0 21G<58 287.281 605 831.095> 1164 20G<179.905 406 727.587 953>
LayerCount: 2
UndoRedoHistory
Layer: 1
Undoes
EndUndoes
Redoes
EndRedoes
EndUndoRedoHistory
Fore
SplineSet
58 0 m 1
 182 1184 l 1
 406 1184 l 1
 331 469 l 1
 739 1184 l 1
 953 1184 l 1
 829 0 l 1
 605 0 l 1
 681 718 l 1
 276 0 l 1
 58 0 l 1
EndSplineSet
EndChar

StartChar: afii10076
Encoding: 383 1082 189
Width: 934
VWidth: 0
Flags: W
HStem: 0 21G<58 334.111 580.667 875> 1164 20G<179.905 456 696.751 996>
LayerCount: 2
UndoRedoHistory
Layer: 1
Undoes
EndUndoes
Redoes
EndRedoes
EndUndoRedoHistory
Fore
SplineSet
58 0 m 1
 182 1184 l 1
 456 1184 l 1
 406 702 l 1
 460 702 l 1
 707 1184 l 1
 996 1184 l 1
 699 616 l 1
 875 0 l 1
 586 0 l 1
 442 540 l 1
 389 540 l 1
 332 0 l 1
 58 0 l 1
EndSplineSet
EndChar

StartChar: afii10077
Encoding: 384 1083 190
Width: 1065
VWidth: 0
Flags: W
HStem: 0 21G<47 196 634 910.095> 986 198<565 738>
LayerCount: 2
UndoRedoHistory
Layer: 1
Undoes
EndUndoes
Redoes
EndRedoes
EndUndoRedoHistory
Fore
SplineSet
-17 -7 m 1
 4 190 l 1
 178 181 202 293 258 634 c 2
 349 1184 l 1
 1032 1184 l 1
 908 0 l 1
 634 0 l 1
 738 986 l 1
 565 986 l 1
 505 621 l 1
 423 111 337 -11 55 -11 c 0
 39 -11 4 -10 -17 -7 c 1
EndSplineSet
EndChar

StartChar: afii10078
Encoding: 385 1084 191
Width: 1136
VWidth: 0
Flags: W
HStem: 0 21G<53 277.117 760 983.943> 1164 20G<184.736 394.684 885.138 1097>
LayerCount: 2
UndoRedoHistory
Layer: 1
Undoes
EndUndoes
Redoes
EndRedoes
EndUndoRedoHistory
Fore
SplineSet
53 0 m 1
 187 1184 l 1
 389 1184 l 1
 574 533 l 1
 895 1184 l 1
 1097 1184 l 1
 982 0 l 1
 760 0 l 1
 829 653 l 1
 574 141 l 1
 492 141 l 1
 344 652 l 1
 275 0 l 1
 53 0 l 1
EndSplineSet
EndChar

StartChar: afii10079
Encoding: 386 1085 192
Width: 998
VWidth: 0
Flags: W
HStem: 0 21G<58 334.118 566 842.095> 510 195<406 620> 1164 20G<179.905 456 687.954 964>
LayerCount: 2
UndoRedoHistory
Layer: 1
Undoes
EndUndoes
Redoes
EndRedoes
EndUndoRedoHistory
Fore
SplineSet
58 0 m 1
 182 1184 l 1
 456 1184 l 1
 406 705 l 1
 641 705 l 1
 690 1184 l 1
 964 1184 l 1
 840 0 l 1
 566 0 l 1
 620 510 l 1
 386 510 l 1
 332 0 l 1
 58 0 l 1
EndSplineSet
EndChar

StartChar: afii10081
Encoding: 388 1087 194
Width: 970
VWidth: 0
Flags: W
HStem: 0 21G<58 334.11 538 814.095> 986 198<436 642>
LayerCount: 2
UndoRedoHistory
Layer: 1
Undoes
EndUndoes
Redoes
EndRedoes
EndUndoRedoHistory
Fore
SplineSet
58 0 m 1
 182 1184 l 1
 936 1184 l 1
 812 0 l 1
 538 0 l 1
 642 986 l 1
 436 986 l 1
 332 0 l 1
 58 0 l 1
EndSplineSet
EndChar

StartChar: afii10084
Encoding: 391 1090 197
Width: 758
VWidth: 0
Flags: W
HStem: 0 21G<190 466.105> 988 196<102 294 568 784>
LayerCount: 2
UndoRedoHistory
Layer: 1
Undoes
EndUndoes
Redoes
EndRedoes
EndUndoRedoHistory
Fore
SplineSet
190 0 m 1
 294 988 l 1
 81 988 l 1
 102 1184 l 1
 805 1184 l 1
 784 988 l 1
 568 988 l 1
 464 0 l 1
 190 0 l 1
EndSplineSet
EndChar

StartChar: afii10085
Encoding: 392 1091 198
Width: 874
VWidth: 0
Flags: W
HStem: -331 212<39 229.26> 1164 20G<100 347.798 655.615 916>
VStem: 100 246<1076.19 1184>
LayerCount: 2
UndoRedoHistory
Layer: 1
Undoes
EndUndoes
Redoes
EndRedoes
EndUndoRedoHistory
Fore
SplineSet
27 -331 m 1
 39 -119 l 1
 227 -118 268 -92 246 86 c 1
 100 1184 l 1
 346 1184 l 1
 395 639 l 1
 421 274 l 1
 514 638 l 1
 661 1184 l 1
 916 1184 l 1
 519 -5 l 1
 428 -282 309 -331 27 -331 c 1
EndSplineSet
EndChar

StartChar: afii10086
Encoding: 393 1092 199
Width: 1327
VWidth: 0
Flags: W
HStem: -376 21G<449 697.138> 45 179<376.849 494 759 902.619> 1004 167<446.631 594 858 980.339> 1638 20G<660.906 909>
LayerCount: 2
UndoRedoHistory
Layer: 1
Undoes
EndUndoes
Redoes
EndRedoes
EndUndoRedoHistory
Fore
SplineSet
759 224 m 1
 771 224 l 2
 889 224 970 293 990 482 c 2
 1021 780 l 2
 1039 948 965 1004 856 1004 c 2
 841 1004 l 1
 759 224 l 1
498 224 m 2
 512 224 l 1
 594 1004 l 1
 577 1004 l 2
 469 1004 388 948 370 780 c 2
 339 482 l 2
 319 293 377 224 498 224 c 2
449 -376 m 1
 494 45 l 1
 472 45 l 2
 296 45 50 124 89 489 c 2
 116 748 l 2
 147 1043 370 1171 588 1171 c 2
 612 1171 l 1
 663 1658 l 1
 909 1658 l 1
 858 1171 l 1
 891 1171 l 2
 1109 1171 1300 1043 1269 748 c 2
 1242 489 l 2
 1203 124 945 45 770 45 c 2
 740 45 l 1
 695 -376 l 1
 449 -376 l 1
EndSplineSet
EndChar

StartChar: afii10088
Encoding: 395 1094 201
Width: 1074
VWidth: 0
Flags: W
HStem: 0 183<351 586> 1164 20G<178.905 456 688.902 965>
VStem: 769 197<-312 -175.532>
LayerCount: 2
UndoRedoHistory
Layer: 1
Undoes
EndUndoes
Redoes
EndRedoes
EndUndoRedoHistory
Fore
SplineSet
769 -312 m 1
 780 0 l 1
 57 0 l 1
 181 1184 l 1
 456 1184 l 1
 351 183 l 1
 586 183 l 1
 691 1184 l 1
 965 1184 l 1
 860 183 l 1
 1018 183 l 1
 966 -312 l 1
 769 -312 l 1
EndSplineSet
EndChar

StartChar: afii10089
Encoding: 396 1095 202
Width: 947
VWidth: 0
Flags: W
HStem: 0 21G<516 792.095> 460 176<393.246 565> 1164 20G<148.882 425 637.901 914>
LayerCount: 2
UndoRedoHistory
Layer: 1
Undoes
EndUndoes
Redoes
EndRedoes
EndUndoRedoHistory
Fore
SplineSet
516 0 m 1
 565 469 l 1
 518 464 472 460 427 460 c 0
 199 460 83 538 106 759 c 2
 151 1184 l 1
 425 1184 l 1
 381 765 l 2
 373 684 389 638 507 636 c 0
 526 636 555 638 583 641 c 1
 640 1184 l 1
 914 1184 l 1
 790 0 l 1
 516 0 l 1
EndSplineSet
EndChar

StartChar: afii10090
Encoding: 397 1096 203
Width: 1363
VWidth: 0
Flags: W
HStem: 0 190<339 517 778 965> 1164 20G<179.905 443 618.907 882 1065.93 1329>
LayerCount: 2
UndoRedoHistory
Layer: 1
Undoes
EndUndoes
Redoes
EndRedoes
EndUndoRedoHistory
Fore
SplineSet
58 0 m 1
 182 1184 l 1
 443 1184 l 1
 339 190 l 1
 517 190 l 1
 621 1184 l 1
 882 1184 l 1
 778 190 l 1
 965 190 l 1
 1068 1184 l 1
 1329 1184 l 1
 1205 0 l 1
 58 0 l 1
EndSplineSet
EndChar

StartChar: afii10091
Encoding: 398 1097 204
Width: 1477
VWidth: 0
Flags: W
HStem: 0 183<339 516 778 963> 1164 20G<179.905 444 618.902 882 1065.9 1330>
VStem: 1134 197<-312 -175.532>
LayerCount: 2
UndoRedoHistory
Layer: 1
Undoes
EndUndoes
Redoes
EndRedoes
EndUndoRedoHistory
Fore
SplineSet
1134 -312 m 1
 1145 0 l 1
 58 0 l 1
 182 1184 l 1
 444 1184 l 1
 339 183 l 1
 516 183 l 1
 621 1184 l 1
 882 1184 l 1
 778 183 l 1
 963 183 l 1
 1068 1184 l 1
 1330 1184 l 1
 1225 183 l 1
 1383 183 l 1
 1331 -312 l 1
 1134 -312 l 1
EndSplineSet
EndChar

StartChar: afii10092
Encoding: 399 1098 205
Width: 1052
VWidth: 0
Flags: W
HStem: 0 158<476 678.685> 537 161<532 703.494> 990 194<73 289>
LayerCount: 2
UndoRedoHistory
Layer: 1
Undoes
EndUndoes
Redoes
EndRedoes
EndUndoRedoHistory
Fore
SplineSet
476 158 m 1
 480 158 l 1
 659 159 726 190 743 348 c 0
 758 496 708 535 526 537 c 1
 515 537 l 1
 476 158 l 1
185 0 m 1
 289 990 l 1
 53 990 l 1
 73 1184 l 1
 583 1184 l 1
 532 698 l 1
 552 698 l 1
 877 696 1020 636 990 348 c 0
 962 83 816 0 464 0 c 2
 185 0 l 1
EndSplineSet
EndChar

StartChar: afii10093
Encoding: 400 1099 206
Width: 1387
VWidth: 0
Flags: W
HStem: 0 158<349 551.685> 537 161<405 576.494> 1164 20G<179.905 456 1077.91 1354>
LayerCount: 2
UndoRedoHistory
Layer: 1
Undoes
EndUndoes
Redoes
EndRedoes
EndUndoRedoHistory
Fore
SplineSet
956 0 m 1
 1080 1184 l 1
 1354 1184 l 1
 1230 0 l 1
 956 0 l 1
349 158 m 1
 352 158 l 1
 532 159 599 190 616 348 c 0
 632 496 581 535 399 537 c 1
 388 537 l 1
 349 158 l 1
58 0 m 1
 182 1184 l 1
 456 1184 l 1
 405 698 l 1
 425 698 l 1
 750 696 893 636 863 348 c 0
 835 83 689 0 337 0 c 2
 58 0 l 1
EndSplineSet
EndChar

StartChar: afii10094
Encoding: 401 1100 207
Width: 917
VWidth: 0
Flags: W
HStem: 0 158<349 551.685> 537 161<405 576.494> 1164 20G<179.905 456>
LayerCount: 2
UndoRedoHistory
Layer: 1
Undoes
EndUndoes
Redoes
EndRedoes
EndUndoRedoHistory
Fore
SplineSet
349 158 m 1
 352 158 l 1
 532 159 599 190 616 348 c 0
 632 496 581 535 399 537 c 1
 388 537 l 1
 349 158 l 1
58 0 m 1
 182 1184 l 1
 456 1184 l 1
 405 698 l 1
 425 698 l 1
 750 696 893 636 863 348 c 0
 835 83 689 0 337 0 c 2
 58 0 l 1
EndSplineSet
EndChar

StartChar: afii10095
Encoding: 402 1101 208
Width: 899
VWidth: 0
Flags: W
HStem: -18 198<330.407 489.164> 520 136<285 544> 1002 200<407.966 567.987>
LayerCount: 2
UndoRedoHistory
Layer: 1
Undoes
EndUndoes
Redoes
EndRedoes
EndUndoRedoHistory
Fore
SplineSet
388 -18 m 0
 131 -18 45 101 70 347 c 1
 75 391 l 1
 330 391 l 1
 325 346 l 2
 312 223 333 180 406 180 c 0
 488 180 514 230 530 385 c 2
 544 520 l 1
 270 520 l 1
 285 656 l 1
 558 656 l 1
 574 805 l 2
 591 965 566 1002 492 1002 c 0
 410 1002 388 940 378 843 c 2
 371 772 l 1
 115 772 l 1
 122 831 l 1
 147 1072 265 1202 516 1202 c 0
 798 1202 873 1031 844 758 c 2
 809 424 l 2
 780 151 669 -18 388 -18 c 0
EndSplineSet
EndChar

StartChar: afii10096
Encoding: 403 1102 209
Width: 1285
VWidth: 0
Flags: W
HStem: -18 199<759.978 900.157> 0 21G<58 313.112> 502 185<383 519> 1003 199<837.113 977.254> 1164 20G<179.905 435>
LayerCount: 2
UndoRedoHistory
Layer: 1
Undoes
EndUndoes
Redoes
EndRedoes
EndUndoRedoHistory
Fore
SplineSet
826 181 m 0xb0
 915 181 930 279 941 385 c 2
 984 797 l 2
 995 904 1001 1003 912 1003 c 0
 824 1003 808 903 797 797 c 2
 754 385 l 2
 743 280 738 181 826 181 c 0xb0
804 -18 m 0
 565 -18 481 139 508 399 c 1
 519 501 l 1
 364 502 l 1
 311 0 l 1
 58 0 l 1
 182 1184 l 1
 435 1184 l 1x68
 383 687 l 1
 539 687 l 1
 549 785 l 2
 576 1044 693 1202 932 1202 c 0
 1171 1202 1258 1045 1230 785 c 1
 1190 399 l 1
 1162 139 1043 -18 804 -18 c 0
EndSplineSet
EndChar

StartChar: afii10097
Encoding: 404 1103 210
Width: 960
VWidth: 0
Flags: W
HStem: 0 21G<-27 276.534 528 804.095> 451 155<482 575> 1028 156<443.602 636>
LayerCount: 2
UndoRedoHistory
Layer: 1
Undoes
EndUndoes
Redoes
EndRedoes
EndUndoRedoHistory
Fore
SplineSet
578 606 m 1
 592 606 l 1
 636 1028 l 1
 625 1028 l 2
 451 1028 375 972 359 821 c 0
 344 678 400 609 578 606 c 1
-27 0 m 1
 232 495 l 1
 131 540 95 658 112 821 c 0
 137 1067 277 1183 612 1184 c 1
 926 1184 l 1
 802 0 l 1
 528 0 l 1
 575 448 l 1
 547 448 513 449 482 451 c 1
 267 0 l 1
 -27 0 l 1
EndSplineSet
EndChar

StartChar: afii10098
Encoding: 405 1169 211
Width: 699
VWidth: 0
Flags: W
HStem: 0 21G<67 331.087> 1006 178<434 605>
LayerCount: 2
UndoRedoHistory
Layer: 1
Undoes
EndUndoes
Redoes
EndRedoes
EndUndoRedoHistory
Fore
SplineSet
67 0 m 1
 191 1184 l 1
 605 1184 l 1
 628 1404 l 1
 766 1404 l 1
 724 1006 l 1
 434 1006 l 1
 329 0 l 1
 67 0 l 1
EndSplineSet
EndChar

StartChar: afii10099
Encoding: 406 1106 212
Width: 989
VWidth: 0
Flags: W
HStem: -319 162<327 508.078> 0 21G<74 350.1> 822 181<512.679 804.5> 1243 150<76 204 494 761> 1638 20G<245.887 522>
LayerCount: 2
UndoRedoHistory
Layer: 1
Undoes
EndUndoes
Redoes
EndRedoes
EndUndoRedoHistory
Fore
SplineSet
309 -319 m 1
 327 -157 l 1
 354 -157 l 2
 522 -157 559 -104 588 174 c 2
 644 709 l 2
 652 777 643 822 572 822 c 0
 515 822 440 785 430 781 c 1
 348 0 l 1
 74 0 l 1
 204 1243 l 1
 61 1243 l 1
 76 1393 l 1
 220 1393 l 1
 248 1658 l 1
 522 1658 l 1
 494 1393 l 1
 776 1393 l 1
 761 1243 l 1
 479 1243 l 1
 445 929 l 1
 474 939 585 1003 708 1003 c 0
 901 1003 935 865 922 743 c 2
 866 210 l 2
 820 -227 729 -319 373 -319 c 2
 309 -319 l 1
EndSplineSet
EndChar

StartChar: afii10101
Encoding: 408 1108 214
Width: 867
VWidth: 0
Flags: W
HStem: -18 199<357.245 517.098> 526 152<382 649> 1003 199<435.837 594.511>
LayerCount: 2
UndoRedoHistory
Layer: 1
Undoes
EndUndoes
Redoes
EndRedoes
EndUndoRedoHistory
Fore
SplineSet
409 -18 m 0
 127 -18 53 152 82 425 c 2
 117 759 l 2
 145 1033 256 1202 537 1202 c 0
 794 1202 880 1082 855 836 c 1
 850 784 l 1
 594 784 l 1
 599 838 l 1
 613 961 592 1003 519 1003 c 0
 437 1003 411 953 395 799 c 2
 382 678 l 1
 664 678 l 1
 649 526 l 1
 367 526 l 1
 351 379 l 2
 334 218 360 181 434 181 c 0
 515 181 537 243 547 340 c 2
 555 417 l 1
 811 417 l 1
 804 352 l 2
 778 111 660 -18 409 -18 c 0
EndSplineSet
EndChar

StartChar: afii10103
Encoding: 410 1110 216
Width: 491
VWidth: 0
Flags: W
HStem: 0 21G<59 335.095> 1164 20G<180.905 457> 1353 236<227 477>
VStem: 59 443
LayerCount: 2
UndoRedoHistory
Layer: 1
Undoes
EndUndoes
Redoes
EndRedoes
EndUndoRedoHistory
Fore
SplineSet
203 1353 m 1
 227 1589 l 1
 502 1589 l 1
 477 1353 l 1
 203 1353 l 1
59 0 m 1
 183 1184 l 1
 457 1184 l 1
 333 0 l 1
 59 0 l 1
EndSplineSet
EndChar

StartChar: afii10105
Encoding: 412 1112 218
Width: 491
VWidth: 0
Flags: W
HStem: -323 209<-95.5545 55.1274> 1164 20G<205.891 482> 1370 236<252 503>
VStem: -115 643
LayerCount: 2
UndoRedoHistory
Layer: 1
Undoes
EndUndoes
Redoes
EndRedoes
EndUndoRedoHistory
Fore
SplineSet
227 1370 m 1
 252 1606 l 1
 528 1606 l 1
 503 1370 l 1
 227 1370 l 1
-115 -304 m 1
 -94 -107 l 1
 -79 -111 -53 -114 -36 -114 c 0
 38 -114 76 -70 84 8 c 2
 208 1184 l 1
 482 1184 l 1
 355 -23 l 2
 336 -208 215 -323 25 -323 c 0
 -24 -323 -76 -317 -115 -304 c 1
EndSplineSet
EndChar

StartChar: afii10106
Encoding: 413 1113 219
Width: 1478
VWidth: 0
Flags: W
HStem: -7 196<4 141.41> 0 158<925 1102.87> 536 161<981 1132.07> 986 198<565 738>
LayerCount: 2
UndoRedoHistory
Layer: 1
Undoes
EndUndoes
Redoes
EndRedoes
EndUndoRedoHistory
Fore
SplineSet
925 158 m 1x70
 931 158 l 1
 1087 159 1147 200 1163 348 c 0
 1178 490 1133 536 970 536 c 2
 964 536 l 1
 925 158 l 1x70
-17 -7 m 1xb0
 4 189 l 1xb0
 176 184 202 284 266 673 c 2
 349 1184 l 1
 1032 1184 l 1
 981 697 l 1
 1002 697 l 2
 1306 697 1440 628 1410 348 c 0
 1383 90 1244 4 912 0 c 1
 634 0 l 1x70
 738 986 l 1
 565 986 l 1
 506 624 l 1
 417 67 315 -18 33 -11 c 0
 23 -10 -5 -9 -17 -7 c 1xb0
EndSplineSet
EndChar

StartChar: afii10107
Encoding: 414 1114 220
Width: 1376
VWidth: 0
Flags: W
HStem: 1 158<831 1006.72> 502 204<406 593> 536 162<887 1038.01> 1164 20G<179.905 456 661.912 938>
LayerCount: 2
UndoRedoHistory
Layer: 1
Undoes
EndUndoes
Redoes
EndRedoes
EndUndoRedoHistory
Fore
SplineSet
831 159 m 1xb0
 834 159 838 159 841 160 c 0
 994 164 1053 201 1069 349 c 0
 1084 488 1040 531 882 536 c 0
 878 536 874 537 870 537 c 1
 831 159 l 1xb0
58 0 m 1
 182 1184 l 1
 456 1184 l 1
 406 706 l 1
 614 706 l 1xd0
 664 1185 l 1
 938 1185 l 1
 887 698 l 1
 892 698 903 698 908 698 c 0xb0
 1212 692 1345 628 1317 349 c 1
 1289 90 1149 4 814 1 c 1
 540 1 l 1
 593 502 l 1
 385 502 l 1xd0
 332 0 l 1
 58 0 l 1
EndSplineSet
EndChar

StartChar: afii10108
Encoding: 415 1115 221
Width: 994
VWidth: 0
Flags: W
HStem: 0 21G<74 350.1 570 846.1> 822 181<511.799 804.5> 1243 150<76 204 494 761> 1638 20G<245.887 522>
LayerCount: 2
UndoRedoHistory
Layer: 1
Undoes
EndUndoes
Redoes
EndRedoes
EndUndoRedoHistory
Fore
SplineSet
74 0 m 1
 204 1243 l 1
 61 1243 l 1
 76 1393 l 1
 220 1393 l 1
 248 1658 l 1
 522 1658 l 1
 494 1393 l 1
 776 1393 l 1
 761 1243 l 1
 479 1243 l 1
 445 929 l 1
 474 939 585 1003 708 1003 c 0
 901 1003 935 865 922 743 c 2
 844 0 l 1
 570 0 l 1
 644 709 l 2
 652 777 643 822 572 822 c 0
 530 822 440 785 430 781 c 1
 348 0 l 1
 74 0 l 1
EndSplineSet
EndChar

StartChar: afii10145
Encoding: 418 1039 224
Width: 1168
VWidth: 0
Flags: W
HStem: 1638 20G<245.901 544 869.904 1168>
LayerCount: 2
UndoRedoHistory
Layer: 1
Undoes
EndUndoes
Redoes
EndRedoes
EndUndoRedoHistory
Fore
SplineSet
395 -326 m 1
 414 0 l 1
 74 0 l 1
 248 1658 l 1
 544 1658 l 1
 393 217 l 1
 721 217 l 1
 872 1658 l 1
 1168 1658 l 1
 994 0 l 1
 661 0 l 1
 612 -326 l 1
 395 -326 l 1
EndSplineSet
EndChar

StartChar: afii10193
Encoding: 419 1119 225
Width: 978
VWidth: 0
Flags: W
HStem: 1164 20G<179.905 456 667.922 944>
VStem: 319 190<-312 -216.833> 331 225<-95.1666 0>
LayerCount: 2
UndoRedoHistory
Layer: 1
Undoes
EndUndoes
Redoes
EndRedoes
EndUndoRedoHistory
Fore
SplineSet
319 -312 m 1xc0
 331 0 l 1
 58 0 l 1
 182 1184 l 1
 456 1184 l 1
 351 183 l 1
 566 183 l 1
 670 1184 l 1
 944 1184 l 1
 820 0 l 1
 556 0 l 1xa0
 509 -312 l 1
 319 -312 l 1xc0
EndSplineSet
EndChar

StartChar: afii61289
Encoding: 420 8467 226
Width: 1112
VWidth: 0
Flags: W
LayerCount: 2
UndoRedoHistory
Layer: 1
Undoes
EndUndoes
Redoes
EndRedoes
EndUndoRedoHistory
Fore
SplineSet
705 1048 m 1
 738 1089 768 1128 795 1165 c 0
 981 1414 1040 1575 1040 1665 c 0
 1040 1805 897 1775 860 1637 c 2
 705 1048 l 1
849 148 m 1
 604 -104 246 -104 361 345 c 1
 401 505 l 1
 223 299 l 1
 144 389 l 1
 470 773 l 1
 688 1636 l 2
 813 2127 1730 2027 782 938 c 1
 629 763 l 1
 517 338 l 2
 443 58 606 64 779 246 c 1
 849 148 l 1
EndSplineSet
EndChar

StartChar: ampersand
Encoding: 38 38 230
Width: 1214
VWidth: 0
Flags: W
HStem: -23 249<970.689 1056> -20 207<363.754 572.111> 1467 210<547.379 713.339>
VStem: 903 235<603.955 787>
LayerCount: 2
UndoRedoHistory
Layer: 1
Undoes
EndUndoes
Redoes
EndRedoes
EndUndoRedoHistory
Fore
SplineSet
554 971 m 1x30
 621 1054 713 1223 727 1356 c 0
 735 1424 694 1467 631 1467 c 0
 557 1467 513 1393 505 1312 c 0
 492 1195 533 1056 554 971 c 1x30
440 187 m 0x70
 523 187 589 233 638 289 c 1
 638 289 465 642 461 659 c 1
 399 581 352 471 341 367 c 0
 331 266 361 187 440 187 c 0x70
416 -20 m 0
 193 -20 68 134 91 358 c 1
 114 569 246 737 379 849 c 1
 325 990 235 1133 254 1306 c 1
 276 1519 428 1677 647 1677 c 0
 849 1677 995 1555 973 1350 c 1
 950 1122 755 946 626 825 c 1
 804 462 l 1
 846 534 882 674 903 787 c 1
 1138 787 l 1
 1117 594 1027 418 943 300 c 1
 967 265 1022 227 1082 226 c 1
 1056 -19 l 1
 1043 -21 1031 -23 1017 -23 c 0xb0
 901 -23 831 69 770 134 c 1
 688 41 564 -20 416 -20 c 0
EndSplineSet
EndChar

StartChar: approxequal
Encoding: 424 8776 232
Width: 956
VWidth: 0
Flags: W
HStem: 468 209<547.254 754.508> 588 207<239.578 444.161> 877 209<590.325 798.793> 997 207<283.658 487.093>
LayerCount: 2
UndoRedoHistory
Layer: 1
Undoes
EndUndoes
Redoes
EndRedoes
EndUndoRedoHistory
Fore
SplineSet
682 877 m 0x20
 572 877 456 997 369 997 c 0
 333 997 265 960 213 911 c 1
 133 1035 l 1
 196 1104 321 1204 400 1204 c 0x10
 509 1204 622 1086 709 1086 c 0
 748 1086 807 1129 863 1174 c 1
 948 1061 l 1
 889 983 768 877 682 877 c 0x20
639 468 m 0x80
 528 468 413 588 326 588 c 0
 291 588 223 551 169 502 c 1
 90 627 l 1
 153 696 278 795 357 795 c 0x40
 467 795 579 677 666 677 c 0
 705 677 765 720 820 766 c 1
 905 653 l 1
 846 574 724 468 639 468 c 0x80
EndSplineSet
EndChar

StartChar: asciicircum
Encoding: 94 94 234
Width: 951
VWidth: 0
Flags: W
HStem: 980 678<439 475>
LayerCount: 2
UndoRedoHistory
Layer: 1
Undoes
EndUndoes
Redoes
EndRedoes
EndUndoRedoHistory
Fore
SplineSet
121 980 m 1
 475 1658 l 1
 723 1658 l 1
 936 980 l 1
 687 980 l 1
 576 1439 l 1
 369 980 l 1
 121 980 l 1
EndSplineSet
EndChar

StartChar: asciitilde
Encoding: 126 126 235
Width: 956
VWidth: 0
Flags: W
HStem: 715 209<575.72 780.325> 835 207<265.721 469.991>
LayerCount: 2
UndoRedoHistory
Layer: 1
Undoes
EndUndoes
Redoes
EndRedoes
EndUndoRedoHistory
Fore
SplineSet
664 715 m 0x80
 554 715 439 835 352 835 c 0
 317 835 249 798 196 749 c 1
 117 874 l 1
 179 943 304 1042 383 1042 c 0x40
 492 1042 606 924 692 924 c 0
 732 924 790 967 846 1013 c 1
 931 900 l 1
 872 821 750 715 664 715 c 0x80
EndSplineSet
EndChar

StartChar: asterisk
Encoding: 42 42 236
Width: 843
VWidth: 0
Flags: W
HStem: 1637 20G<468.924 675>
LayerCount: 2
UndoRedoHistory
Layer: 1
Undoes
EndUndoes
Redoes
EndRedoes
EndUndoRedoHistory
Fore
SplineSet
379 940 m 1
 228 1037 l 1
 404 1254 l 1
 183 1343 l 1
 264 1511 l 1
 468 1394 l 1
 469 1657 l 1
 675 1657 l 1
 621 1394 l 1
 850 1512 l 1
 896 1342 l 1
 655 1253 l 1
 788 1037 l 1
 614 940 l 1
 522 1181 l 1
 379 940 l 1
EndSplineSet
EndChar

StartChar: at
Encoding: 64 64 237
Width: 1910
VWidth: 0
Flags: W
HStem: -276 191<659.828 1254.07> 1043 201<1039.66 1207.11> 1468 190<914.458 1412.85>
LayerCount: 2
UndoRedoHistory
Layer: 1
Undoes
EndUndoes
Redoes
EndRedoes
EndUndoRedoHistory
Fore
SplineSet
945 403 m 1
 988 411 1058 451 1091 556 c 1
 1208 1028 l 1
 1200 1039 1174 1043 1160 1043 c 0
 997 1043 850 823 826 593 c 0
 814 487 843 388 945 403 c 1
890 -276 m 0
 355 -276 48 41 134 619 c 1
 226 1299 645 1658 1212 1658 c 0
 1742 1658 1930 1265 1867 839 c 1
 1827 527 1620 195 1286 195 c 0
 1169 195 1079 258 1074 369 c 1
 1042 291 975 215 867 205 c 0
 644 185 553 378 579 594 c 0
 611 867 819 1244 1128 1244 c 0
 1193 1244 1235 1188 1257 1158 c 1
 1285 1228 l 1
 1492 1228 l 1
 1308 499 l 2
 1293 438 1271 352 1326 347 c 1
 1484 336 1637 564 1672 823 c 1
 1723 1163 1598 1468 1173 1468 c 0
 724 1468 429 1120 361 626 c 1
 292 176 489 -85 936 -85 c 0
 1045 -85 1194 -64 1326 -24 c 1
 1346 -209 l 1
 1191 -251 1034 -276 890 -276 c 0
EndSplineSet
EndChar

StartChar: b
Encoding: 98 98 239
Width: 973
VWidth: 0
Flags: W
HStem: -18 198<413.883 660.23> 0 21G<61 337.069> 1009 193<538.637 634.778> 1638 20G<232.901 509>
LayerCount: 2
UndoRedoHistory
Layer: 1
Undoes
EndUndoes
Redoes
EndRedoes
EndUndoRedoHistory
Fore
SplineSet
481 180 m 1xb0
 571 180 592 290 604 413 c 1
 646 807 l 1
 656 911 651 1011 561 1009 c 0
 518 1008 474 988 436 961 c 1
 357 218 l 1
 390 196 431 181 481 180 c 1xb0
551 -18 m 0
 469 -18 399 27 344 87 c 1
 335 0 l 1
 61 0 l 1x70
 235 1658 l 1
 509 1658 l 1
 450 1093 l 1
 521 1158 604 1203 698 1202 c 0
 922 1200 934 941 919 797 c 2
 879 420 l 2
 855 189 762 -18 551 -18 c 0
EndSplineSet
EndChar

StartChar: backslash
Encoding: 92 92 240
Width: 806
VWidth: 0
Flags: W
HStem: 0 21G<484.478 683> 1638 20G<196 395.51>
VStem: 196 487
LayerCount: 2
UndoRedoHistory
Layer: 1
Undoes
EndUndoes
Redoes
EndRedoes
EndUndoRedoHistory
Fore
SplineSet
488 0 m 1
 196 1658 l 1
 392 1658 l 1
 683 0 l 1
 488 0 l 1
EndSplineSet
EndChar

StartChar: bar
Encoding: 124 124 241
Width: 516
VWidth: 0
Flags: W
HStem: -330 21G<52 295.112> 1639 20G<259.888 503>
VStem: 52 451
LayerCount: 2
UndoRedoHistory
Layer: 1
Undoes
EndUndoes
Redoes
EndRedoes
EndUndoRedoHistory
Fore
SplineSet
52 -330 m 1
 262 1659 l 1
 503 1659 l 1
 293 -330 l 1
 52 -330 l 1
EndSplineSet
EndChar

StartChar: braceleft
Encoding: 123 123 242
Width: 687
VWidth: 0
Flags: W
HStem: -403 194<439.736 540> 544 191<115 191.074> 1488 194<615.324 739>
VStem: 95 665
CounterMasks: 1 e0
LayerCount: 2
UndoRedoHistory
Layer: 1
Undoes
EndUndoes
Redoes
EndRedoes
EndUndoRedoHistory
Fore
SplineSet
540 -403 m 1
 150 -403 127 -330 164 20 c 2
 190 265 l 2
 216 515 205 544 95 544 c 1
 115 735 l 1
 225 735 242 764 269 1014 c 2
 295 1259 l 1
 331 1609 370 1682 760 1682 c 1
 739 1488 l 1
 600 1488 589 1462 568 1252 c 1
 538 979 l 1
 516 764 456 664 348 639 c 1
 451 615 490 515 467 300 c 2
 439 27 l 1
 416 -183 422 -209 561 -209 c 1
 540 -403 l 1
EndSplineSet
EndChar

StartChar: braceright
Encoding: 125 125 243
Width: 722
VWidth: 0
Flags: W
HStem: -403 194<17 140.625> 544 191<564.3 641> 1488 194<216 316.009>
VStem: -4 665
CounterMasks: 1 e0
LayerCount: 2
UndoRedoHistory
Layer: 1
Undoes
EndUndoes
Redoes
EndRedoes
EndUndoRedoHistory
Fore
SplineSet
-4 -403 m 1
 17 -209 l 1
 156 -209 166 -183 189 27 c 1
 217 300 l 2
 240 515 301 615 409 639 c 1
 306 664 266 764 289 979 c 2
 318 1252 l 1
 339 1462 335 1488 195 1488 c 1
 216 1682 l 1
 605 1682 628 1609 592 1259 c 1
 566 1014 l 2
 540 764 551 735 661 735 c 1
 641 544 l 1
 530 544 513 515 487 265 c 2
 461 20 l 2
 424 -330 386 -403 -4 -403 c 1
EndSplineSet
EndChar

StartChar: bracketleft
Encoding: 91 91 244
Width: 705
VWidth: 0
Flags: W
HStem: -387 124<288 518> 1535 123<477 721>
LayerCount: 2
UndoRedoHistory
Layer: 1
Undoes
EndUndoes
Redoes
EndRedoes
EndUndoRedoHistory
Fore
SplineSet
27 -387 m 1
 243 1658 l 1
 733 1658 l 1
 721 1535 l 1
 477 1535 l 1
 288 -263 l 1
 531 -263 l 1
 518 -387 l 1
 27 -387 l 1
EndSplineSet
EndChar

StartChar: bracketright
Encoding: 93 93 245
Width: 654
VWidth: 0
Flags: W
HStem: -387 124<-32 212> 1534 124<169 400>
LayerCount: 2
UndoRedoHistory
Layer: 1
Undoes
EndUndoes
Redoes
EndRedoes
EndUndoRedoHistory
Fore
SplineSet
-45 -387 m 1
 -32 -263 l 1
 212 -263 l 1
 400 1534 l 1
 156 1534 l 1
 169 1658 l 1
 660 1658 l 1
 445 -387 l 1
 -45 -387 l 1
EndSplineSet
EndChar

StartChar: breve
Encoding: 425 728 246
Width: 692
VWidth: 0
Flags: W
HStem: 1365 133<348.487 555.653> 1638 20G<185.5 335 589 736>
VStem: 194 141<1515.16 1658> 595 141<1534.33 1658>
LayerCount: 2
UndoRedoHistory
Layer: 1
Undoes
EndUndoes
Redoes
EndRedoes
EndUndoRedoHistory
Fore
SplineSet
435 1365 m 0
 229 1365 177 1489 194 1658 c 1
 335 1658 l 1
 323 1545 351 1498 449 1498 c 0
 547 1498 583 1546 595 1658 c 1
 736 1658 l 1
 719 1489 642 1365 435 1365 c 0
EndSplineSet
EndChar

StartChar: brokenbar
Encoding: 166 166 247
Width: 442
VWidth: 0
Flags: W
HStem: -330 21G<34 241.108> 1638 20G<239.916 448>
VStem: 34 414
LayerCount: 2
UndoRedoHistory
Layer: 1
Undoes
EndUndoes
Redoes
EndRedoes
EndUndoRedoHistory
Fore
SplineSet
155 823 m 1
 242 1658 l 1
 448 1658 l 1
 361 823 l 1
 155 823 l 1
34 -330 m 1
 122 505 l 1
 327 505 l 1
 239 -330 l 1
 34 -330 l 1
EndSplineSet
EndChar

StartChar: bullet
Encoding: 426 8226 248
Width: 855
VWidth: 0
Flags: W
HStem: 482 606<326.172 591.417>
VStem: 167 585
LayerCount: 2
UndoRedoHistory
Layer: 1
Undoes
EndUndoes
Redoes
EndRedoes
EndUndoRedoHistory
Fore
SplineSet
426 482 m 0
 259 482 147 593 167 784 c 0
 187 977 323 1088 491 1088 c 0
 659 1088 771 975 752 784 c 0
 732 593 594 482 426 482 c 0
EndSplineSet
EndChar

StartChar: c
Encoding: 99 99 249
Width: 893
VWidth: 0
Flags: W
HStem: -18 196<355.524 515.548> 1006 196<434.692 593.208>
AnchorPoint: "cedilla" 380 0 basechar 0
LayerCount: 2
UndoRedoHistory
Layer: 1
Undoes
EndUndoes
Redoes
EndRedoes
EndUndoRedoHistory
Fore
SplineSet
407 -18 m 0
 125 -18 52 152 80 425 c 2
 115 759 l 2
 144 1033 254 1202 536 1202 c 0
 792 1202 879 1082 853 836 c 2
 843 742 l 1
 588 742 l 1
 598 840 l 2
 611 963 591 1006 518 1006 c 0
 436 1006 410 956 394 801 c 2
 350 376 l 2
 333 216 358 178 432 178 c 0
 514 178 535 241 546 337 c 2
 559 461 l 1
 814 461 l 1
 803 352 l 1
 777 111 659 -18 407 -18 c 0
EndSplineSet
EndChar

StartChar: caron
Encoding: 428 711 251
Width: 754
VWidth: 0
Flags: W
HStem: 1293 365<552 613>
VStem: 188 626
LayerCount: 2
UndoRedoHistory
Layer: 1
Undoes
EndUndoes
Redoes
EndRedoes
EndUndoRedoHistory
Fore
SplineSet
327 1293 m 1
 188 1658 l 1
 388 1658 l 1
 476 1427 l 1
 613 1658 l 1
 814 1658 l 1
 596 1293 l 1
 327 1293 l 1
EndSplineSet
EndChar

StartChar: cedilla
Encoding: 184 184 256
Width: 545
VWidth: 0
Flags: W
HStem: -500 128<-10 228.896> -201 201<86 191.193>
VStem: -24 452
AnchorPoint: "cedilla" 120 0 mark 0
LayerCount: 2
UndoRedoHistory
Layer: 1
Undoes
EndUndoes
Redoes
EndRedoes
EndUndoRedoHistory
Fore
SplineSet
-24 -500 m 1
 -10 -372 l 1
 76 -399 225 -399 234 -322 c 1
 245 -240 149 -218 65 -201 c 1
 86 0 l 1
 207 0 l 1
 194 -125 l 1
 319 -138 435 -201 428 -314 c 1
 414 -511 174 -562 -24 -500 c 1
EndSplineSet
EndChar

StartChar: cent
Encoding: 162 162 257
Width: 849
VWidth: 0
Flags: W
HStem: -15 196<419 514> 1003 196<437.252 469 547 591.484>
LayerCount: 2
UndoRedoHistory
Layer: 1
Undoes
EndUndoes
Redoes
EndRedoes
EndUndoRedoHistory
Fore
SplineSet
323 -195 m 1
 342 -15 l 1
 114 10 52 174 78 425 c 1
 114 759 l 1
 139 1010 237 1173 469 1199 c 1
 488 1376 l 1
 565 1376 l 1
 547 1201 l 1
 796 1197 877 1078 852 836 c 2
 842 742 l 1
 586 742 l 1
 596 838 l 2
 609 961 589 1003 516 1003 c 0
 434 1003 408 953 392 799 c 2
 348 379 l 2
 331 218 357 181 430 181 c 0
 512 181 534 243 544 340 c 2
 557 461 l 1
 812 461 l 1
 801 352 l 1
 776 115 664 -14 419 -18 c 1
 400 -195 l 1
 323 -195 l 1
EndSplineSet
EndChar

StartChar: circumflex
Encoding: 432 710 258
Width: 756
VWidth: 0
Flags: W
HStem: 1267 391<321 379>
VStem: 155 621
LayerCount: 2
UndoRedoHistory
Layer: 1
Undoes
EndUndoes
Redoes
EndRedoes
EndUndoRedoHistory
Fore
SplineSet
155 1267 m 1
 379 1658 l 1
 630 1658 l 1
 776 1267 l 1
 572 1267 l 1
 492 1528 l 1
 358 1267 l 1
 155 1267 l 1
EndSplineSet
EndChar

StartChar: colon
Encoding: 58 58 259
Width: 467
VWidth: 0
Flags: W
HStem: 171 265<120 359> 843 266<192 430>
VStem: 92 366
LayerCount: 2
UndoRedoHistory
Layer: 1
Undoes
EndUndoes
Redoes
EndRedoes
EndUndoRedoHistory
Fore
SplineSet
163 843 m 1
 192 1109 l 1
 458 1109 l 1
 430 843 l 1
 163 843 l 1
92 171 m 1
 120 436 l 1
 387 436 l 1
 359 171 l 1
 92 171 l 1
EndSplineSet
EndChar

StartChar: comma
Encoding: 44 44 260
Width: 424
VWidth: 0
Flags: W
HStem: -281 105<40.2693 104.977>
VStem: 23 306
LayerCount: 2
UndoRedoHistory
Layer: 1
Undoes
EndUndoes
Redoes
EndRedoes
EndUndoRedoHistory
Fore
SplineSet
43 -281 m 1
 23 -176 l 1
 100 -157 164 -96 174 0 c 1
 30 0 l 1
 59 267 l 1
 329 267 l 1
 303 17 l 2
 285 -153 200 -248 43 -281 c 1
EndSplineSet
EndChar

StartChar: copyright
Encoding: 169 169 261
Width: 1782
VWidth: 0
Flags: W
HStem: -24 89<599.2 1111.23> 254 201<811.942 990.523> 1242 200<885.411 1061.02> 1609 92<743.221 1273.48>
LayerCount: 2
UndoRedoHistory
Layer: 1
Undoes
EndUndoes
Redoes
EndRedoes
EndUndoRedoHistory
Fore
SplineSet
839 -24 m 0
 256 -24 65 424 109 839 c 1
 152 1255 437 1701 1021 1701 c 0
 1603 1701 1792 1255 1749 839 c 0
 1706 423 1423 -24 839 -24 c 0
853 65 m 0
 1352 65 1613 452 1654 839 c 1
 1694 1228 1515 1609 1016 1609 c 0
 515 1609 255 1228 215 839 c 1
 174 452 352 65 853 65 c 0
871 254 m 0
 561 254 478 428 508 706 c 2
 538 991 l 2
 567 1269 686 1442 996 1442 c 0
 1278 1442 1374 1320 1348 1070 c 2
 1340 992 l 1
 1064 992 l 1
 1072 1072 l 1
 1086 1198 1059 1242 978 1242 c 0
 888 1242 854 1191 838 1032 c 2
 798 658 l 2
 781 493 814 455 896 455 c 0
 987 455 1015 520 1025 618 c 2
 1034 711 l 1
 1310 711 l 1
 1302 631 l 2
 1277 386 1148 254 871 254 c 0
EndSplineSet
EndChar

StartChar: currency
Encoding: 164 164 262
Width: 1138
VWidth: 0
Flags: W
HStem: 428 93<417.107 740.211> 1211 93<480.464 803.568>
LayerCount: 2
UndoRedoHistory
Layer: 1
Undoes
EndUndoes
Redoes
EndRedoes
EndUndoRedoHistory
Fore
SplineSet
574 521 m 0
 764 521 925 677 945 866 c 0
 965 1056 836 1211 646 1211 c 0
 457 1211 296 1056 276 866 c 0
 256 677 385 521 574 521 c 0
104 381 m 1
 77 411 l 1
 257 573 l 1
 196 650 165 754 177 866 c 0
 189 979 242 1082 319 1159 c 1
 173 1321 l 1
 206 1351 l 1
 351 1189 l 1
 435 1261 542 1305 656 1304 c 1
 770 1305 869 1261 937 1189 c 1
 1116 1351 l 1
 1143 1321 l 1
 964 1159 l 1
 1024 1082 1055 979 1043 866 c 0
 1031 754 978 650 901 573 c 1
 1047 411 l 1
 1014 381 l 1
 869 543 l 1
 786 471 678 427 564 428 c 1
 450 427 352 471 283 543 c 1
 104 381 l 1
EndSplineSet
EndChar

StartChar: d
Encoding: 100 100 263
Width: 963
VWidth: 0
Flags: W
HStem: -18 198<365.172 469.659> 0 21G<531 807.099> 1006 196<335.142 593.075> 1638 20G<702.916 979>
LayerCount: 2
UndoRedoHistory
Layer: 1
Undoes
EndUndoes
Redoes
EndRedoes
EndUndoRedoHistory
Fore
SplineSet
440 180 m 0xb0
 470 180 511 190 554 212 c 1
 633 969 l 1
 601 991 564 1006 526 1006 c 0
 442 1006 408 915 398 820 c 2
 354 396 l 2
 341 279 347 180 440 180 c 0xb0
326 -18 m 0
 134 -19 49 108 82 417 c 1
 116 747 l 2
 141 991 228 1202 449 1202 c 0
 530 1202 597 1164 648 1111 c 1
 705 1658 l 1
 979 1658 l 1
 805 0 l 1
 531 0 l 1x70
 540 80 l 1
 474 19 401 -18 326 -18 c 0
EndSplineSet
EndChar

StartChar: dagger
Encoding: 433 8224 264
Width: 807
VWidth: 0
Flags: W
HStem: 0 21G<232 480.105> 1064 191<165 344 610 788>
VStem: 144 664
LayerCount: 2
UndoRedoHistory
Layer: 1
Undoes
EndUndoes
Redoes
EndRedoes
EndUndoRedoHistory
Fore
SplineSet
232 0 m 1
 344 1064 l 1
 144 1064 l 1
 165 1255 l 1
 364 1255 l 1
 406 1653 l 1
 652 1653 l 1
 610 1255 l 1
 808 1255 l 1
 788 1064 l 1
 590 1064 l 1
 478 0 l 1
 232 0 l 1
EndSplineSet
EndChar

StartChar: daggerdbl
Encoding: 434 8225 265
Width: 807
VWidth: 0
Flags: W
HStem: 0 21G<234 478.091> 507 168<89 287 547 744> 1012 172<143 341 600 797>
LayerCount: 2
UndoRedoHistory
Layer: 1
Undoes
EndUndoes
Redoes
EndRedoes
EndUndoRedoHistory
Fore
SplineSet
234 0 m 1
 287 507 l 1
 71 507 l 1
 89 675 l 1
 305 675 l 1
 341 1012 l 1
 125 1012 l 1
 143 1184 l 1
 358 1184 l 1
 408 1654 l 1
 650 1654 l 1
 600 1184 l 1
 815 1184 l 1
 797 1012 l 1
 582 1012 l 1
 547 675 l 1
 761 675 l 1
 744 507 l 1
 529 507 l 1
 476 0 l 1
 234 0 l 1
EndSplineSet
EndChar

StartChar: dcroat
Encoding: 436 273 267
Width: 974
VWidth: 0
Flags: W
HStem: -18 198<363.105 466.206> 0 21G<528 804.102> 1006 196<332.553 589.297> 1389 131<435 674 961 1062> 1638 20G<699.826 976>
LayerCount: 2
UndoRedoHistory
Layer: 1
Undoes
EndUndoes
Redoes
EndRedoes
EndUndoRedoHistory
Fore
SplineSet
438 180 m 0xb8
 468 180 508 190 550 212 c 1
 630 969 l 1
 598 991 562 1006 523 1006 c 0
 440 1006 406 915 396 820 c 2
 351 396 l 2
 339 279 345 180 438 180 c 0xb8
324 -18 m 0
 131 -19 47 108 79 417 c 2
 114 747 l 2
 139 991 225 1202 447 1202 c 0
 528 1202 593 1164 645 1111 c 1
 674 1389 l 1
 422 1389 l 1
 435 1520 l 1
 687 1520 l 1
 702 1658 l 1
 976 1658 l 1
 961 1520 l 1
 1075 1520 l 1
 1062 1389 l 1
 948 1389 l 1
 802 0 l 1
 528 0 l 1x78
 536 80 l 1
 470 19 399 -18 324 -18 c 0
EndSplineSet
EndChar

StartChar: degree
Encoding: 176 176 268
Width: 1009
VWidth: 0
Flags: W
HStem: 927 167<450.021 694.834> 1509 168<485.047 731.248>
LayerCount: 2
UndoRedoHistory
Layer: 1
Undoes
EndUndoes
Redoes
EndRedoes
EndUndoRedoHistory
Fore
SplineSet
551 927 m 0
 317 927 189 1074 213 1303 c 0
 238 1532 398 1677 630 1677 c 0
 863 1677 993 1532 969 1303 c 0
 945 1073 785 927 551 927 c 0
569 1094 m 0
 690 1094 765 1181 778 1302 c 0
 790 1423 734 1509 612 1509 c 0
 491 1509 417 1424 404 1303 c 0
 392 1182 448 1094 569 1094 c 0
EndSplineSet
EndChar

StartChar: dieresis
Encoding: 168 168 269
Width: 844
VWidth: 0
Flags: W
HStem: 1396 262<227 449 616 838>
VStem: 200 666
LayerCount: 2
UndoRedoHistory
Layer: 1
Undoes
EndUndoes
Redoes
EndRedoes
EndUndoRedoHistory
Fore
SplineSet
588 1396 m 1
 616 1658 l 1
 866 1658 l 1
 838 1396 l 1
 588 1396 l 1
200 1396 m 1
 227 1658 l 1
 476 1658 l 1
 449 1396 l 1
 200 1396 l 1
EndSplineSet
EndChar

StartChar: divide
Encoding: 247 247 270
Width: 797
VWidth: 0
Flags: W
HStem: 348 244<317 485> 759 174<96 779> 1080 244<393 562>
LayerCount: 2
UndoRedoHistory
Layer: 1
Undoes
EndUndoes
Redoes
EndRedoes
EndUndoRedoHistory
Fore
SplineSet
368 1080 m 1
 393 1324 l 1
 588 1324 l 1
 562 1080 l 1
 368 1080 l 1
78 759 m 1
 96 933 l 1
 797 933 l 1
 779 759 l 1
 78 759 l 1
291 348 m 1
 317 592 l 1
 511 592 l 1
 485 348 l 1
 291 348 l 1
EndSplineSet
EndChar

StartChar: dollar
Encoding: 36 36 271
Width: 1010
VWidth: 0
Flags: W
HStem: -19 227<393.25 444 529 597.988>
VStem: 66 265<264.713 484> 729 259<1230 1424.06>
LayerCount: 2
UndoRedoHistory
Layer: 1
Undoes
EndUndoes
Redoes
EndRedoes
EndUndoRedoHistory
Fore
SplineSet
428 -178 m 1
 444 -19 l 1
 163 -9 48 174 66 484 c 1
 331 540 l 1
 317 353 348 208 488 208 c 0
 586 208 635 273 644 367 c 1
 660 512 593 586 500 677 c 1
 297 872 l 2
 192 973 131 1079 152 1270 c 1
 177 1518 344 1662 587 1676 c 1
 602 1827 l 1
 687 1827 l 1
 671 1675 l 1
 936 1657 994 1464 988 1230 c 1
 729 1178 l 1
 739 1329 729 1463 588 1454 c 0
 494 1448 438 1390 429 1298 c 0
 417 1184 462 1126 530 1059 c 1
 734 865 l 1
 852 749 951 605 928 386 c 0
 904 164 746 7 529 -17 c 1
 512 -178 l 1
 428 -178 l 1
EndSplineSet
EndChar

StartChar: dotlessi
Encoding: 438 305 273
Width: 512
VWidth: 0
Flags: W
HStem: 0 21G<73 349.095> 1164 20G<194.905 471>
VStem: 73 398
LayerCount: 2
UndoRedoHistory
Layer: 1
Undoes
EndUndoes
Redoes
EndRedoes
EndUndoRedoHistory
Fore
SplineSet
73 0 m 1
 197 1184 l 1
 471 1184 l 1
 347 0 l 1
 73 0 l 1
EndSplineSet
EndChar

StartChar: e
Encoding: 101 101 274
Width: 909
VWidth: 0
Flags: W
HStem: -18 199<358.227 517.958> 578 139<384 589> 1003 199<431.013 592.08>
AnchorPoint: "ogonek" 518 0 basechar 0
LayerCount: 2
UndoRedoHistory
Layer: 1
Undoes
EndUndoes
Redoes
EndRedoes
EndUndoRedoHistory
Fore
SplineSet
384 717 m 1
 589 717 l 1
 601 830 l 2
 613 948 596 1003 516 1003 c 0
 434 1003 408 950 391 792 c 1
 384 717 l 1
412 -18 m 0
 130 -18 51 146 80 428 c 1
 115 754 l 2
 145 1040 263 1202 538 1202 c 0
 830 1202 884 1024 852 726 c 2
 836 578 l 1
 369 578 l 1
 350 404 l 2
 338 285 327 181 431 181 c 0
 515 181 540 246 549 340 c 1
 559 431 l 1
 820 431 l 1
 812 361 l 1
 787 119 655 -18 412 -18 c 0
EndSplineSet
EndChar

StartChar: eight
Encoding: 56 56 282
Width: 1054
VWidth: 0
Flags: W
HStem: -21 213<408.368 611.469> 744 244<505.082 660.945> 1465 212<542.029 725.185>
LayerCount: 2
UndoRedoHistory
Layer: 1
Undoes
EndUndoes
Redoes
EndRedoes
EndUndoRedoHistory
Fore
SplineSet
589 988 m 0
 695 988 739 1110 753 1252 c 0
 765 1367 740 1465 640 1465 c 0
 537 1465 491 1369 479 1252 c 0
 464 1110 481 988 589 988 c 0
506 192 m 0
 647 192 680 337 694 468 c 0
 708 605 696 744 564 744 c 0
 432 744 388 605 373 468 c 0
 359 334 365 192 506 192 c 0
483 -21 m 0
 167 -21 73 177 106 481 c 0
 127 671 207 800 342 874 c 1
 252 947 193 1058 210 1239 c 0
 237 1511 389 1677 662 1677 c 0
 935 1677 1049 1510 1019 1239 c 0
 998 1058 916 946 811 874 c 1
 928 799 984 671 965 481 c 0
 936 176 800 -21 483 -21 c 0
EndSplineSet
EndChar

StartChar: ellipsis
Encoding: 442 8230 283
Width: 1226
VWidth: 0
Flags: W
HStem: 0 274<45 283 457 695 872 1110>
LayerCount: 2
UndoRedoHistory
Layer: 1
Undoes
EndUndoes
Redoes
EndRedoes
EndUndoRedoHistory
Fore
SplineSet
843 0 m 1
 872 274 l 1
 1139 274 l 1
 1110 0 l 1
 843 0 l 1
428 0 m 1
 457 274 l 1
 724 274 l 1
 695 0 l 1
 428 0 l 1
16 0 m 1
 45 274 l 1
 312 274 l 1
 283 0 l 1
 16 0 l 1
EndSplineSet
EndChar

StartChar: emdash
Encoding: 444 8212 285
Width: 2047
VWidth: 0
Flags: W
HStem: 604 192<34 2059>
LayerCount: 2
UndoRedoHistory
Layer: 1
Undoes
EndUndoes
Redoes
EndRedoes
EndUndoRedoHistory
Fore
SplineSet
14 604 m 1
 34 796 l 1
 2080 796 l 1
 2059 604 l 1
 14 604 l 1
EndSplineSet
EndChar

StartChar: endash
Encoding: 445 8211 286
Width: 1024
VWidth: 0
Flags: W
HStem: 498 198<23 1026>
LayerCount: 2
UndoRedoHistory
Layer: 1
Undoes
EndUndoes
Redoes
EndRedoes
EndUndoRedoHistory
Fore
SplineSet
3 498 m 1
 23 696 l 1
 1046 696 l 1
 1026 498 l 1
 3 498 l 1
EndSplineSet
EndChar

StartChar: eng
Encoding: 446 331 287
Width: 863
VWidth: 0
Flags: W
HStem: -392 191<260 451.284> 0 21G<37 313.106> 996 206<523.5 800> 1164 20G<158.905 435>
LayerCount: 2
UndoRedoHistory
Layer: 1
Undoes
EndUndoes
Redoes
EndRedoes
EndUndoRedoHistory
Fore
SplineSet
240 -392 m 1xe0
 260 -201 l 1
 459 -201 503 -147 517 -10 c 2
 611 885 l 2
 618 952 610 996 543 996 c 1xe0
 504 995 456 972 410 940 c 1
 311 0 l 1
 37 0 l 1
 161 1184 l 1
 435 1184 l 1xd0
 424 1073 l 1
 515 1150 614 1202 727 1202 c 0
 873 1202 905 1072 892 948 c 2
 791 -12 l 2
 764 -269 606 -392 331 -392 c 2
 240 -392 l 1xe0
EndSplineSet
EndChar

StartChar: equal
Encoding: 61 61 289
Width: 877
VWidth: 0
Flags: W
HStem: 545 188<145 766> 921 188<185 805>
LayerCount: 2
UndoRedoHistory
Layer: 1
Undoes
EndUndoes
Redoes
EndRedoes
EndUndoRedoHistory
Fore
SplineSet
165 921 m 1
 185 1109 l 1
 825 1109 l 1
 805 921 l 1
 165 921 l 1
126 545 m 1
 145 733 l 1
 786 733 l 1
 766 545 l 1
 126 545 l 1
EndSplineSet
EndChar

StartChar: estimated
Encoding: 448 8494 290
Width: 906
VWidth: 0
Flags: W
HStem: -18 77<343.439 588.576> 578 82<359 618> 1119 83<436.941 624.73>
LayerCount: 2
UndoRedoHistory
Layer: 1
Undoes
EndUndoes
Redoes
EndRedoes
EndUndoRedoHistory
Fore
SplineSet
359 660 m 1
 618 660 l 1
 645 915 l 2
 658 1033 651 1119 536 1119 c 0
 421 1119 399 1038 382 880 c 2
 359 660 l 1
433 -18 m 0
 152 -18 46 103 75 385 c 2
 118 794 l 2
 148 1080 270 1202 545 1202 c 0
 837 1202 887 1064 856 766 c 2
 836 578 l 1
 350 578 l 1
 320 288 l 2
 304 139 301 59 464 59 c 0
 617 59 630 139 646 281 c 1
 661 431 l 1
 819 431 l 1
 807 311 l 1
 781 69 687 -18 433 -18 c 0
EndSplineSet
EndChar

StartChar: eth
Encoding: 240 240 291
Width: 1012
VWidth: 0
Flags: W
HStem: -22 201<384.188 568.393> 957 202<470.539 664.604> 1519 175<343 561.52>
LayerCount: 2
UndoRedoHistory
Layer: 1
Undoes
EndUndoes
Redoes
EndRedoes
EndUndoRedoHistory
Fore
SplineSet
465 179 m 0
 582 179 608 274 621 399 c 2
 674 903 l 1
 661 916 632 957 563 957 c 0
 454 957 417 850 390 592 c 0
 367 365 314 179 465 179 c 0
439 -22 m 0
 152 -22 71 141 103 450 c 1
 126 664 l 2
 155 941 265 1159 516 1159 c 0
 602 1159 658 1128 692 1097 c 1
 697 1207 684 1303 656 1352 c 1
 424 1267 l 1
 421 1373 l 1
 605 1439 l 1
 563 1489 485 1519 312 1519 c 1
 343 1694 l 1
 601 1694 744 1639 820 1528 c 1
 1052 1611 l 1
 1055 1504 l 1
 871 1440 l 1
 919 1327 967 1085 941 834 c 2
 902 467 l 2
 868 142 711 -22 439 -22 c 0
EndSplineSet
EndChar

StartChar: exclam
Encoding: 33 33 292
Width: 465
VWidth: 0
Flags: W
HStem: 0 266<73 312>
VStem: 45 449
LayerCount: 2
UndoRedoHistory
Layer: 1
Undoes
EndUndoes
Redoes
EndRedoes
EndUndoRedoHistory
Fore
SplineSet
171 380 m 1
 221 1656 l 1
 494 1656 l 1
 267 380 l 1
 171 380 l 1
45 0 m 1
 73 266 l 1
 340 266 l 1
 312 0 l 1
 45 0 l 1
EndSplineSet
EndChar

StartChar: exclamdown
Encoding: 161 161 293
Width: 450
VWidth: 0
Flags: W
HStem: -341 21G<2 276.784> 1049 266<185 424>
VStem: 2 450
LayerCount: 2
UndoRedoHistory
Layer: 1
Undoes
EndUndoes
Redoes
EndRedoes
EndUndoRedoHistory
Fore
SplineSet
157 1049 m 1
 185 1315 l 1
 452 1315 l 1
 424 1049 l 1
 157 1049 l 1
2 -341 m 1
 230 935 l 1
 326 935 l 1
 276 -341 l 1
 2 -341 l 1
EndSplineSet
EndChar

StartChar: f
Encoding: 102 102 294
Width: 621
VWidth: 0
Flags: W
HStem: 0 21G<117 392.105> 988 196<111 221 514 662> 1401 205<549.279 704.492>
VStem: 91 635
LayerCount: 2
UndoRedoHistory
Layer: 1
Undoes
EndUndoes
Redoes
EndRedoes
EndUndoRedoHistory
Fore
SplineSet
117 0 m 1
 221 988 l 1
 91 988 l 1
 111 1184 l 1
 241 1184 l 1
 248 1245 l 1
 271 1467 322 1606 575 1606 c 0
 630 1606 666 1602 726 1595 c 1
 704 1391 l 1
 682 1393 652 1401 628 1401 c 0
 557 1401 532 1351 524 1274 c 2
 514 1184 l 1
 682 1184 l 1
 662 988 l 1
 494 988 l 1
 390 0 l 1
 117 0 l 1
EndSplineSet
EndChar

StartChar: five
Encoding: 53 53 295
Width: 1055
VWidth: 0
Flags: W
HStem: -22 214<422.145 617.114> 883 207<486.396 673.426> 1401 257<488 999>
LayerCount: 2
UndoRedoHistory
Layer: 1
Undoes
EndUndoes
Redoes
EndRedoes
EndUndoRedoHistory
Fore
SplineSet
481 -22 m 0
 151 -22 82 173 114 479 c 1
 388 479 l 1
 371 323 373 191 514 192 c 0
 664 194 683 352 705 563 c 0
 724 751 726 883 581 883 c 0
 498 883 437 819 407 741 c 1
 168 741 l 1
 276 1658 l 1
 1026 1658 l 1
 999 1401 l 1
 488 1401 l 1
 430 1006 l 1
 480 1055 565 1086 661 1090 c 0
 929 1100 1010 893 978 588 c 0
 942 246 838 -22 481 -22 c 0
EndSplineSet
EndChar

StartChar: florin
Encoding: 449 402 296
Width: 843
VWidth: 0
Flags: W
HStem: -286 205<-20.9387 136.182> 984 200<260 364 680 804> 1401 205<733.302 889.939>
LayerCount: 2
UndoRedoHistory
Layer: 1
Undoes
EndUndoes
Redoes
EndRedoes
EndUndoRedoHistory
Fore
SplineSet
87 -286 m 0
 32 -286 -3 -282 -62 -275 c 1
 -20 -71 l 1
 0 -75 32 -81 55 -81 c 0
 127 -81 155 -31 171 46 c 2
 364 984 l 1
 239 984 l 1
 260 1184 l 1
 405 1184 l 1
 420 1254 l 1
 464 1472 532 1606 782 1606 c 0
 838 1606 873 1602 931 1595 c 1
 889 1391 l 1
 868 1393 839 1401 816 1401 c 0
 744 1401 714 1351 698 1274 c 2
 680 1184 l 1
 824 1184 l 1
 804 984 l 1
 638 984 l 1
 450 66 l 2
 404 -154 338 -286 87 -286 c 0
EndSplineSet
EndChar

StartChar: foundryicon
Encoding: 450 -1 297
Width: 1442
VWidth: 0
Flags: W
LayerCount: 2
UndoRedoHistory
Layer: 1
Undoes
EndUndoes
Redoes
EndRedoes
EndUndoRedoHistory
Fore
SplineSet
271 254 m 1
 478 751 l 1
 90 1069 l 1
 616 1072 l 1
 831 1570 l 1
 952 1072 l 1
 1477 1072 l 1
 1020 751 l 1
 1124 254 l 1
 725 554 l 1
 271 254 l 1
EndSplineSet
EndChar

StartChar: four
Encoding: 52 52 298
Width: 1055
VWidth: 0
Flags: W
HStem: 0 21G<509 775.108> 408 234<336 552 840 989> 1639 20G<607.403 947>
LayerCount: 2
UndoRedoHistory
Layer: 1
Undoes
EndUndoes
Redoes
EndRedoes
EndUndoRedoHistory
Fore
SplineSet
336 642 m 1
 576 642 l 1
 650 1347 l 1
 336 642 l 1
509 0 m 1
 552 408 l 1
 66 408 l 1
 94 670 l 1
 618 1659 l 1
 947 1659 l 1
 840 642 l 1
 1013 642 l 1
 989 408 l 1
 816 408 l 1
 773 0 l 1
 509 0 l 1
EndSplineSet
EndChar

StartChar: fraction
Encoding: 451 8260 299
Width: 550
VWidth: 0
Flags: W
HStem: 0 21G<-39 184.838> 1638 20G<440.15 663>
LayerCount: 2
UndoRedoHistory
Layer: 1
Undoes
EndUndoes
Redoes
EndRedoes
EndUndoRedoHistory
Fore
SplineSet
-39 0 m 1
 446 1658 l 1
 663 1658 l 1
 179 0 l 1
 -39 0 l 1
EndSplineSet
EndChar

StartChar: g
Encoding: 103 103 300
Width: 943
VWidth: 0
Flags: W
HStem: -359 195<240.944 594.905> 362 180<384.44 552.45> 1024 178<425.216 594.846>
LayerCount: 2
UndoRedoHistory
Layer: 1
Undoes
EndUndoes
Redoes
EndRedoes
EndUndoRedoHistory
Fore
SplineSet
462 542 m 0
 562 542 584 615 602 779 c 1
 619 945 617 1024 515 1024 c 0
 413 1024 392 946 375 779 c 1
 359 632 364 542 462 542 c 0
444 -164 m 0
 559 -164 610 -136 620 -69 c 0
 630 1 601 31 494 41 c 2
 307 58 l 1
 286 36 236 -17 231 -74 c 0
 225 -134 253 -164 444 -164 c 0
425 -359 m 0
 215 -359 -42 -348 -22 -161 c 0
 -9 -41 83 42 171 91 c 1
 85 122 58 170 60 225 c 0
 63 318 123 371 218 443 c 1
 142 506 102 594 121 773 c 0
 152 1068 298 1202 529 1202 c 0
 650 1202 732 1164 769 1085 c 1
 793 1111 864 1173 942 1209 c 1
 983 1227 l 1
 1031 1071 l 1
 986 1060 856 1014 822 994 c 1
 840 950 853 856 844 769 c 0
 818 526 708 362 450 362 c 0
 411 362 327 377 311 384 c 1
 293 361 272 333 271 307 c 0
 270 278 300 263 370 256 c 1
 389 253 546 239 579 234 c 1
 775 214 852 120 834 -54 c 1
 811 -260 699 -359 425 -359 c 0
EndSplineSet
EndChar

StartChar: gcommaaccent
Encoding: 454 291 303
Width: 901
VWidth: 0
Flags: W
HStem: -375 158<249.965 616.925> 373 154<401.823 596.196> 1050 155<450.968 640.919> 1488 263<663 780>
LayerCount: 2
UndoRedoHistory
Layer: 1
Undoes
EndUndoes
Redoes
EndRedoes
EndUndoRedoHistory
Fore
SplineSet
494 527 m 0
 622 527 651 657 665 792 c 0
 679 927 673 1050 546 1050 c 0
 420 1050 390 906 378 792 c 0
 364 663 366 527 494 527 c 0
426 -217 m 0
 555 -217 646 -186 659 -108 c 1
 675 -28 639 6 493 36 c 1
 347 61 l 1
 299 22 229 -34 223 -102 c 1
 214 -181 291 -217 426 -217 c 0
524 1488 m 1
 547 1705 l 2
 567 1890 648 1989 801 2013 c 1
 807 1935 l 1
 734 1903 673 1846 663 1751 c 1
 807 1751 l 1
 780 1488 l 1
 524 1488 l 1
410 -375 m 0
 205 -375 -48 -332 -29 -141 c 1
 -18 -43 97 46 188 102 c 1
 103 134 43 168 40 214 c 0
 35 308 136 403 218 470 c 1
 132 535 97 642 111 778 c 0
 139 1034 300 1205 558 1205 c 0
 685 1205 775 1152 821 1084 c 1
 871 1142 935 1196 996 1224 c 2
 1038 1243 l 1
 1087 1115 l 1
 1036 1100 947 1051 882 1003 c 1
 905 959 926 879 916 781 c 0
 891 539 751 373 493 373 c 0
 422 373 358 387 308 409 c 1
 272 365 222 306 222 272 c 1
 223 258 264 244 326 232 c 1
 396 216 483 203 575 187 c 1
 807 144 887 67 871 -85 c 0
 853 -255 705 -375 410 -375 c 0
EndSplineSet
EndChar

StartChar: germandbls
Encoding: 223 223 305
Width: 1083
VWidth: 0
Flags: W
HStem: -22 218<463 622.112> 0 21G<59 335.103> 738 220<548 654.655> 1468 209<522.415 720.421>
LayerCount: 2
UndoRedoHistory
Layer: 1
Undoes
EndUndoes
Redoes
EndRedoes
EndUndoRedoHistory
Fore
SplineSet
439 -22 m 1xb0
 463 196 l 1xb0
 637 196 701 281 718 484 c 0
 731 637 664 738 526 738 c 1
 548 958 l 1
 674 958 731 1084 748 1238 c 1
 762 1376 738 1468 625 1468 c 0
 512 1468 476 1373 464 1246 c 1
 333 0 l 1
 59 0 l 1x70
 190 1243 l 1
 214 1481 350 1677 617 1677 c 0
 910 1677 1029 1517 1000 1240 c 1
 980 1059 899 945 744 872 c 1
 918 822 1011 672 990 469 c 0
 954 133 769 -22 439 -22 c 1xb0
EndSplineSet
EndChar

StartChar: grave
Encoding: 96 96 306
Width: 608
VWidth: 0
Flags: W
HStem: 1249 409<432 507>
VStem: 229 356
LayerCount: 2
UndoRedoHistory
Layer: 1
Undoes
EndUndoes
Redoes
EndRedoes
EndUndoRedoHistory
Fore
SplineSet
432 1249 m 1
 229 1658 l 1
 507 1658 l 1
 585 1249 l 1
 432 1249 l 1
EndSplineSet
EndChar

StartChar: gravecomb
Encoding: 456 768 307
Width: 182
VWidth: 0
Flags: W
HStem: 1249 409<275 350>
VStem: 72 356
LayerCount: 2
UndoRedoHistory
Layer: 1
Undoes
EndUndoes
Redoes
EndRedoes
EndUndoRedoHistory
Fore
SplineSet
275 1249 m 1
 72 1658 l 1
 350 1658 l 1
 428 1249 l 1
 275 1249 l 1
EndSplineSet
EndChar

StartChar: greater
Encoding: 62 62 308
Width: 787
VWidth: 0
Flags: W
VStem: 77 680
LayerCount: 2
UndoRedoHistory
Layer: 1
Undoes
EndUndoes
Redoes
EndRedoes
EndUndoRedoHistory
Fore
SplineSet
77 114 m 1
 104 371 l 1
 542 663 l 1
 165 952 l 1
 192 1210 l 1
 757 785 l 1
 731 538 l 1
 77 114 l 1
EndSplineSet
EndChar

StartChar: greaterequal
Encoding: 457 8805 309
Width: 827
VWidth: 0
Flags: W
HStem: 5 168<78 705>
LayerCount: 2
UndoRedoHistory
Layer: 1
Undoes
EndUndoes
Redoes
EndRedoes
EndUndoRedoHistory
Fore
SplineSet
60 5 m 1
 78 173 l 1
 723 173 l 1
 705 5 l 1
 60 5 l 1
94 269 m 1
 121 526 l 1
 558 818 l 1
 182 1107 l 1
 209 1365 l 1
 773 940 l 1
 747 693 l 1
 94 269 l 1
EndSplineSet
EndChar

StartChar: guillemotleft
Encoding: 171 171 310
Width: 967
VWidth: 0
Flags: W
LayerCount: 2
UndoRedoHistory
Layer: 1
Undoes
EndUndoes
Redoes
EndRedoes
EndUndoRedoHistory
Fore
SplineSet
808 64 m 1
 498 540 l 1
 510 657 l 1
 921 1134 l 1
 889 827 l 1
 689 599 l 1
 840 370 l 1
 808 64 l 1
381 64 m 1
 72 540 l 1
 84 657 l 1
 494 1134 l 1
 462 827 l 1
 263 599 l 1
 413 370 l 1
 381 64 l 1
EndSplineSet
EndChar

StartChar: guillemotright
Encoding: 187 187 311
Width: 1010
VWidth: 0
Flags: W
LayerCount: 2
UndoRedoHistory
Layer: 1
Undoes
EndUndoes
Redoes
EndRedoes
EndUndoRedoHistory
Fore
SplineSet
492 64 m 1
 524 370 l 1
 737 600 l 1
 573 827 l 1
 605 1134 l 1
 928 657 l 1
 916 540 l 1
 492 64 l 1
65 64 m 1
 97 370 l 1
 311 600 l 1
 146 827 l 1
 178 1134 l 1
 503 657 l 1
 491 540 l 1
 65 64 l 1
EndSplineSet
EndChar

StartChar: guilsinglleft
Encoding: 458 8249 312
Width: 555
VWidth: 0
Flags: W
VStem: 68 481
LayerCount: 2
UndoRedoHistory
Layer: 1
Undoes
EndUndoes
Redoes
EndRedoes
EndUndoRedoHistory
Fore
SplineSet
437 53 m 1
 68 518 l 1
 83 657 l 1
 549 1123 l 1
 517 816 l 1
 263 589 l 1
 469 359 l 1
 437 53 l 1
EndSplineSet
EndChar

StartChar: guilsinglright
Encoding: 459 8250 313
Width: 578
VWidth: 0
Flags: W
VStem: 67 479
LayerCount: 2
UndoRedoHistory
Layer: 1
Undoes
EndUndoes
Redoes
EndRedoes
EndUndoRedoHistory
Fore
SplineSet
67 138 m 1
 99 445 l 1
 355 674 l 1
 147 902 l 1
 179 1209 l 1
 546 732 l 1
 534 614 l 1
 67 138 l 1
EndSplineSet
EndChar

StartChar: h
Encoding: 104 104 314
Width: 973
VWidth: 0
Flags: W
HStem: 0 21G<62 338.094 549 825.089> 996 206<553.5 830.5> 1638 20G<233.901 510>
LayerCount: 2
UndoRedoHistory
Layer: 1
Undoes
EndUndoes
Redoes
EndRedoes
EndUndoRedoHistory
Fore
SplineSet
62 0 m 1
 236 1658 l 1
 510 1658 l 1
 449 1068 l 1
 541 1147 642 1202 758 1202 c 0
 903 1202 936 1072 922 948 c 1
 823 0 l 1
 549 0 l 1
 641 885 l 1
 649 952 641 996 574 996 c 1
 533 995 483 970 434 936 c 1
 336 0 l 1
 62 0 l 1
EndSplineSet
EndChar

StartChar: hbar
Encoding: 460 295 315
Width: 974
VWidth: 0
Flags: W
HStem: 0 21G<63 339.094 549 825.11> 996 206<554 831> 1397 140<108 209 498 730> 1638 20G<234.851 511>
LayerCount: 2
UndoRedoHistory
Layer: 1
Undoes
EndUndoes
Redoes
EndRedoes
EndUndoRedoHistory
Fore
SplineSet
63 0 m 1
 209 1397 l 1
 94 1397 l 1
 108 1537 l 1
 224 1537 l 1
 237 1658 l 1
 511 1658 l 1
 498 1537 l 1
 745 1537 l 1
 730 1397 l 1
 483 1397 l 1
 449 1068 l 1
 541 1147 643 1202 758 1202 c 0
 904 1202 936 1072 923 948 c 2
 823 0 l 1
 549 0 l 1
 642 885 l 2
 649 952 642 996 574 996 c 1
 534 995 483 970 435 936 c 1
 337 0 l 1
 63 0 l 1
EndSplineSet
EndChar

StartChar: hungarumlaut
Encoding: 462 733 317
Width: 710
VWidth: 0
Flags: W
HStem: 1269 389<716 717>
LayerCount: 2
UndoRedoHistory
Layer: 1
Undoes
EndUndoes
Redoes
EndRedoes
EndUndoRedoHistory
Fore
SplineSet
551 1269 m 1
 716 1658 l 1
 974 1658 l 1
 692 1269 l 1
 551 1269 l 1
245 1269 m 1
 382 1658 l 1
 603 1658 l 1
 383 1269 l 1
 245 1269 l 1
EndSplineSet
EndChar

StartChar: hyphen
Encoding: 45 45 318
Width: 717
VWidth: 0
Flags: W
HStem: 551 192<141 611>
VStem: 121 510
LayerCount: 2
UndoRedoHistory
Layer: 1
Undoes
EndUndoes
Redoes
EndRedoes
EndUndoRedoHistory
Fore
SplineSet
121 551 m 1
 141 743 l 1
 631 743 l 1
 611 551 l 1
 121 551 l 1
EndSplineSet
EndChar

StartChar: i
Encoding: 105 105 319
Width: 505
VWidth: 0
Flags: W
HStem: 0 21G<67 343.095> 1164 20G<188.905 465> 1370 236<236 486>
VStem: 67 444
AnchorPoint: "ogonek" 196 0 basechar 0
LayerCount: 2
UndoRedoHistory
Layer: 1
Undoes
EndUndoes
Redoes
EndRedoes
EndUndoRedoHistory
Fore
SplineSet
211 1370 m 1
 236 1606 l 1
 511 1606 l 1
 486 1370 l 1
 211 1370 l 1
67 0 m 1
 191 1184 l 1
 465 1184 l 1
 341 0 l 1
 67 0 l 1
EndSplineSet
EndChar

StartChar: infinity
Encoding: 466 8734 327
Width: 1316
VWidth: 0
Flags: W
HStem: 223 222<870.847 1054.23> 670 221<886.47 1067.3> 685 225<285.671 474.861>
LayerCount: 2
UndoRedoHistory
Layer: 1
Undoes
EndUndoes
Redoes
EndRedoes
EndUndoRedoHistory
Fore
SplineSet
971 445 m 1xc0
 1018 444 1076 478 1084 557 c 0
 1092 637 1041 670 994 670 c 1
 948 671 894 643 804 557 c 1
 876 472 924 444 971 445 c 1xc0
348 429 m 0
 398 432 468 468 561 557 c 1
 487 647 427 683 374 685 c 1xa0
 314 689 256 640 247 557 c 0
 238 474 286 425 348 429 c 0
327 205 m 0
 119 205 37 367 57 557 c 0
 77 747 193 910 401 910 c 0xa0
 542 910 629 828 699 739 c 1
 782 821 881 894 1008 891 c 0xc0
 1199 887 1297 748 1277 557 c 0
 1257 366 1130 228 938 223 c 0
 811 220 726 294 661 375 c 1
 573 287 468 205 327 205 c 0
EndSplineSet
EndChar

StartChar: integral
Encoding: 467 8747 328
Width: 689
VWidth: 0
Flags: W
HStem: -389 205<-41.2846 114.838> 1475 205<588.113 742.469>
LayerCount: 2
UndoRedoHistory
Layer: 1
Undoes
EndUndoes
Redoes
EndRedoes
EndUndoRedoHistory
Fore
SplineSet
89 -389 m 0
 34 -389 0 -386 -61 -379 c 1
 -39 -175 l 1
 -19 -178 14 -184 37 -184 c 0
 108 -184 132 -134 140 -57 c 2
 286 1328 l 2
 309 1547 364 1680 614 1680 c 0
 669 1680 704 1676 763 1669 c 1
 742 1465 l 1
 720 1468 691 1475 667 1475 c 0
 596 1475 570 1426 562 1349 c 2
 417 -38 l 2
 394 -257 340 -389 89 -389 c 0
EndSplineSet
EndChar

StartChar: j
Encoding: 106 106 331
Width: 513
VWidth: 0
Flags: W
HStem: -323 209<-95.1634 57.0603> 1164 20G<206.908 483> 1370 236<253 505>
VStem: -113 643
LayerCount: 2
UndoRedoHistory
Layer: 1
Undoes
EndUndoes
Redoes
EndRedoes
EndUndoRedoHistory
Fore
SplineSet
228 1370 m 1
 253 1606 l 1
 530 1606 l 1
 505 1370 l 1
 228 1370 l 1
-113 -304 m 1
 -93 -107 l 1
 -77 -111 -51 -114 -34 -114 c 0
 40 -114 78 -70 86 8 c 2
 209 1184 l 1
 483 1184 l 1
 357 -23 l 2
 337 -208 216 -323 27 -323 c 0
 -22 -323 -75 -317 -113 -304 c 1
EndSplineSet
EndChar

StartChar: k
Encoding: 107 107 333
Width: 975
VWidth: 0
Flags: W
HStem: 0 21G<629.897 921> 1164 20G<754 1035.71> 1640 20G<232.901 508>
LayerCount: 2
UndoRedoHistory
Layer: 1
Undoes
EndUndoes
Redoes
EndRedoes
EndUndoRedoHistory
Fore
SplineSet
61 2 m 1
 235 1660 l 1
 508 1660 l 1
 408 708 l 1
 754 1183 l 1
 1050 1184 l 1
 712 711 l 1
 921 0 l 1
 635 0 l 1
 486 584 l 1
 381 454 l 1
 334 2 l 1
 61 2 l 1
EndSplineSet
EndChar

StartChar: kgreenlandic
Encoding: 472 312 335
Width: 945
VWidth: 0
Flags: W
HStem: 0 21G<62 338.145 606.48 892> 1164 20G<183.905 460 717.094 1014>
LayerCount: 2
UndoRedoHistory
Layer: 1
Undoes
EndUndoes
Redoes
EndRedoes
EndUndoRedoHistory
Fore
SplineSet
62 0 m 1
 186 1184 l 1
 460 1184 l 1
 408 685 l 1
 730 1184 l 1
 1014 1184 l 1
 708 705 l 1
 892 0 l 1
 611 0 l 1
 484 562 l 1
 382 429 l 1
 336 0 l 1
 62 0 l 1
EndSplineSet
EndChar

StartChar: l
Encoding: 108 108 336
Width: 514
VWidth: 0
Flags: W
HStem: 0 21G<75 352.099> 1638 20G<246.901 524>
VStem: 75 449
LayerCount: 2
UndoRedoHistory
Layer: 1
Undoes
EndUndoes
Redoes
EndRedoes
EndUndoRedoHistory
Fore
SplineSet
75 0 m 1
 249 1658 l 1
 524 1658 l 1
 350 0 l 1
 75 0 l 1
EndSplineSet
EndChar

StartChar: less
Encoding: 60 60 341
Width: 787
VWidth: 0
Flags: W
VStem: 68 678
LayerCount: 2
UndoRedoHistory
Layer: 1
Undoes
EndUndoes
Redoes
EndRedoes
EndUndoRedoHistory
Fore
SplineSet
631 114 m 1
 68 538 l 1
 94 785 l 1
 746 1210 l 1
 719 952 l 1
 282 663 l 1
 658 371 l 1
 631 114 l 1
EndSplineSet
EndChar

StartChar: lessequal
Encoding: 477 8804 342
Width: 813
VWidth: 0
Flags: W
HStem: 0 168<34 660>
LayerCount: 2
UndoRedoHistory
Layer: 1
Undoes
EndUndoes
Redoes
EndRedoes
EndUndoRedoHistory
Fore
SplineSet
16 0 m 1
 34 168 l 1
 678 168 l 1
 660 0 l 1
 16 0 l 1
673 260 m 1
 110 684 l 1
 136 931 l 1
 788 1356 l 1
 761 1098 l 1
 324 809 l 1
 700 517 l 1
 673 260 l 1
EndSplineSet
EndChar

StartChar: logicalnot
Encoding: 172 172 343
Width: 887
VWidth: 0
Flags: W
HStem: 743 196<136 708>
LayerCount: 2
UndoRedoHistory
Layer: 1
Undoes
EndUndoes
Redoes
EndRedoes
EndUndoRedoHistory
Fore
SplineSet
681 478 m 1
 708 743 l 1
 115 743 l 1
 136 939 l 1
 866 939 l 1
 817 478 l 1
 681 478 l 1
EndSplineSet
EndChar

StartChar: lozenge
Encoding: 478 9674 344
Width: 983
VWidth: 0
Flags: W
HStem: 0 21G<377.747 514.266> 1165 20G<488.845 625.405>
LayerCount: 2
UndoRedoHistory
Layer: 1
Undoes
EndUndoes
Redoes
EndRedoes
EndUndoRedoHistory
Fore
SplineSet
462 181 m 1
 740 593 l 1
 540 990 l 1
 267 593 l 1
 462 181 l 1
388 0 m 1
 84 593 l 1
 503 1185 l 1
 615 1185 l 1
 923 593 l 1
 500 0 l 1
 388 0 l 1
EndSplineSet
EndChar

StartChar: lslash
Encoding: 479 322 345
Width: 603
VWidth: 0
Flags: W
HStem: 0 21G<122 398.1> 1638 20G<293.918 570>
VStem: 65 596
LayerCount: 2
UndoRedoHistory
Layer: 1
Undoes
EndUndoes
Redoes
EndRedoes
EndUndoRedoHistory
Fore
SplineSet
122 0 m 1
 211 840 l 1
 65 776 l 1
 84 962 l 1
 230 1024 l 1
 296 1658 l 1
 570 1658 l 1
 517 1147 l 1
 661 1208 l 1
 642 1024 l 1
 497 962 l 1
 396 0 l 1
 122 0 l 1
EndSplineSet
EndChar

StartChar: m
Encoding: 109 109 346
Width: 1440
VWidth: 0
Flags: W
HStem: 0 21G<58 333.1 537 811.108 1016 1291.11> 996 206<541.5 795 1021 1297> 1164 20G<179.905 455>
LayerCount: 2
UndoRedoHistory
Layer: 1
Undoes
EndUndoes
Redoes
EndRedoes
EndUndoRedoHistory
Fore
SplineSet
58 0 m 1xc0
 182 1184 l 1
 455 1184 l 1xa0
 445 1077 l 1
 533 1152 634 1202 745 1202 c 0
 845 1202 891 1140 906 1061 c 1
 1000 1145 1106 1202 1224 1202 c 0
 1370 1202 1402 1072 1389 948 c 2
 1289 0 l 1
 1016 0 l 1
 1108 885 l 1
 1116 952 1108 996 1040 996 c 1
 1002 995 953 972 908 942 c 0
 908 941 908 931 907 930 c 2
 809 0 l 1
 537 0 l 1
 629 885 l 2
 636 952 628 996 560 996 c 1
 523 995 476 973 430 943 c 1
 331 0 l 1
 58 0 l 1xc0
EndSplineSet
EndChar

StartChar: macron
Encoding: 175 175 347
Width: 503
VWidth: 0
Flags: W
HStem: 1511 147<167 598>
VStem: 152 462
LayerCount: 2
UndoRedoHistory
Layer: 1
Undoes
EndUndoes
Redoes
EndRedoes
EndUndoRedoHistory
Fore
SplineSet
152 1511 m 1
 167 1658 l 1
 614 1658 l 1
 598 1511 l 1
 152 1511 l 1
EndSplineSet
EndChar

StartChar: minus
Encoding: 480 8722 348
Width: 871
VWidth: 0
Flags: W
HStem: 730 168<158 784>
VStem: 140 662
LayerCount: 2
UndoRedoHistory
Layer: 1
Undoes
EndUndoes
Redoes
EndRedoes
EndUndoRedoHistory
Fore
SplineSet
140 730 m 1
 158 898 l 1
 802 898 l 1
 784 730 l 1
 140 730 l 1
EndSplineSet
EndChar

StartChar: mu
Encoding: 181 181 349
Width: 951
VWidth: 0
Flags: W
HStem: -369 21G<9 286.099> 0 21G<522 798.095> 1164 20G<167.927 444 643.9 920>
LayerCount: 2
UndoRedoHistory
Layer: 1
Undoes
EndUndoes
Redoes
EndRedoes
EndUndoRedoHistory
Fore
SplineSet
9 -369 m 1
 170 1184 l 1
 444 1184 l 1
 351 299 l 2
 344 232 353 188 420 188 c 1
 457 189 502 211 547 241 c 1
 646 1184 l 1
 920 1184 l 1
 796 0 l 1
 522 0 l 1
 533 106 l 1
 477 59 416 21 349 1 c 0
 340 -2 330 -5 322 -7 c 1
 284 -369 l 1
 9 -369 l 1
EndSplineSet
EndChar

StartChar: multiply
Encoding: 215 215 350
Width: 874
VWidth: 0
Flags: W
HStem: 499 662
LayerCount: 2
UndoRedoHistory
Layer: 1
Undoes
EndUndoes
Redoes
EndRedoes
EndUndoRedoHistory
Fore
SplineSet
241 499 m 1
 123 630 l 1
 343 830 l 1
 165 1029 l 1
 310 1161 l 1
 488 962 l 1
 709 1161 l 1
 826 1029 l 1
 605 830 l 1
 784 630 l 1
 640 499 l 1
 460 698 l 1
 241 499 l 1
EndSplineSet
EndChar

StartChar: n
Encoding: 110 110 351
Width: 963
VWidth: 0
Flags: W
HStem: 0 21G<58 334.106 539 815.089> 996 206<544.5 820> 1164 20G<179.905 456>
LayerCount: 2
UndoRedoHistory
Layer: 1
Undoes
EndUndoes
Redoes
EndRedoes
EndUndoRedoHistory
Fore
SplineSet
58 0 m 1xc0
 182 1184 l 1
 456 1184 l 1xa0
 444 1068 l 1
 535 1145 635 1202 747 1202 c 0
 893 1202 926 1072 912 948 c 1
 813 0 l 1
 539 0 l 1
 631 885 l 2
 638 952 631 996 564 996 c 1
 525 995 477 972 431 940 c 1
 332 0 l 1
 58 0 l 1xc0
EndSplineSet
EndChar

StartChar: nine
Encoding: 57 57 356
Width: 1055
VWidth: 0
Flags: W
HStem: -20 220<391.907 589.869> 639 210<464.132 634.433> 1460 217<527.872 718.992>
LayerCount: 2
UndoRedoHistory
Layer: 1
Undoes
EndUndoes
Redoes
EndRedoes
EndUndoRedoHistory
Fore
SplineSet
564 849 m 0
 641 849 692 900 723 948 c 1
 749 1197 l 2
 763 1328 749 1460 627 1460 c 0
 505 1460 465 1328 447 1170 c 1
 430 1001 414 849 564 849 c 0
471 -20 m 0
 187 -20 73 132 97 401 c 0
 98 405 99 417 100 420 c 1
 370 420 l 1
 355 281 372 200 495 200 c 0
 604 200 655 302 681 546 c 2
 702 747 l 1
 656 680 574 640 467 639 c 0
 196 636 134 850 162 1121 c 0
 195 1439 337 1677 650 1677 c 0
 954 1677 1056 1440 1024 1136 c 2
 965 573 l 2
 931 248 810 -20 471 -20 c 0
EndSplineSet
EndChar

StartChar: notequal
Encoding: 485 8800 357
Width: 884
VWidth: 0
Flags: W
HStem: 0 21G<65 268.706> 545 188<152 275 543 773> 921 188<192 420 689 812> 1638 20G<697.277 901>
LayerCount: 2
UndoRedoHistory
Layer: 1
Undoes
EndUndoes
Redoes
EndRedoes
EndUndoRedoHistory
Fore
SplineSet
65 0 m 1
 275 545 l 1
 133 545 l 1
 152 733 l 1
 348 733 l 1
 420 921 l 1
 172 921 l 1
 192 1109 l 1
 493 1109 l 1
 705 1658 l 1
 901 1658 l 1
 689 1109 l 1
 832 1109 l 1
 812 921 l 1
 616 921 l 1
 543 733 l 1
 793 733 l 1
 773 545 l 1
 471 545 l 1
 261 0 l 1
 65 0 l 1
EndSplineSet
EndChar

StartChar: numbersign
Encoding: 35 35 359
Width: 1039
VWidth: 0
Flags: W
HStem: 0 21G<41 274.749 440 674.749> 577 189<106 177 453 577 854 973> 965 191<149 271 551 672 950 1017> 1638 20G<435.219 670 836.219 1070>
LayerCount: 2
UndoRedoHistory
Layer: 1
Undoes
EndUndoes
Redoes
EndRedoes
EndUndoRedoHistory
Fore
SplineSet
453 766 m 1
 625 766 l 1
 672 965 l 1
 501 965 l 1
 453 766 l 1
41 0 m 1
 177 577 l 1
 83 577 l 1
 106 766 l 1
 225 766 l 1
 271 965 l 1
 128 965 l 1
 149 1156 l 1
 320 1156 l 1
 440 1658 l 1
 670 1658 l 1
 551 1156 l 1
 721 1156 l 1
 841 1658 l 1
 1070 1658 l 1
 950 1156 l 1
 1039 1156 l 1
 1017 965 l 1
 902 965 l 1
 854 766 l 1
 995 766 l 1
 973 577 l 1
 807 577 l 1
 670 0 l 1
 440 0 l 1
 577 577 l 1
 407 577 l 1
 270 0 l 1
 41 0 l 1
EndSplineSet
EndChar

StartChar: o
Encoding: 111 111 360
Width: 923
VWidth: 0
Flags: W
HStem: -18 194<357.73 512.308> 1008 194<433.608 588.001>
AnchorPoint: "ogonek" 421 0 basechar 0
LayerCount: 2
UndoRedoHistory
Layer: 1
Undoes
EndUndoes
Redoes
EndRedoes
EndUndoRedoHistory
Fore
SplineSet
408 -18 m 0
 147 -18 50 139 77 399 c 2
 117 785 l 1
 145 1044 275 1202 537 1202 c 0
 798 1202 898 1045 870 785 c 1
 830 399 l 1
 802 139 670 -18 408 -18 c 0
429 176 m 0
 528 176 544 273 554 380 c 1
 599 803 l 2
 610 909 615 1008 517 1008 c 0
 419 1008 403 908 392 803 c 2
 347 380 l 2
 336 274 332 176 429 176 c 0
EndSplineSet
EndChar

StartChar: oe
Encoding: 487 339 365
Width: 1431
VWidth: 0
Flags: W
HStem: -20 200<379.741 530.873> 583 142<891 1091> 1014 198<454.959 611.501 946.792 1085.19>
LayerCount: 2
UndoRedoHistory
Layer: 1
Undoes
EndUndoes
Redoes
EndRedoes
EndUndoRedoHistory
Fore
SplineSet
891 725 m 1
 1091 725 l 1
 1099 803 l 2
 1109 903 1107 1014 1021 1014 c 0
 936 1014 909 904 899 803 c 2
 891 725 l 1
448 180 m 0
 541 180 562 268 575 388 c 2
 620 814 l 2
 631 922 630 1014 537 1014 c 0
 445 1014 425 923 414 814 c 2
 369 389 l 2
 357 279 354 180 448 180 c 0
406 -20 m 0
 166 -20 69 131 97 392 c 1
 140 808 l 2
 166 1063 293 1212 544 1212 c 0
 660 1212 752 1159 784 1072 c 1
 833 1159 943 1212 1057 1212 c 0
 1339 1212 1388 1030 1357 738 c 2
 1341 583 l 1
 876 583 l 1
 864 468 l 2
 852 349 829 187 933 180 c 1
 1009 176 1036 222 1047 325 c 2
 1059 434 l 1
 1326 434 l 1
 1314 326 l 2
 1289 92 1160 -27 922 -21 c 0
 793 -17 712 35 681 119 c 1
 630 38 542 -20 406 -20 c 0
EndSplineSet
EndChar

StartChar: ogonek
Encoding: 488 731 366
Width: 513
VWidth: 0
Flags: W
HStem: -490 136<112.207 262>
VStem: -99 414
AnchorPoint: "ogonek" 271 0 mark 0
LayerCount: 2
UndoRedoHistory
Layer: 1
Undoes
EndUndoes
Redoes
EndRedoes
EndUndoRedoHistory
Fore
SplineSet
262 -490 m 1
 67 -492 -119 -486 -99 -296 c 0
 -86 -168 35 -36 141 12 c 1
 273 12 l 1
 220 -65 113 -175 103 -275 c 0
 92 -377 243 -354 315 -354 c 1
 262 -490 l 1
EndSplineSet
EndChar

StartChar: one
Encoding: 49 49 370
Width: 1055
VWidth: 0
Flags: W
HStem: 0 21G<403 683.099> 1638 20G<600 855>
VStem: 265 590
LayerCount: 2
UndoRedoHistory
Layer: 1
Undoes
EndUndoes
Redoes
EndRedoes
EndUndoRedoHistory
Fore
SplineSet
403 0 m 1
 543 1339 l 1
 265 1270 l 1
 287 1479 l 1
 373 1505 558 1567 642 1658 c 1
 855 1658 l 1
 681 0 l 1
 403 0 l 1
EndSplineSet
EndChar

StartChar: onehalf
Encoding: 189 189 371
Width: 1565
VWidth: 0
Flags: W
HStem: 2 130<1117 1384> 717 131<1166.47 1273.28> 1638 20G<413 523 1058.39 1254>
VStem: 971 178<586 704.911>
LayerCount: 2
UndoRedoHistory
Layer: 1
Undoes
EndUndoes
Redoes
EndRedoes
EndUndoRedoHistory
Fore
SplineSet
271 0 m 1
 1068 1658 l 1
 1254 1658 l 1
 456 0 l 1
 271 0 l 1
251 829 m 1
 308 1374 l 1
 186 1352 l 1
 200 1485 l 1
 303 1535 382 1589 444 1658 c 1
 523 1658 l 1
 436 829 l 1
 251 829 l 1
915 2 m 1
 929 132 l 1
 1138 383 l 2
 1195 450 1266 521 1276 613 c 0
 1281 667 1280 717 1224 717 c 0
 1166 717 1151 653 1149 586 c 1
 971 586 l 1
 971 607 972 615 973 621 c 0
 991 761 1085 848 1236 848 c 0
 1390 848 1470 762 1455 614 c 1
 1441 492 1351 388 1256 284 c 1
 1221 249 1142 162 1117 132 c 1
 1398 132 l 1
 1384 2 l 1
 915 2 l 1
EndSplineSet
EndChar

StartChar: onequarter
Encoding: 188 188 372
Width: 1565
VWidth: 0
Flags: W
HStem: 0 21G<283 477.626 1118 1294.14> 235 132<1004 1142 1331 1431> 1638 20G<433.5 543 1070.39 1266>
LayerCount: 2
UndoRedoHistory
Layer: 1
Undoes
EndUndoes
Redoes
EndRedoes
EndUndoRedoHistory
Fore
SplineSet
1004 367 m 1
 1157 367 l 1
 1186 644 l 1
 1004 367 l 1
283 0 m 1
 1080 1658 l 1
 1266 1658 l 1
 468 0 l 1
 283 0 l 1
271 829 m 1
 328 1374 l 1
 206 1352 l 1
 220 1485 l 1
 323 1535 402 1589 465 1658 c 1
 543 1658 l 1
 456 829 l 1
 271 829 l 1
1118 1 m 1
 1142 235 l 1
 856 235 l 1
 870 363 l 1
 1228 877 l 1
 1384 877 l 1
 1331 367 l 1
 1445 367 l 1
 1431 235 l 1
 1317 235 l 1
 1292 1 l 1
 1118 1 l 1
EndSplineSet
EndChar

StartChar: onesuperior
Encoding: 185 185 373
Width: 840
VWidth: 0
Flags: W
VStem: 287 423
LayerCount: 2
UndoRedoHistory
Layer: 1
Undoes
EndUndoes
Redoes
EndRedoes
EndUndoRedoHistory
Fore
SplineSet
390 673 m 1
 485 1580 l 1
 465 1556 311 1509 287 1504 c 1
 303 1657 l 1
 351 1676 488 1725 545 1795 c 1
 710 1795 l 1
 592 673 l 1
 390 673 l 1
EndSplineSet
EndChar

StartChar: ordfeminine
Encoding: 170 170 374
Width: 950
VWidth: 0
Flags: W
HStem: 645 188<342.364 524.31> 1494 189<531.091 655.107>
VStem: 266 229<1329 1461.33>
LayerCount: 2
UndoRedoHistory
Layer: 1
Undoes
EndUndoes
Redoes
EndRedoes
EndUndoRedoHistory
Fore
SplineSet
498 833 m 0
 543 833 588 869 612 908 c 1
 637 1146 l 1
 540 1098 440 1027 431 933 c 1
 424 872 450 833 498 833 c 0
387 645 m 0
 249 646 172 752 185 880 c 0
 212 1132 471 1188 648 1247 c 1
 660 1358 l 1
 666 1427 661 1494 601 1494 c 0
 532 1494 510 1424 495 1326 c 1
 266 1329 l 1
 292 1551 426 1683 633 1683 c 0
 865 1683 921 1538 897 1308 c 2
 829 659 l 1
 609 659 l 1
 617 793 l 1
 572 711 489 645 387 645 c 0
EndSplineSet
EndChar

StartChar: ordmasculine
Encoding: 186 186 375
Width: 950
VWidth: 0
Flags: W
HStem: 643 186<435.899 592.111> 1497 187<492.217 653.753>
LayerCount: 2
UndoRedoHistory
Layer: 1
Undoes
EndUndoes
Redoes
EndRedoes
EndUndoRedoHistory
Fore
SplineSet
492 643 m 0
 260 643 171 778 195 1010 c 2
 228 1317 l 2
 252 1549 370 1684 601 1684 c 0
 824 1684 923 1541 899 1317 c 2
 867 1010 l 2
 843 786 715 643 492 643 c 0
509 829 m 0
 606 829 623 919 635 1028 c 2
 663 1298 l 2
 674 1409 678 1497 579 1497 c 0
 482 1497 463 1407 452 1298 c 2
 423 1028 l 2
 412 920 412 829 509 829 c 0
EndSplineSet
EndChar

StartChar: oslash
Encoding: 248 248 376
Width: 919
VWidth: 0
Flags: W
HStem: -18 194<354.435 512.308> 1008 194<433.608 591.723>
LayerCount: 2
UndoRedoHistory
Layer: 1
Undoes
EndUndoes
Redoes
EndRedoes
EndUndoRedoHistory
Fore
SplineSet
123 -197 m 1
 54 -171 l 1
 163.772978609 60.3286546494 l 1
 87.5793335002 131.223959693 61.2843390914 247.664006066 77 399 c 2
 117 785 l 1
 145 1044 275 1202 537 1202 c 0
 597.847883867 1202 649.945208284 1193.46684575 693.710120125 1177.0847776 c 1
 790 1380 l 1
 867 1351 l 1
 764.794221585 1138.34604169 l 1
 855.083933703 1069.4494833 887.477379974 947.289956899 870 785 c 2
 830 399 l 1
 802 139 670 -18 408 -18 c 0
 334.819330235 -18 274.531708283 -5.65726520347 226.255420403 17.8378908392 c 1
 123 -197 l 1
429 176 m 0
 528 176 544 273 554 380 c 1
 597.6866461 790.654473336 l 1
 343.296329179 261.358491357 l 1
 349.258955239 210.801426815 371.196089312 176 429 176 c 0
356.111860491 465.651488616 m 1
 592.530258977 963.864716947 l 1
 580.355452644 991.131310182 557.452852844 1008 517 1008 c 0
 419 1008 403 908 392 803 c 2
 356.111860491 465.651488616 l 1
EndSplineSet
EndChar

StartChar: p
Encoding: 112 112 378
Width: 970
VWidth: 0
Flags: W
HStem: -390 21G<17 293.092> -18 198<411.591 656.899> 1009 193<535.916 631.663> 1164 20G<179.903 456>
LayerCount: 2
UndoRedoHistory
Layer: 1
Undoes
EndUndoes
Redoes
EndRedoes
EndUndoRedoHistory
Fore
SplineSet
477 180 m 1xe0
 567 180 589 290 601 413 c 1
 643 807 l 2
 654 911 647 1011 558 1009 c 0
 514 1008 471 987 433 962 c 1
 354 219 l 1
 387 197 427 181 477 180 c 1xe0
17 -390 m 1
 182 1184 l 1
 456 1184 l 1xd0
 447 1093 l 1
 518 1158 602 1203 695 1202 c 0
 919 1200 931 941 916 797 c 2
 877 420 l 2
 853 189 759 -18 548 -18 c 0
 466 -18 396 27 341 88 c 1
 291 -390 l 1
 17 -390 l 1
EndSplineSet
EndChar

StartChar: paragraph
Encoding: 182 182 379
Width: 1033
VWidth: 0
Flags: W
HStem: 1518 140<686 838>
LayerCount: 2
UndoRedoHistory
Layer: 1
Undoes
EndUndoes
Redoes
EndRedoes
EndUndoRedoHistory
Fore
SplineSet
327 -196 m 1
 456 1031 l 1
 264 1033 139 1142 161 1343 c 0
 185 1572 357 1658 579 1658 c 2
 1026 1658 l 1
 831 -196 l 1
 657 -196 l 1
 838 1518 l 1
 686 1518 l 1
 506 -196 l 1
 327 -196 l 1
EndSplineSet
EndChar

StartChar: parenleft
Encoding: 40 40 380
Width: 648
VWidth: 0
Flags: W
HStem: 1488 187<602.83 690>
LayerCount: 2
UndoRedoHistory
Layer: 1
Undoes
EndUndoes
Redoes
EndRedoes
EndUndoRedoHistory
Fore
SplineSet
492 -396 m 1
 68 -397 103 130 156 635 c 0
 211 1156 286 1676 710 1675 c 1
 690 1488 l 1
 513 1488 461 1082 414 635 c 0
 367 183 338 -209 512 -209 c 1
 492 -396 l 1
EndSplineSet
EndChar

StartChar: parenright
Encoding: 41 41 381
Width: 585
VWidth: 0
Flags: W
HStem: -396 188<-7 78.5066>
LayerCount: 2
UndoRedoHistory
Layer: 1
Undoes
EndUndoes
Redoes
EndRedoes
EndUndoRedoHistory
Fore
SplineSet
-27 -396 m 1
 -7 -208 l 1
 166 -208 220 189 268 638 c 1
 315 1089 348 1488 171 1488 c 1
 190 1675 l 1
 615 1676 580 1158 526 638 c 0
 473 132 397 -397 -27 -396 c 1
EndSplineSet
EndChar

StartChar: partialdiff
Encoding: 491 8706 382
Width: 1028
VWidth: 0
Flags: W
HStem: -26 191<337.74 566.333> 932 190<457.404 696.838> 1497 181<487 614.73>
LayerCount: 2
UndoRedoHistory
Layer: 1
Undoes
EndUndoes
Redoes
EndRedoes
EndUndoRedoHistory
Fore
SplineSet
443 165 m 0
 529 165 600 188 645 394 c 2
 748 874 l 1
 681 914 622 932 572 932 c 0
 478 932 417 869 397 768 c 2
 313 346 l 2
 311 338 311 328 310 321 c 0
 300 232 341 165 443 165 c 0
413 -26 m 0
 219 -26 32 80 58 328 c 0
 60 343 61 359 65 375 c 2
 145 790 l 2
 183 991 328 1122 519 1122 c 0
 648 1122 743 1057 787 1014 c 1
 796 1050 801 1084 805 1115 c 0
 831 1366 673 1474 413 1497 c 1
 487 1678 l 1
 717 1678 1082 1595 1025 1055 c 0
 1022 1023 924 517 924 517 c 1
 827 13 621 -26 413 -26 c 0
EndSplineSet
EndChar

StartChar: percent
Encoding: 37 37 383
Width: 1971
VWidth: 0
Flags: W
HStem: -7 192<1421.25 1593.79> 717 194<1463.11 1647.24> 747 192<406.276 579.307> 1471 194<448.012 632.19>
LayerCount: 2
UndoRedoHistory
Layer: 1
Undoes
EndUndoes
Redoes
EndRedoes
EndUndoRedoHistory
Fore
SplineSet
605 0 m 1x90
 1243 1658 l 1
 1441 1658 l 1
 803 0 l 1
 605 0 l 1x90
1481 -7 m 0
 1225 -7 1139 144 1166 410 c 1
 1176 500 l 1
 1205 773 1315 911 1578 911 c 0xd0
 1839 911 1924 779 1895 509 c 2
 1884 405 l 2
 1856 137 1739 -7 1481 -7 c 0
1502 185 m 0
 1609 185 1632 284 1645 410 c 2
 1655 504 l 2
 1669 634 1668 717 1558 717 c 0
 1447 717 1429 631 1416 503 c 2
 1406 409 l 2
 1393 283 1397 185 1502 185 c 0
467 747 m 0xb0
 210 747 124 898 152 1164 c 1
 162 1254 l 1
 190 1527 300 1665 563 1665 c 0
 824 1665 909 1533 881 1263 c 2
 870 1159 l 2
 842 891 724 747 467 747 c 0xb0
487 939 m 0
 594 939 618 1038 631 1164 c 2
 641 1258 l 2
 654 1388 653 1471 542 1471 c 0
 432 1471 414 1385 401 1257 c 2
 391 1163 l 2
 377 1037 381 939 487 939 c 0
EndSplineSet
EndChar

StartChar: period
Encoding: 46 46 384
Width: 432
VWidth: 0
Flags: W
HStem: 0 274<73 311>
VStem: 44 296
LayerCount: 2
UndoRedoHistory
Layer: 1
Undoes
EndUndoes
Redoes
EndRedoes
EndUndoRedoHistory
Fore
SplineSet
44 0 m 1
 73 274 l 1
 340 274 l 1
 311 0 l 1
 44 0 l 1
EndSplineSet
EndChar

StartChar: periodcentered
Encoding: 183 183 385
Width: 394
VWidth: 0
Flags: W
HStem: 638 265<109 349>
VStem: 82 294
LayerCount: 2
UndoRedoHistory
Layer: 1
Undoes
EndUndoes
Redoes
EndRedoes
EndUndoRedoHistory
Fore
SplineSet
82 638 m 1
 109 903 l 1
 376 903 l 1
 349 638 l 1
 82 638 l 1
EndSplineSet
EndChar

StartChar: perthousand
Encoding: 492 8240 386
Width: 2799
VWidth: 0
Flags: W
HStem: -7 192<1421.25 1593.79 2246.64 2419.31> 717 194<1463.11 1647.24 2288.64 2472.28> 747 192<406.276 579.307> 1471 194<448.012 632.19>
LayerCount: 2
UndoRedoHistory
Layer: 1
Undoes
EndUndoes
Redoes
EndRedoes
EndUndoRedoHistory
Fore
SplineSet
605 0 m 1x90
 1243 1658 l 1
 1441 1658 l 1
 803 0 l 1
 605 0 l 1x90
2307 -7 m 0
 2050 -7 1964 144 1992 410 c 1
 2001 500 l 1
 2030 773 2141 911 2403 911 c 0xd0
 2664 911 2749 779 2720 509 c 2
 2709 405 l 2
 2681 137 2564 -7 2307 -7 c 0
2327 185 m 0
 2435 185 2457 284 2470 410 c 1
 2481 504 l 1
 2494 634 2493 717 2383 717 c 0
 2273 717 2255 631 2241 503 c 2
 2231 409 l 2
 2218 283 2222 185 2327 185 c 0
1481 -7 m 0
 1225 -7 1139 144 1166 410 c 1
 1176 500 l 1
 1205 773 1315 911 1578 911 c 0
 1839 911 1924 779 1895 509 c 2
 1884 405 l 2
 1856 137 1739 -7 1481 -7 c 0
1502 185 m 0
 1609 185 1632 284 1645 410 c 2
 1655 504 l 2
 1669 634 1668 717 1558 717 c 0
 1447 717 1429 631 1416 503 c 2
 1406 409 l 2
 1393 283 1397 185 1502 185 c 0
467 747 m 0xb0
 210 747 124 898 152 1164 c 1
 162 1254 l 1
 190 1527 300 1665 563 1665 c 0
 824 1665 909 1533 881 1263 c 2
 870 1159 l 2
 842 891 724 747 467 747 c 0xb0
487 939 m 0
 594 939 618 1038 631 1164 c 2
 641 1258 l 2
 654 1388 653 1471 542 1471 c 0
 432 1471 414 1385 401 1257 c 2
 391 1163 l 2
 377 1037 381 939 487 939 c 0
EndSplineSet
EndChar

StartChar: pi
Encoding: 493 960 387
Width: 1149
VWidth: 0
Flags: W
HStem: 0 21G<120 396.101 837 1000.47> 990 194<111 224 498 698 972 1128>
LayerCount: 2
UndoRedoHistory
Layer: 1
Undoes
EndUndoes
Redoes
EndRedoes
EndUndoRedoHistory
Fore
SplineSet
120 0 m 1
 224 990 l 1
 92 990 l 1
 111 1184 l 1
 1148 1184 l 1
 1128 990 l 1
 972 990 l 1
 909 390 l 2
 890 215 911 182 1032 182 c 1
 997 -20 l 1
 677 -20 603 81 624 288 c 2
 698 990 l 1
 498 990 l 1
 394 0 l 1
 120 0 l 1
EndSplineSet
EndChar

StartChar: plus
Encoding: 43 43 388
Width: 887
VWidth: 0
Flags: W
HStem: 759 185<102 372 586 864>
LayerCount: 2
UndoRedoHistory
Layer: 1
Undoes
EndUndoes
Redoes
EndRedoes
EndUndoRedoHistory
Fore
SplineSet
337 424 m 1
 372 759 l 1
 82 759 l 1
 102 944 l 1
 392 944 l 1
 426 1275 l 1
 620 1275 l 1
 586 944 l 1
 884 944 l 1
 864 759 l 1
 566 759 l 1
 531 424 l 1
 337 424 l 1
EndSplineSet
EndChar

StartChar: plusminus
Encoding: 177 177 389
Width: 853
VWidth: 0
Flags: W
HStem: 0 188<93 679> 575 185<154 342 551 740>
LayerCount: 2
UndoRedoHistory
Layer: 1
Undoes
EndUndoes
Redoes
EndRedoes
EndUndoRedoHistory
Fore
SplineSet
74 0 m 1
 93 188 l 1
 699 188 l 1
 679 0 l 1
 74 0 l 1
320 364 m 1
 342 575 l 1
 134 575 l 1
 154 760 l 1
 362 760 l 1
 383 971 l 1
 573 971 l 1
 551 760 l 1
 759 760 l 1
 740 575 l 1
 532 575 l 1
 510 364 l 1
 320 364 l 1
EndSplineSet
EndChar

StartChar: product
Encoding: 494 8719 390
Width: 1182
VWidth: 0
Flags: W
HStem: -390 21G<27 300.112 701 975.1> 1447 211<492 895>
LayerCount: 2
UndoRedoHistory
Layer: 1
Undoes
EndUndoes
Redoes
EndRedoes
EndUndoRedoHistory
Fore
SplineSet
27 -390 m 1
 242 1658 l 1
 1188 1658 l 1
 973 -390 l 1
 701 -390 l 1
 895 1447 l 1
 492 1447 l 1
 298 -390 l 1
 27 -390 l 1
EndSplineSet
EndChar

StartChar: q
Encoding: 113 113 391
Width: 965
VWidth: 0
Flags: W
HStem: -390 21G<493 769.097> -18 198<366.744 468.58> 1006 196<335.849 593.143> 1164 20G<656.133 932>
LayerCount: 2
UndoRedoHistory
Layer: 1
Undoes
EndUndoes
Redoes
EndRedoes
EndUndoRedoHistory
Fore
SplineSet
442 180 m 0xe0
 472 180 513 191 557 213 c 1
 636 968 l 1
 603 991 567 1006 527 1006 c 0
 444 1006 409 915 399 820 c 2
 354 396 l 2
 342 279 349 180 442 180 c 0xe0
493 -390 m 1
 543 82 l 1
 476 20 403 -18 327 -18 c 0
 135 -19 50 108 83 417 c 1
 117 747 l 2
 142 991 228 1202 450 1202 c 0xe0
 532 1202 599 1163 651 1109 c 1
 658 1184 l 1
 932 1184 l 1xd0
 767 -390 l 1
 493 -390 l 1
EndSplineSet
EndChar

StartChar: question
Encoding: 63 63 392
Width: 999
VWidth: 0
Flags: W
HStem: 0 268<270 513> 1444 238<482.052 695.847>
VStem: 189 257<1192.16 1407.42>
LayerCount: 2
UndoRedoHistory
Layer: 1
Undoes
EndUndoes
Redoes
EndRedoes
EndUndoRedoHistory
Fore
SplineSet
242 0 m 1
 270 268 l 1
 542 268 l 1
 513 0 l 1
 242 0 l 1
297 424 m 1
 324 682 l 1
 519 842 716 1034 736 1268 c 0
 745 1375 687 1444 593 1444 c 0
 495 1444 440 1376 441 1281 c 1
 439 1264 443 1210 446 1195 c 1
 189 1144 l 1
 186 1170 179 1230 181 1254 c 1
 171 1506 335 1682 616 1682 c 0
 896 1682 1033 1525 1005 1258 c 0
 977 992 776 798 564 621 c 1
 544 424 l 1
 297 424 l 1
EndSplineSet
EndChar

StartChar: questiondown
Encoding: 191 191 393
Width: 1066
VWidth: 0
Flags: W
HStem: -379 239<398.153 611.948> 1035 268<580 824>
VStem: 653 260<-94.3172 109.687>
LayerCount: 2
UndoRedoHistory
Layer: 1
Undoes
EndUndoes
Redoes
EndRedoes
EndUndoRedoHistory
Fore
SplineSet
552 1035 m 1
 580 1303 l 1
 852 1303 l 1
 824 1035 l 1
 552 1035 l 1
478 -379 m 0
 198 -379 61 -221 89 45 c 0
 117 311 318 505 530 682 c 1
 551 880 l 1
 798 880 l 1
 770 621 l 1
 575 461 378 269 358 35 c 0
 349 -72 407 -140 501 -140 c 0
 599 -140 654 -73 653 22 c 1
 655 39 651 93 647 108 c 1
 905 159 l 1
 908 133 916 73 913 49 c 1
 923 -203 759 -379 478 -379 c 0
EndSplineSet
EndChar

StartChar: quotedbl
Encoding: 34 34 394
Width: 767
VWidth: 0
Flags: W
HStem: 1105 553<255 334 593 672>
VStem: 197 635
LayerCount: 2
UndoRedoHistory
Layer: 1
Undoes
EndUndoes
Redoes
EndRedoes
EndUndoRedoHistory
Fore
SplineSet
535 1105 m 1
 593 1658 l 1
 832 1658 l 1
 672 1105 l 1
 535 1105 l 1
197 1105 m 1
 255 1658 l 1
 494 1658 l 1
 334 1105 l 1
 197 1105 l 1
EndSplineSet
EndChar

StartChar: quotedblbase
Encoding: 495 8222 395
Width: 974
VWidth: 0
Flags: W
HStem: -254 95<140 206.568 581 647.568> 56 259<159 258 600 699>
LayerCount: 2
UndoRedoHistory
Layer: 1
Undoes
EndUndoes
Redoes
EndRedoes
EndUndoRedoHistory
Fore
SplineSet
581 -254 m 1
 558 -159 l 1
 652 -159 684 -86 699 56 c 1
 573 56 l 1
 600 315 l 1
 872 315 l 1
 869 290 851 120 848 101 c 0
 821 -127 753 -254 581 -254 c 1
140 -254 m 1
 117 -159 l 1
 211 -159 243 -86 258 56 c 1
 132 56 l 1
 159 315 l 1
 431 315 l 1
 428 290 410 120 407 101 c 0
 380 -127 312 -254 140 -254 c 1
EndSplineSet
EndChar

StartChar: quotedblleft
Encoding: 496 8220 396
Width: 970
VWidth: 0
Flags: W
HStem: 1140 259<351 450 792 891> 1614 95<402.432 469 843.432 910>
LayerCount: 2
UndoRedoHistory
Layer: 1
Undoes
EndUndoes
Redoes
EndRedoes
EndUndoRedoHistory
Fore
SplineSet
619 1140 m 1
 622 1165 640 1335 643 1354 c 0
 670 1582 738 1709 910 1709 c 1
 932 1614 l 1
 839 1614 807 1541 792 1399 c 1
 918 1399 l 1
 891 1140 l 1
 619 1140 l 1
178 1140 m 1
 181 1165 199 1335 202 1354 c 0
 229 1582 297 1709 469 1709 c 1
 491 1614 l 1
 398 1614 366 1541 351 1399 c 1
 477 1399 l 1
 450 1140 l 1
 178 1140 l 1
EndSplineSet
EndChar

StartChar: quotedblright
Encoding: 497 8221 397
Width: 970
VWidth: 0
Flags: W
HStem: 1088 95<278 344.571 679 745.571> 1399 258<297 396 698 796>
LayerCount: 2
UndoRedoHistory
Layer: 1
Undoes
EndUndoes
Redoes
EndRedoes
EndUndoRedoHistory
Fore
SplineSet
679 1088 m 1
 656 1183 l 1
 750 1183 782 1257 796 1399 c 1
 671 1399 l 1
 698 1657 l 1
 969 1657 l 1
 967 1633 949 1463 947 1444 c 0
 919 1216 851 1088 679 1088 c 1
278 1088 m 1
 256 1183 l 1
 349 1183 381 1257 396 1399 c 1
 270 1399 l 1
 297 1657 l 1
 569 1657 l 1
 566 1633 549 1463 546 1444 c 0
 518 1216 450 1088 278 1088 c 1
EndSplineSet
EndChar

StartChar: quoteleft
Encoding: 498 8216 398
Width: 755
VWidth: 0
Flags: W
HStem: 1614 95<402.432 469>
VStem: 178 313
LayerCount: 2
UndoRedoHistory
Layer: 1
Undoes
EndUndoes
Redoes
EndRedoes
EndUndoRedoHistory
Fore
SplineSet
178 1140 m 1
 181 1165 199 1335 202 1354 c 0
 229 1582 297 1709 469 1709 c 1
 491 1614 l 1
 398 1614 366 1541 351 1399 c 1
 477 1399 l 1
 450 1140 l 1
 178 1140 l 1
EndSplineSet
EndChar

StartChar: quoteright
Encoding: 499 8217 399
Width: 455
VWidth: 0
Flags: W
HStem: 1089 95<231 297.151> 1638 20G<246.838 520>
VStem: 207 313
LayerCount: 2
UndoRedoHistory
Layer: 1
Undoes
EndUndoes
Redoes
EndRedoes
EndUndoRedoHistory
Fore
SplineSet
231 1089 m 1
 207 1184 l 1
 301 1184 332 1257 347 1399 c 1
 221 1399 l 1
 249 1658 l 1
 520 1658 l 1
 518 1633 500 1464 497 1445 c 0
 469 1216 402 1089 231 1089 c 1
EndSplineSet
EndChar

StartChar: quotesinglbase
Encoding: 500 8218 400
Width: 572
VWidth: 0
Flags: W
HStem: -256 95<146 212.568>
VStem: 123 314
LayerCount: 2
UndoRedoHistory
Layer: 1
Undoes
EndUndoes
Redoes
EndRedoes
EndUndoRedoHistory
Fore
SplineSet
146 -256 m 1
 123 -161 l 1
 216 -161 249 -88 264 54 c 1
 138 54 l 1
 165 313 l 1
 437 313 l 1
 434 288 416 118 413 99 c 0
 386 -129 318 -256 146 -256 c 1
EndSplineSet
EndChar

StartChar: quotesingle
Encoding: 39 39 401
Width: 670
VWidth: 0
Flags: W
HStem: 1105 553<267 350>
VStem: 209 292
LayerCount: 2
UndoRedoHistory
Layer: 1
Undoes
EndUndoes
Redoes
EndRedoes
EndUndoRedoHistory
Fore
SplineSet
209 1105 m 1
 267 1658 l 1
 501 1658 l 1
 350 1105 l 1
 209 1105 l 1
EndSplineSet
EndChar

StartChar: r
Encoding: 114 114 402
Width: 705
VWidth: 0
Flags: W
HStem: 0 21G<62 338.103> 938 261<580.668 726.821> 1164 20G<183.905 460>
LayerCount: 2
UndoRedoHistory
Layer: 1
Undoes
EndUndoes
Redoes
EndRedoes
EndUndoRedoHistory
Fore
SplineSet
62 0 m 1xc0
 186 1184 l 1
 460 1184 l 1xa0
 442 1004 l 1
 539 1148 624 1199 712 1199 c 0
 725 1199 737 1198 754 1194 c 1
 724 920 l 1
 698 930 660 938 625 938 c 0
 550 936 490 908 422 818 c 1
 336 0 l 1
 62 0 l 1xc0
EndSplineSet
EndChar

StartChar: radical
Encoding: 502 8730 404
Width: 1109
VWidth: 0
Flags: W
HStem: 0 21G<407.018 711.068> 1017 167<89 308> 1638 20G<931.564 1208>
LayerCount: 2
UndoRedoHistory
Layer: 1
Undoes
EndUndoes
Redoes
EndRedoes
EndUndoRedoHistory
Fore
SplineSet
409 0 m 1
 308 1019 l 1
 72 1017 l 1
 89 1184 l 1
 549 1184 l 1
 580 797 l 1
 599 387 l 1
 703 797 l 1
 937 1658 l 1
 1208 1658 l 1
 705 0 l 1
 409 0 l 1
EndSplineSet
EndChar

StartChar: registered
Encoding: 174 174 407
Width: 1824
VWidth: 0
Flags: W
HStem: -28 109<615.629 1133.45> 753 120<856 931> 1214 145<892 1077.44> 1571 113<764.542 1282.04>
LayerCount: 2
UndoRedoHistory
Layer: 1
Undoes
EndUndoes
Redoes
EndRedoes
EndUndoRedoHistory
Fore
SplineSet
860 -28 m 0
 280 -28 92 417 135 828 c 0
 178 1241 460 1684 1040 1684 c 0
 1618 1684 1806 1241 1763 828 c 0
 1720 415 1440 -28 860 -28 c 0
871 81 m 0
 1349 81 1598 454 1637 827 c 0
 1676 1202 1505 1571 1027 1571 c 0
 545 1571 297 1202 258 827 c 0
 219 454 389 81 871 81 c 0
856 873 m 1
 898 873 l 2
 1045 873 1093 924 1106 1052 c 0
 1117 1154 1083 1214 974 1214 c 2
 892 1214 l 1
 856 873 l 1
566 309 m 1
 677 1359 l 1
 1003 1359 l 2
 1244 1359 1356 1269 1334 1056 c 0
 1320 922 1255 849 1146 799 c 1
 1283 309 l 1
 1041 309 l 1
 931 753 l 1
 844 753 l 1
 797 309 l 1
 566 309 l 1
EndSplineSet
EndChar

StartChar: ring
Encoding: 505 730 408
Width: 426
VWidth: 0
Flags: W
HStem: 1213 119<214.188 397.518> 1561 119<227.681 411.188>
VStem: 76 476
LayerCount: 2
UndoRedoHistory
Layer: 1
Undoes
EndUndoes
Redoes
EndRedoes
EndUndoRedoHistory
Fore
SplineSet
288 1213 m 0
 149 1213 60 1303 76 1447 c 1
 90 1592 198 1680 337 1680 c 0
 477 1680 566 1592 552 1447 c 1
 537 1303 428 1213 288 1213 c 0
301 1332 m 0
 372 1332 417 1380 425 1447 c 1
 431 1514 396 1561 325 1561 c 0
 252 1561 207 1514 201 1447 c 0
 194 1380 229 1332 301 1332 c 0
EndSplineSet
EndChar

StartChar: s
Encoding: 115 115 409
Width: 807
VWidth: 0
Flags: W
HStem: -18 194<297.058 465.706> 1004 198<387.659 549.322>
VStem: 595 189<887.311 965.072>
AnchorPoint: "cedilla" 370 0 basechar 0
LayerCount: 2
UndoRedoHistory
Layer: 1
Undoes
EndUndoes
Redoes
EndRedoes
EndUndoRedoHistory
Fore
SplineSet
359 -18 m 0
 161 -18 47 98 26 301 c 1
 244 376 l 1
 258 247 301 174 384 176 c 0
 445 178 493 224 496 286 c 0
 499 333 457 392 401 445 c 2
 251 586 l 2
 173 659 100 756 118 892 c 0
 142 1084 291 1202 482 1202 c 0
 673 1202 772 1071 784 893 c 1
 595 818 l 1
 586 917 556 1003 474 1004 c 1
 411 1006 370 958 365 908 c 0
 360 865 397 816 443 771 c 2
 596 617 l 1
 678 538 758 445 743 295 c 0
 721 88 556 -18 359 -18 c 0
EndSplineSet
EndChar

StartChar: section
Encoding: 167 167 415
Width: 919
VWidth: 0
Flags: W
HStem: -15 211<338.501 536.564> 1481 209<470.648 659.936>
LayerCount: 2
UndoRedoHistory
Layer: 1
Undoes
EndUndoes
Redoes
EndRedoes
EndUndoRedoHistory
Fore
SplineSet
528 705 m 1
 571 725 623 766 629 824 c 0
 632 857 622 907 576 938 c 2
 483 1000 l 1
 434 977 386 928 379 868 c 0
 375 830 394 791 420 774 c 2
 528 705 l 1
405 -15 m 0
 193 -15 98 131 74 307 c 1
 276 366 l 1
 295 295 337 196 430 196 c 0
 503 196 554 231 566 300 c 0
 578 366 551 414 479 462 c 1
 277 593 l 2
 186 652 117 727 134 866 c 1
 152 1000 232 1089 335 1128 c 1
 255 1177 174 1270 185 1389 c 1
 200 1580 373 1690 585 1690 c 0
 799 1690 898 1545 921 1366 c 1
 722 1308 l 1
 704 1385 668 1482 567 1481 c 0
 497 1481 450 1443 442 1373 c 0
 436 1313 484 1276 516 1255 c 2
 730 1112 l 2
 821 1052 872 955 860 832 c 1
 846 710 775 630 679 575 c 1
 760 505 821 428 808 308 c 0
 786 104 629 -15 405 -15 c 0
EndSplineSet
EndChar

StartChar: semicolon
Encoding: 59 59 416
Width: 497
VWidth: 0
Flags: W
HStem: -156 106<99 181.417> 896 274<196 434>
VStem: 79 383
LayerCount: 2
UndoRedoHistory
Layer: 1
Undoes
EndUndoes
Redoes
EndRedoes
EndUndoRedoHistory
Fore
SplineSet
167 896 m 1
 196 1170 l 1
 462 1170 l 1
 434 896 l 1
 167 896 l 1
99 -156 m 1
 79 -50 l 1
 162 -46 217 0 228 96 c 1
 84 96 l 1
 112 363 l 1
 383 363 l 1
 356 113 l 1
 339 -56 261 -155 99 -156 c 1
EndSplineSet
EndChar

StartChar: seven
Encoding: 55 55 417
Width: 1055
VWidth: 0
Flags: W
HStem: 0 21G<255 530.522> 1444 214<268 726>
LayerCount: 2
UndoRedoHistory
Layer: 1
Undoes
EndUndoes
Redoes
EndRedoes
EndUndoRedoHistory
Fore
SplineSet
255 0 m 1
 726 1444 l 1
 246 1444 l 1
 268 1658 l 1
 1021 1658 l 1
 1005 1475 l 1
 524 0 l 1
 255 0 l 1
EndSplineSet
EndChar

StartChar: six
Encoding: 54 54 418
Width: 1055
VWidth: 0
Flags: W
HStem: -20 218<419.428 612.322> 809 210<504.069 676.085> 1458 219<547.932 745.804>
LayerCount: 2
UndoRedoHistory
Layer: 1
Undoes
EndUndoes
Redoes
EndRedoes
EndUndoRedoHistory
Fore
SplineSet
513 198 m 0
 635 198 677 329 693 487 c 0
 711 656 726 809 576 809 c 0
 500 809 444 758 414 710 c 1
 387 460 l 2
 373 329 391 198 513 198 c 0
488 -20 m 0
 184 -20 83 224 115 529 c 2
 173 1085 l 2
 207 1410 327 1677 666 1677 c 0
 949 1677 1063 1526 1041 1261 c 0
 1041 1255 1039 1242 1039 1237 c 1
 769 1237 l 1
 783 1376 767 1458 644 1458 c 0
 536 1458 481 1356 455 1112 c 2
 434 910 l 1
 480 977 563 1018 670 1019 c 0
 942 1022 1006 815 977 544 c 0
 944 226 807 -20 488 -20 c 0
EndSplineSet
EndChar

StartChar: slash
Encoding: 47 47 419
Width: 806
VWidth: 0
Flags: W
HStem: 0 21G<22 224.72> 1638 20G<653.292 857>
LayerCount: 2
UndoRedoHistory
Layer: 1
Undoes
EndUndoes
Redoes
EndRedoes
EndUndoRedoHistory
Fore
SplineSet
22 0 m 1
 661 1658 l 1
 857 1658 l 1
 217 0 l 1
 22 0 l 1
EndSplineSet
EndChar

StartChar: sterling
Encoding: 163 163 421
Width: 895
VWidth: 0
Flags: W
HStem: 0 218<379 782> 690 208<60 158 450 667> 1449 228<541.488 681.378>
VStem: 692 222<1219 1440.75>
LayerCount: 2
UndoRedoHistory
Layer: 1
Undoes
EndUndoes
Redoes
EndRedoes
EndUndoRedoHistory
Fore
SplineSet
-34 0 m 1
 -19 145 l 1
 107 204 l 1
 158 690 l 1
 39 690 l 1
 60 899 l 1
 180 899 l 1
 199 1079 l 2
 233 1399 298 1677 635 1677 c 0
 885 1677 943 1511 920 1283 c 1
 914 1219 l 1
 692 1219 l 1
 704 1333 709 1449 612 1449 c 0
 518 1449 497 1323 481 1194 c 1
 450 898 l 1
 688 898 l 1
 667 690 l 1
 428 690 l 1
 379 218 l 1
 805 218 l 1
 782 0 l 1
 -34 0 l 1
EndSplineSet
EndChar

StartChar: summation
Encoding: 511 8721 422
Width: 854
VWidth: 0
Flags: W
HStem: -390 205<297 683> 1448 210<476 871>
LayerCount: 2
UndoRedoHistory
Layer: 1
Undoes
EndUndoes
Redoes
EndRedoes
EndUndoRedoHistory
Fore
SplineSet
-39 -390 m 1
 370 652 l 1
 176 1658 l 1
 893 1658 l 1
 871 1448 l 1
 476 1448 l 1
 647 654 l 1
 297 -185 l 1
 705 -185 l 1
 683 -390 l 1
 -39 -390 l 1
EndSplineSet
EndChar

StartChar: t
Encoding: 116 116 423
Width: 676
VWidth: 0
Flags: W
HStem: -16 216<419.88 573> 1002 182<114 212 506 668>
VStem: 95 592
AnchorPoint: "cedilla" 340 0 basechar 0
LayerCount: 2
UndoRedoHistory
Layer: 1
Undoes
EndUndoes
Redoes
EndRedoes
EndUndoRedoHistory
Fore
SplineSet
385 -16 m 0
 166 -12 121 126 140 326 c 1
 212 1002 l 1
 95 1002 l 1
 114 1184 l 1
 230 1184 l 1
 267 1531 l 1
 542 1531 l 1
 506 1184 l 1
 687 1184 l 1
 668 1002 l 1
 487 1002 l 1
 414 313 l 2
 406 234 434 201 510 200 c 0
 538 200 575 204 595 207 c 1
 573 -3 l 1
 519 -9 464 -18 385 -16 c 0
EndSplineSet
EndChar

StartChar: tbar
Encoding: 512 359 424
Width: 571
VWidth: 0
Flags: W
HStem: -16 216<406.88 560> 663 129<46 162.893 451.75 616> 1002 182<101 199 493 655>
VStem: 33 641
LayerCount: 2
UndoRedoHistory
Layer: 1
Undoes
EndUndoes
Redoes
EndRedoes
EndUndoRedoHistory
Fore
SplineSet
33 663 m 1
 46 792 l 1
 176.633136095 792 l 1
 199 1002 l 1
 82 1002 l 1
 101 1184 l 1
 217 1184 l 1
 254 1531 l 1
 529 1531 l 1
 493 1184 l 1
 674 1184 l 1
 655 1002 l 1
 474 1002 l 1
 451.750362845 792 l 1
 629 792 l 1
 616 663 l 1
 438.082728592 663 l 1
 401 313 l 2
 393 234 421 201 497 200 c 0
 525 200 562 204 582 207 c 1
 560 -3 l 1
 506 -9 451 -18 372 -16 c 0
 153 -12 108 126 127 326 c 1
 162.893491124 663 l 1
 33 663 l 1
EndSplineSet
EndChar

StartChar: thorn
Encoding: 254 254 427
Width: 963
VWidth: 0
Flags: W
HStem: -390 21G<14 290.092> -18 198<408.211 654.23> 1009 193<532.863 628.778> 1638 20G<226.9 503>
LayerCount: 2
UndoRedoHistory
Layer: 1
Undoes
EndUndoes
Redoes
EndRedoes
EndUndoRedoHistory
Fore
SplineSet
475 180 m 1
 565 180 586 290 598 413 c 1
 640 807 l 1
 650 911 645 1011 555 1009 c 0
 512 1008 468 987 430 962 c 1
 352 219 l 1
 385 197 425 181 475 180 c 1
14 -390 m 1
 229 1658 l 1
 503 1658 l 1
 445 1093 l 1
 515 1158 598 1203 692 1202 c 0
 916 1200 928 941 913 797 c 2
 873 420 l 2
 849 189 756 -18 545 -18 c 0
 462 -18 394 27 338 88 c 1
 288 -390 l 1
 14 -390 l 1
EndSplineSet
EndChar

StartChar: three
Encoding: 51 51 428
Width: 1055
VWidth: 0
Flags: W
HStem: -22 231<401.113 609.989> 755 238<499 629.489> 1453 225<518.157 730.229>
LayerCount: 2
UndoRedoHistory
Layer: 1
Undoes
EndUndoes
Redoes
EndRedoes
EndUndoRedoHistory
Fore
SplineSet
474 -22 m 0
 173 -22 62 157 92 443 c 2
 98 502 l 1
 376 502 l 1
 375 493 372 466 372 457 c 0
 358 304 373 209 501 209 c 0
 636 209 663 318 680 475 c 1
 697 642 663 745 514 754 c 0
 508 755 481 755 473 755 c 1
 499 993 l 1
 535 993 l 1
 683 998 742 1065 760 1231 c 0
 774 1369 750 1453 629 1453 c 0
 501 1453 468 1349 451 1213 c 0
 450 1205 446 1168 445 1159 c 1
 167 1159 l 1
 175 1234 l 2
 204 1515 376 1678 651 1678 c 0
 930 1678 1066 1519 1037 1239 c 1
 1016 1047 911 921 775 882 c 1
 910 833 980 701 957 479 c 0
 925 179 785 -22 474 -22 c 0
EndSplineSet
EndChar

StartChar: threequarters
Encoding: 190 190 429
Width: 1565
VWidth: 0
Flags: W
HStem: 0 21G<339 533.626 1165 1341.14> 235 132<1051 1189 1378 1478> 865 125<331.669 437.687> 1208 119<353 444.884> 1546 126<379.89 486.597>
VStem: 165 166<990.319 1098> 200 167<1438 1539.11>
LayerCount: 2
UndoRedoHistory
Layer: 1
Undoes
EndUndoes
Redoes
EndRedoes
EndUndoRedoHistory
Fore
SplineSet
1051 367 m 1xf8
 1204 367 l 1
 1233 644 l 1
 1051 367 l 1xf8
339 0 m 1
 1136 1658 l 1
 1322 1658 l 1
 524 0 l 1
 339 0 l 1
1165 1 m 1
 1189 235 l 1
 903 235 l 1
 917 363 l 1
 1275 877 l 1
 1431 877 l 1
 1378 367 l 1
 1492 367 l 1
 1478 235 l 1
 1364 235 l 1
 1339 1 l 1
 1165 1 l 1
372 865 m 0
 223 865 149 954 165 1098 c 1
 331 1098 l 1xfc
 325 1039 329 990 382 990 c 0
 436 990 445 1042 450 1098 c 0
 459 1183 432 1208 341 1208 c 1
 353 1327 l 1
 445 1327 478 1353 486 1436 c 1
 493 1496 495 1546 440 1546 c 0
 383 1546 373 1495 367 1438 c 1
 200 1438 l 1xfa
 216 1591 310 1672 458 1672 c 0
 605 1672 672 1587 657 1442 c 0
 645 1335 571 1276 481 1271 c 1
 579 1261 634 1208 622 1099 c 0
 607 951 518 865 372 865 c 0
EndSplineSet
EndChar

StartChar: threesuperior
Encoding: 179 179 430
Width: 847
VWidth: 0
Flags: W
HStem: 654 170<396.12 550.083> 1177 132<434 570.445> 1648 162<473.756 626.23>
VStem: 189 646
LayerCount: 2
UndoRedoHistory
Layer: 1
Undoes
EndUndoes
Redoes
EndRedoes
EndUndoRedoHistory
Fore
SplineSet
447 654 m 0
 223 654 168 792 189 988 c 1
 192 1020 l 1
 393 1020 l 1
 389 983 l 2
 377 870 398 824 470 824 c 0
 534 824 573 868 585 989 c 0
 598 1112 574 1177 481 1177 c 2
 420 1177 l 1
 434 1309 l 1
 491 1309 l 2
 588 1309 622 1367 636 1500 c 0
 647 1599 624 1648 557 1648 c 0
 485 1648 456 1596 446 1507 c 1
 441 1454 l 1
 240 1454 l 1
 246 1510 l 2
 266 1700 383 1810 573 1810 c 0
 761 1810 855 1701 835 1513 c 0
 820 1367 747 1273 675 1256 c 1
 738 1231 802 1173 783 996 c 1
 763 798 662 654 447 654 c 0
EndSplineSet
EndChar

StartChar: tilde
Encoding: 515 732 431
Width: 881
VWidth: 0
Flags: W
HStem: 1501 172<379.229 538.61> 1638 20G<746.5 888>
VStem: 223 144<1418 1495.78> 749 139<1578.66 1658>
LayerCount: 2
UndoRedoHistory
Layer: 1
Undoes
EndUndoes
Redoes
EndRedoes
EndUndoRedoHistory
Fore
SplineSet
702 1402 m 0x70
 602 1399 494 1501 426 1501 c 0
 389 1501 372 1471 367 1418 c 1
 223 1418 l 1
 238 1565 289 1669 427 1673 c 0xb0
 535 1677 641 1580 693 1577 c 0
 729 1575 744 1601 749 1658 c 1
 888 1658 l 1
 874 1523 832 1405 702 1402 c 0x70
EndSplineSet
EndChar

StartChar: tildecomb
Encoding: 516 771 432
Width: 881
VWidth: 0
Flags: W
HStem: 1501 172<379.229 538.61> 1638 20G<746.5 888>
VStem: 223 144<1418 1495.78> 749 139<1578.66 1658>
LayerCount: 2
UndoRedoHistory
Layer: 1
Undoes
EndUndoes
Redoes
EndRedoes
EndUndoRedoHistory
Fore
SplineSet
702 1402 m 0x70
 602 1399 494 1501 426 1501 c 0
 389 1501 372 1471 367 1418 c 1
 223 1418 l 1
 238 1565 289 1669 427 1673 c 0xb0
 535 1677 641 1580 693 1577 c 0
 729 1575 744 1601 749 1658 c 1
 888 1658 l 1
 874 1523 832 1405 702 1402 c 0x70
EndSplineSet
EndChar

StartChar: trademark
Encoding: 517 8482 433
Width: 1619
VWidth: 0
Flags: W
HStem: 1495 163<246 403 596 760>
LayerCount: 2
UndoRedoHistory
Layer: 1
Undoes
EndUndoes
Redoes
EndRedoes
EndUndoRedoHistory
Fore
SplineSet
321 716 m 1
 403 1495 l 1
 229 1495 l 1
 246 1658 l 1
 777 1658 l 1
 760 1495 l 1
 596 1495 l 1
 514 716 l 1
 321 716 l 1
771 716 m 1
 870 1658 l 1
 1060 1658 l 1
 1177 1048 l 1
 1434 1658 l 1
 1615 1658 l 1
 1516 716 l 1
 1360 716 l 1
 1417 1261 l 1
 1189 716 l 1
 1105 716 l 1
 985 1263 l 1
 928 716 l 1
 771 716 l 1
EndSplineSet
EndChar

StartChar: two
Encoding: 50 50 434
Width: 1055
VWidth: 0
Flags: W
HStem: 0 225<393 868> 1446 232<544.188 740.357>
VStem: 177 274<1108 1329.98>
LayerCount: 2
UndoRedoHistory
Layer: 1
Undoes
EndUndoes
Redoes
EndRedoes
EndUndoRedoHistory
Fore
SplineSet
49 0 m 1
 70 196 l 1
 543 832 l 1
 642 967 746 1075 764 1245 c 0
 778 1374 744 1450 643 1446 c 0
 523 1441 474 1323 458 1176 c 2
 451 1108 l 1
 177 1108 l 1
 185 1178 l 1
 216 1474 355 1678 665 1678 c 0
 948 1678 1070 1515 1041 1243 c 0
 1019 1030 910 903 794 751 c 2
 393 225 l 1
 892 225 l 1
 868 0 l 1
 49 0 l 1
EndSplineSet
EndChar

StartChar: twosuperior
Encoding: 178 178 435
Width: 847
VWidth: 0
Flags: W
HStem: 673 161<413 727>
VStem: 241 193<1423 1593.06>
LayerCount: 2
UndoRedoHistory
Layer: 1
Undoes
EndUndoes
Redoes
EndRedoes
EndUndoRedoHistory
Fore
SplineSet
166 673 m 1
 182 833 l 1
 501 1249 l 1
 564 1333 641 1412 652 1517 c 0
 662 1604 622 1644 555 1636 c 0
 480 1628 450 1577 434 1423 c 1
 241 1423 l 1
 246 1472 l 2
 267 1673 370 1810 582 1810 c 0
 765 1810 869 1703 849 1517 c 0
 835 1379 746 1273 657 1154 c 1
 413 834 l 1
 743 834 l 1
 727 673 l 1
 166 673 l 1
EndSplineSet
EndChar

StartChar: u
Encoding: 117 117 436
Width: 960
VWidth: 0
Flags: W
HStem: 0 3G<166 294.5 527 803.095> 1164 20G<170.911 447 648.888 925>
AnchorPoint: "ogonek" 672 0 basechar 0
LayerCount: 2
UndoRedoHistory
Layer: 1
Undoes
EndUndoes
Redoes
EndRedoes
EndUndoRedoHistory
Fore
SplineSet
239 -18 m 0
 93 -18 62 112 74 236 c 2
 173 1184 l 1
 447 1184 l 1
 354 295 l 2
 347 228 357 184 424 185 c 0
 461 185 507 207 551 237 c 1
 651 1184 l 1
 925 1184 l 1
 801 0 l 1
 527 0 l 1
 538 111 l 1
 449 37 350 -18 239 -18 c 0
EndSplineSet
EndChar

StartChar: underscore
Encoding: 95 95 444
Width: 727
VWidth: 0
Flags: W
HStem: -310 196<-62 645>
LayerCount: 2
UndoRedoHistory
Layer: 1
Undoes
EndUndoes
Redoes
EndRedoes
EndUndoRedoHistory
Fore
SplineSet
-82 -310 m 1
 -62 -114 l 1
 665 -114 l 1
 645 -310 l 1
 -82 -310 l 1
EndSplineSet
EndChar

StartChar: uni00AD
Encoding: 173 173 446
Width: 729
VWidth: 0
Flags: W
HStem: 832 192<181 650>
VStem: 161 508
LayerCount: 2
UndoRedoHistory
Layer: 1
Undoes
EndUndoes
Redoes
EndRedoes
EndUndoRedoHistory
Fore
SplineSet
161 832 m 1
 181 1024 l 1
 669 1024 l 1
 650 832 l 1
 161 832 l 1
EndSplineSet
EndChar

StartChar: uni0237
Encoding: 561 567 487
Width: 508
VWidth: 0
Flags: W
HStem: -345 209<-97.7107 53.0603> 1164 20G<205.895 482>
VStem: -117 599
AnchorPoint: "circumflexcomb" 215 1300 basechar 0
LayerCount: 2
UndoRedoHistory
Layer: 1
Undoes
EndUndoes
Redoes
EndRedoes
EndUndoRedoHistory
Fore
SplineSet
-117 -325 m 1
 -96 -129 l 1
 -81 -132 -56 -136 -38 -136 c 0
 36 -136 74 -92 82 -13 c 2
 208 1184 l 1
 482 1184 l 1
 353 -44 l 2
 333 -229 212 -345 23 -345 c 0
 -26 -345 -79 -339 -117 -325 c 1
EndSplineSet
EndChar

StartChar: uni0302
Encoding: 563 770 489
Width: 756
VWidth: 0
Flags: W
HStem: 1288 370<323 379>
VStem: 157 621
AnchorPoint: "circumflexcomb" 328 1225 mark 0
LayerCount: 2
UndoRedoHistory
Layer: 1
Undoes
EndUndoes
Redoes
EndRedoes
EndUndoRedoHistory
Fore
SplineSet
157 1288 m 1
 379 1658 l 1
 630 1658 l 1
 778 1288 l 1
 574 1288 l 1
 492 1528 l 1
 360 1288 l 1
 157 1288 l 1
EndSplineSet
EndChar

StartChar: uni0304
Encoding: 564 772 490
Width: 503
VWidth: 0
Flags: W
HStem: 1511 147<160 607>
VStem: 144 479
LayerCount: 2
UndoRedoHistory
Layer: 1
Undoes
EndUndoes
Redoes
EndRedoes
EndUndoRedoHistory
Fore
SplineSet
144 1511 m 1
 160 1658 l 1
 623 1658 l 1
 607 1511 l 1
 144 1511 l 1
EndSplineSet
EndChar

StartChar: uni0306
Encoding: 565 774 491
Width: 692
VWidth: 0
Flags: W
HStem: 1365 133<335.49 572.906> 1638 20G<163 312 612 759>
VStem: 172 140<1521.45 1658> 618 141<1547.6 1658>
LayerCount: 2
UndoRedoHistory
Layer: 1
Undoes
EndUndoes
Redoes
EndRedoes
EndUndoRedoHistory
Fore
SplineSet
435 1365 m 0
 223 1365 154 1489 172 1658 c 1
 312 1658 l 1
 300 1545 345 1498 449 1498 c 0
 552 1498 606 1546 618 1658 c 1
 759 1658 l 1
 742 1489 648 1365 435 1365 c 0
EndSplineSet
EndChar

StartChar: uni0307
Encoding: 566 775 492
Width: 145
VWidth: 0
Flags: W
HStem: 1384 274<86 325>
VStem: 58 295
LayerCount: 2
UndoRedoHistory
Layer: 1
Undoes
EndUndoes
Redoes
EndRedoes
EndUndoRedoHistory
Fore
SplineSet
58 1384 m 1
 86 1658 l 1
 353 1658 l 1
 325 1384 l 1
 58 1384 l 1
EndSplineSet
EndChar

StartChar: uni0308
Encoding: 567 776 493
Width: 844
VWidth: 0
Flags: W
HStem: 1396 262<227 449 616 838>
VStem: 200 666
LayerCount: 2
UndoRedoHistory
Layer: 1
Undoes
EndUndoes
Redoes
EndRedoes
EndUndoRedoHistory
Fore
SplineSet
588 1396 m 1
 616 1658 l 1
 866 1658 l 1
 838 1396 l 1
 588 1396 l 1
200 1396 m 1
 227 1658 l 1
 476 1658 l 1
 449 1396 l 1
 200 1396 l 1
EndSplineSet
EndChar

StartChar: uni030A
Encoding: 568 778 494
Width: 426
VWidth: 0
Flags: W
HStem: 1213 119<214.188 397.518> 1561 119<227.681 411.188>
VStem: 76 476
LayerCount: 2
UndoRedoHistory
Layer: 1
Undoes
EndUndoes
Redoes
EndRedoes
EndUndoRedoHistory
Fore
SplineSet
288 1213 m 0
 149 1213 60 1303 76 1447 c 1
 90 1592 198 1680 337 1680 c 0
 477 1680 566 1592 552 1447 c 1
 537 1303 428 1213 288 1213 c 0
301 1332 m 0
 372 1332 417 1380 425 1447 c 1
 431 1514 396 1561 325 1561 c 0
 252 1561 207 1514 201 1447 c 0
 194 1380 229 1332 301 1332 c 0
EndSplineSet
EndChar

StartChar: uni030C
Encoding: 569 780 495
Width: 243
VWidth: 0
Flags: W
HStem: 1293 365<363 424>
VStem: -1 626
LayerCount: 2
UndoRedoHistory
Layer: 1
Undoes
EndUndoes
Redoes
EndRedoes
EndUndoRedoHistory
Fore
SplineSet
138 1293 m 1
 -1 1658 l 1
 199 1658 l 1
 286 1427 l 1
 424 1658 l 1
 625 1658 l 1
 407 1293 l 1
 138 1293 l 1
EndSplineSet
EndChar

StartChar: uni030F
Encoding: 570 783 496
Width: 709
VWidth: 0
Flags: W
HStem: 1291 382<342 402 647 732>
VStem: 156 633
LayerCount: 2
UndoRedoHistory
Layer: 1
Undoes
EndUndoes
Redoes
EndRedoes
EndUndoRedoHistory
Fore
SplineSet
647 1291 m 1
 521 1673 l 1
 732 1673 l 1
 789 1291 l 1
 647 1291 l 1
342 1291 m 1
 156 1673 l 1
 402 1673 l 1
 485 1291 l 1
 342 1291 l 1
EndSplineSet
EndChar

StartChar: uni0311
Encoding: 571 785 497
Width: 692
VWidth: 0
Flags: W
HStem: 1524 134<340.306 551.927>
VStem: 163 141<1365 1488.67> 564 141<1365 1507.4>
LayerCount: 2
UndoRedoHistory
Layer: 1
Undoes
EndUndoes
Redoes
EndRedoes
EndUndoRedoHistory
Fore
SplineSet
163 1365 m 1
 181 1534 257 1658 465 1658 c 0
 671 1658 722 1533 705 1365 c 1
 564 1365 l 1
 576 1478 549 1524 451 1524 c 0
 353 1524 316 1477 304 1365 c 1
 163 1365 l 1
EndSplineSet
EndChar

StartChar: uni0326
Encoding: 572 806 498
Width: 347
VWidth: 0
Flags: W
HStem: -590 117<-16 52.437>
VStem: -51 298
LayerCount: 2
UndoRedoHistory
Layer: 1
Undoes
EndUndoes
Redoes
EndRedoes
EndUndoRedoHistory
Fore
SplineSet
-16 -590 m 1
 -51 -473 l 1
 31 -468 81 -434 91 -337 c 1
 -48 -337 l 1
 -20 -71 l 1
 247 -71 l 1
 221 -313 l 2
 202 -482 146 -589 -16 -590 c 1
EndSplineSet
EndChar

StartChar: uni0490
Encoding: 577 1168 503
Width: 837
VWidth: 0
Flags: W
HStem: 0 21G<77 374.111> 1440 218<524 761>
LayerCount: 2
UndoRedoHistory
Layer: 1
Undoes
EndUndoes
Redoes
EndRedoes
EndUndoRedoHistory
Fore
SplineSet
77 0 m 1
 251 1658 l 1
 761 1658 l 1
 786 1903 l 1
 965 1903 l 1
 917 1440 l 1
 524 1440 l 1
 372 0 l 1
 77 0 l 1
EndSplineSet
EndChar

StartChar: uni04AE
Encoding: 578 -1 504
Width: 998
VWidth: 0
Flags: W
HStem: 0 21G<309 593.105> 1638 20G<143 422.508 821.628 1103>
LayerCount: 2
UndoRedoHistory
Layer: 1
Undoes
EndUndoes
Redoes
EndRedoes
EndUndoRedoHistory
Fore
SplineSet
309 0 m 1
 385 722 l 1
 143 1658 l 1
 418 1658 l 1
 505 1272 l 1
 561 1015 l 1
 668 1271 l 1
 830 1658 l 1
 1103 1658 l 1
 667 722 l 1
 591 0 l 1
 309 0 l 1
EndSplineSet
EndChar

StartChar: uni04AF
Encoding: 579 1199 505
Width: 843
VWidth: 0
Flags: W
HStem: -357 21G<217 462.11> 1164 20G<88 354.232 634.963 905>
LayerCount: 2
UndoRedoHistory
Layer: 1
Undoes
EndUndoes
Redoes
EndRedoes
EndUndoRedoHistory
Fore
SplineSet
217 -357 m 1
 266 111 l 1
 88 1184 l 1
 352 1184 l 1
 430 485 l 1
 641 1184 l 1
 905 1184 l 1
 510 117 l 1
 460 -357 l 1
 217 -357 l 1
EndSplineSet
EndChar

StartChar: uni04B0
Encoding: 580 1200 506
Width: 1007
VWidth: 0
Flags: W
HStem: 0 21G<303 587.105> 600 192<80 360.902 693.607 914> 1638 20G<137 416.508 815.628 1097>
LayerCount: 2
UndoRedoHistory
Layer: 1
Undoes
EndUndoes
Redoes
EndRedoes
EndUndoRedoHistory
Fore
SplineSet
60 600 m 1
 80 792 l 1
 360.901709402 792 l 1
 137 1658 l 1
 412 1658 l 1
 499 1272 l 1
 555 1015 l 1
 662 1271 l 1
 824 1658 l 1
 1097 1658 l 1
 693.606837607 792 l 1
 934 792 l 1
 914 600 l 1
 648.157894737 600 l 1
 585 0 l 1
 303 0 l 1
 366.157894737 600 l 1
 60 600 l 1
EndSplineSet
EndChar

StartChar: uni04B1
Encoding: 581 1201 507
Width: 851
VWidth: 0
Flags: W
HStem: -357 21G<203 448.11> -23 171<46 237.97 507.476 714> 1164 20G<74 340.232 620.963 891>
LayerCount: 2
UndoRedoHistory
Layer: 1
Undoes
EndUndoes
Redoes
EndRedoes
EndUndoRedoHistory
Fore
SplineSet
29 -23 m 1
 46 148 l 1
 245.862068966 148 l 1
 74 1184 l 1
 338 1184 l 1
 416 485 l 1
 627 1184 l 1
 891 1184 l 1
 507.476101218 148 l 1
 731 148 l 1
 714 -23 l 1
 481.232067511 -23 l 1
 446 -357 l 1
 203 -357 l 1
 237.97008547 -23 l 1
 29 -23 l 1
EndSplineSet
EndChar

StartChar: uni04E8
Encoding: 582 1256 508
Width: 1146
VWidth: 0
Flags: W
HStem: -20 220<408.278 652.472> 748 192<428.262 759.241> 1458 219<528.619 776.251>
LayerCount: 2
UndoRedoHistory
Layer: 1
Undoes
EndUndoes
Redoes
EndRedoes
EndUndoRedoHistory
Fore
SplineSet
502 -20 m 0
 150 -20 49 186 84 526 c 1
 149 1139 l 2
 184 1478 328 1677 681 1677 c 0
 1032 1677 1136 1476 1100 1139 c 2
 1035 526 l 2
 1000 189 853 -20 502 -20 c 0
525 200 m 0
 679 200 713 311 729 458 c 2
 759.240641711 748 l 1
 408.240641711 748 l 1
 378 458 l 2
 362 311 372 200 525 200 c 0
428.262032086 940 m 1
 779.262032086 940 l 1
 807 1206 l 2
 822 1353 811 1458 658 1458 c 0
 504 1458 471 1353 456 1206 c 2
 428.262032086 940 l 1
EndSplineSet
EndChar

StartChar: uni04E9
Encoding: 583 1257 509
Width: 923
VWidth: 0
Flags: W
HStem: -18 194<344.73 499.308> 533 153<366.553 557.277> 1008 194<420.608 575.001>
LayerCount: 2
UndoRedoHistory
Layer: 1
Undoes
EndUndoes
Redoes
EndRedoes
EndUndoRedoHistory
Fore
SplineSet
395 -18 m 0
 134 -18 37 139 64 399 c 2
 104 785 l 1
 132 1044 262 1202 524 1202 c 0
 785 1202 885 1045 857 785 c 1
 817 399 l 1
 789 139 657 -18 395 -18 c 0
416 176 m 0
 515 176 531 273 541 380 c 1
 557.276595745 533 l 1
 350.276595745 533 l 1
 334 380 l 2
 323 274 319 176 416 176 c 0
366.553191489 686 m 1
 573.553191489 686 l 1
 586 803 l 2
 597 909 602 1008 504 1008 c 0
 406 1008 390 908 379 803 c 2
 366.553191489 686 l 1
EndSplineSet
EndChar

StartChar: uni2074
Encoding: 598 8308 524
Width: 794
VWidth: 0
Flags: W
HStem: 818 133<270 439 677 784> 1638 20G<525.983 750>
LayerCount: 2
UndoRedoHistory
Layer: 1
Undoes
EndUndoes
Redoes
EndRedoes
EndUndoRedoHistory
Fore
SplineSet
270 951 m 1
 453 951 l 1
 494 1340 l 1
 270 951 l 1
408 523 m 1
 439 818 l 1
 98 818 l 1
 112 949 l 1
 538 1658 l 1
 750 1658 l 1
 677 951 l 1
 798 951 l 1
 784 818 l 1
 662 818 l 1
 631 523 l 1
 408 523 l 1
EndSplineSet
EndChar

StartChar: uni2215
Encoding: 599 8725 525
Width: 806
VWidth: 0
Flags: W
HStem: 0 21G<22 224.72> 1638 20G<653.292 857>
LayerCount: 2
UndoRedoHistory
Layer: 1
Undoes
EndUndoes
Redoes
EndRedoes
EndUndoRedoHistory
Fore
SplineSet
22 0 m 1
 661 1658 l 1
 857 1658 l 1
 217 0 l 1
 22 0 l 1
EndSplineSet
EndChar

StartChar: uni2219
Encoding: 600 8729 526
Width: 394
VWidth: 0
Flags: W
HStem: 638 265<109 349>
VStem: 82 294
LayerCount: 2
UndoRedoHistory
Layer: 1
Undoes
EndUndoes
Redoes
EndRedoes
EndUndoRedoHistory
Fore
SplineSet
82 638 m 1
 109 903 l 1
 376 903 l 1
 349 638 l 1
 82 638 l 1
EndSplineSet
EndChar

StartChar: uniFB01
Encoding: 602 64257 528
Width: 1067
VWidth: 0
Flags: W
HStem: 0 21G<115 390.105 630 905.095> 988 196<109 219 512 734> 1370 236<820 1047> 1404 201<543.823 693.917>
LayerCount: 2
UndoRedoHistory
Layer: 1
Undoes
EndUndoes
Redoes
EndRedoes
EndUndoRedoHistory
Fore
SplineSet
795 1370 m 1xe0
 820 1606 l 1
 1072 1606 l 1
 1047 1370 l 1
 795 1370 l 1xe0
115 0 m 1
 219 988 l 1
 89 988 l 1
 109 1184 l 1
 239 1184 l 1
 246 1245 l 1
 270 1479 354 1605 586 1605 c 0
 624 1605 667 1602 714 1595 c 1
 693 1398 l 1
 670 1402 648 1404 629 1404 c 0xd0
 558 1404 533 1370 523 1276 c 1
 512 1184 l 1
 1027 1184 l 1
 903 0 l 1
 630 0 l 1
 734 988 l 1
 492 988 l 1
 388 0 l 1
 115 0 l 1
EndSplineSet
EndChar

StartChar: uniFB02
Encoding: 603 64258 529
Width: 1099
VWidth: 0
Flags: W
HStem: 0 21G<112 388.093 668 944.107> 984 200<107 216 510 647> 1451 195<568.62 815.652>
LayerCount: 2
UndoRedoHistory
Layer: 1
Undoes
EndUndoes
Redoes
EndRedoes
EndUndoRedoHistory
Fore
SplineSet
112 0 m 1
 216 984 l 1
 86 984 l 1
 107 1184 l 1
 236 1184 l 1
 243 1245 l 1
 262 1425 299 1646 706 1646 c 0
 813 1646 946 1631 1110 1595 c 1
 942 0 l 1
 668 0 l 1
 819 1444 l 1
 781 1449 748 1451 719 1451 c 0
 542 1451 529 1365 517 1248 c 0
 517 1247 510 1184 510 1184 c 1
 667 1184 l 1
 647 984 l 1
 489 984 l 1
 386 0 l 1
 112 0 l 1
EndSplineSet
EndChar

StartChar: uniFB03
Encoding: 604 64259 530
Width: 1571
VWidth: 0
Flags: W
HStem: 0 21G<112 388.103 625 900.103 1137 1413.09> 989 195<107 216 510 729 1022 1241> 1370 236<1317 1556> 1400 206<543.926 691.575 1056.63 1205.6>
LayerCount: 2
UndoRedoHistory
Layer: 1
Undoes
EndUndoes
Redoes
EndRedoes
EndUndoRedoHistory
Fore
SplineSet
1292 1370 m 1xe0
 1317 1606 l 1xe0
 1581 1606 l 1xd0
 1556 1370 l 1
 1292 1370 l 1xe0
112 0 m 1
 216 989 l 1
 87 989 l 1
 107 1184 l 1
 236 1184 l 1
 243 1245 l 1
 266 1467 318 1606 570 1606 c 0
 625 1606 653 1602 712 1595 c 1
 691 1391 l 1
 669 1393 640 1400 618 1400 c 0
 549 1400 528 1351 520 1274 c 2
 510 1184 l 1
 749 1184 l 1
 756 1245 l 1
 779 1467 830 1606 1083 1606 c 0
 1138 1606 1167 1602 1227 1595 c 1
 1205 1391 l 1
 1183 1393 1154 1400 1132 1400 c 0xd0
 1062 1400 1040 1351 1032 1274 c 2
 1022 1184 l 1
 1535 1184 l 1
 1411 0 l 1
 1137 0 l 1
 1241 989 l 1
 1002 989 l 1
 898 0 l 1
 625 0 l 1
 729 989 l 1
 490 989 l 1
 386 0 l 1
 112 0 l 1
EndSplineSet
EndChar

StartChar: v
Encoding: 118 118 535
Width: 822
VWidth: 0
Flags: W
HStem: 0 21G<205.209 526.929> 1164 20G<101 370.667 603.19 872>
VStem: 101 269<1023.87 1184>
LayerCount: 2
UndoRedoHistory
Layer: 1
Undoes
EndUndoes
Redoes
EndRedoes
EndUndoRedoHistory
Fore
SplineSet
207 0 m 1
 101 1184 l 1
 370 1184 l 1
 399 315 l 1
 608 1184 l 1
 872 1184 l 1
 521 0 l 1
 207 0 l 1
EndSplineSet
EndChar

StartChar: w
Encoding: 119 119 536
Width: 1216
VWidth: 0
Flags: W
HStem: 0 21G<183.02 427.802 692.529 930.304> 1164 20G<126 352.592 579.595 788.051 1015.08 1239>
VStem: 126 226<891.348 1184>
LayerCount: 2
UndoRedoHistory
Layer: 1
Undoes
EndUndoes
Redoes
EndRedoes
EndUndoRedoHistory
Fore
SplineSet
184 0 m 1
 126 1184 l 1
 352 1184 l 1
 375 407 l 1
 585 1184 l 1
 787 1184 l 1
 828 404 l 1
 1020 1184 l 1
 1239 1184 l 1
 925 0 l 1
 694 0 l 1
 639 748 l 1
 422 0 l 1
 184 0 l 1
EndSplineSet
EndChar

StartChar: x
Encoding: 120 120 541
Width: 841
VWidth: 0
Flags: W
HStem: 0 21G<-32 221.613 505.983 782> 1164 20G<98 373.069 638.03 890>
LayerCount: 2
UndoRedoHistory
Layer: 1
Undoes
EndUndoes
Redoes
EndRedoes
EndUndoRedoHistory
Fore
SplineSet
-32 0 m 1
 291 633 l 1
 98 1184 l 1
 366 1184 l 1
 483 853 l 1
 648 1184 l 1
 890 1184 l 1
 573 595 l 1
 782 0 l 1
 513 0 l 1
 386 362 l 1
 212 0 l 1
 -32 0 l 1
EndSplineSet
EndChar

StartChar: y
Encoding: 121 121 542
Width: 849
VWidth: 0
Flags: W
HStem: -314 199<49 242.245> 1164 20G<88 359.652 629.612 905>
LayerCount: 2
UndoRedoHistory
Layer: 1
Undoes
EndUndoes
Redoes
EndRedoes
EndUndoRedoHistory
Fore
SplineSet
28 -314 m 1
 49 -115 l 1
 216 -115 267 -96 258 14 c 0
 254 62 243 137 236 186 c 2
 88 1184 l 1
 358 1184 l 1
 423 397 l 1
 635 1184 l 1
 905 1184 l 1
 493 -61 l 2
 429 -256 273 -315 61 -314 c 1
 28 -314 l 1
EndSplineSet
EndChar

StartChar: yen
Encoding: 165 165 546
Width: 958
VWidth: 0
Flags: W
HStem: 0 21G<304 588.167> 240 159<172 329 628 785> 525 160<202 345 689 815> 1638 20G<138 417.771 817.291 1098>
LayerCount: 2
UndoRedoHistory
Layer: 1
Undoes
EndUndoes
Redoes
EndRedoes
EndUndoRedoHistory
Fore
SplineSet
304 0 m 1
 329 240 l 1
 155 240 l 1
 172 399 l 1
 346 399 l 1
 359 525 l 1
 186 525 l 1
 202 685 l 1
 345 685 l 1
 138 1658 l 1
 414 1658 l 1
 549 942 l 1
 825 1658 l 1
 1098 1658 l 1
 689 685 l 1
 832 685 l 1
 815 525 l 1
 642 525 l 1
 628 399 l 1
 802 399 l 1
 785 240 l 1
 612 240 l 1
 586 0 l 1
 304 0 l 1
EndSplineSet
EndChar

StartChar: z
Encoding: 122 122 548
Width: 750
VWidth: 0
Flags: W
HStem: 0 204<329 647> 981 203<173 463>
LayerCount: 2
UndoRedoHistory
Layer: 1
Undoes
EndUndoes
Redoes
EndRedoes
EndUndoRedoHistory
Fore
SplineSet
17 0 m 1
 36 180 l 1
 463 981 l 1
 152 981 l 1
 173 1184 l 1
 774 1184 l 1
 758 1028 l 1
 329 204 l 1
 668 204 l 1
 647 0 l 1
 17 0 l 1
EndSplineSet
EndChar

StartChar: zero
Encoding: 48 48 552
Width: 1054
VWidth: 0
Flags: W
HStem: -22 238<410.02 600.347> 1440 237<525.357 721.433>
LayerCount: 2
UndoRedoHistory
Layer: 1
Undoes
EndUndoes
Redoes
EndRedoes
EndUndoRedoHistory
Fore
SplineSet
475 -22 m 0
 189 -22 67 178 97 462 c 2
 173 1189 l 2
 204 1481 358 1677 654 1677 c 0
 947 1677 1062 1480 1031 1189 c 2
 955 462 l 2
 925 178 760 -22 475 -22 c 0
500 216 m 0
 626 216 663 354 674 466 c 2
 749 1185 l 2
 762 1303 761 1440 629 1440 c 0
 496 1440 467 1303 454 1185 c 2
 379 466 l 2
 367 354 376 216 500 216 c 0
EndSplineSet
EndChar
